<svg width="402" height="225" viewBox="0 0 402 225" fill="none" xmlns="http://www.w3.org/2000/svg">
<mask id="path-1-inside-1_2315_1897" fill="white">
<path d="M-1 0.515137H403V270.515H-1V0.515137Z"/>
</mask>
<path d="M403 270.515V266.515H-1V270.515V274.515H403V270.515Z" fill="#F2F0EF" mask="url(#path-1-inside-1_2315_1897)"/>
<rect x="23" y="24.5151" width="60" height="22" rx="4" fill="#F7F7F7"/>
<path d="M31.96 39.5151V30.8751H32.65V39.5151H31.96ZM39.1993 39.5151V36.1431C39.1993 35.7351 39.1573 35.3711 39.0733 35.0511C38.9933 34.7311 38.8693 34.4591 38.7013 34.2351C38.5373 34.0111 38.3293 33.8411 38.0773 33.7251C37.8293 33.6091 37.5353 33.5511 37.1953 33.5511C36.8433 33.5511 36.5373 33.6131 36.2773 33.7371C36.0213 33.8571 35.8093 34.0271 35.6413 34.2471C35.4773 34.4671 35.3533 34.7291 35.2693 35.0331C35.1893 35.3331 35.1493 35.6611 35.1493 36.0171L34.6033 35.9511C34.6033 35.2511 34.7213 34.6751 34.9573 34.2231C35.1973 33.7671 35.5193 33.4311 35.9233 33.2151C36.3273 32.9951 36.7813 32.8851 37.2853 32.8851C37.6413 32.8851 37.9593 32.9371 38.2393 33.0411C38.5233 33.1451 38.7693 33.2931 38.9773 33.4851C39.1853 33.6731 39.3573 33.8971 39.4933 34.1571C39.6293 34.4131 39.7293 34.6951 39.7933 35.0031C39.8613 35.3111 39.8953 35.6331 39.8953 35.9691V39.5151H39.1993ZM34.4533 39.5151V33.0351H35.0833V34.4931H35.1493V39.5151H34.4533ZM43.8434 39.6831C43.0954 39.6831 42.4774 39.5251 41.9894 39.2091C41.5054 38.8931 41.2054 38.4531 41.0894 37.8891L41.7974 37.7691C41.8974 38.1531 42.1334 38.4591 42.5054 38.6871C42.8774 38.9151 43.3334 39.0291 43.8734 39.0291C44.4094 39.0291 44.8354 38.9151 45.1514 38.6871C45.4674 38.4591 45.6254 38.1471 45.6254 37.7511C45.6254 37.5351 45.5754 37.3591 45.4754 37.2231C45.3794 37.0831 45.1874 36.9551 44.8994 36.8391C44.6114 36.7231 44.1834 36.5871 43.6154 36.4311C43.0154 36.2711 42.5454 36.1111 42.2054 35.9511C41.8694 35.7911 41.6314 35.6091 41.4914 35.4051C41.3554 35.2011 41.2874 34.9511 41.2874 34.6551C41.2874 34.2991 41.3894 33.9871 41.5934 33.7191C41.7974 33.4471 42.0814 33.2351 42.4454 33.0831C42.8134 32.9311 43.2374 32.8551 43.7174 32.8551C44.1974 32.8551 44.6294 32.9351 45.0134 33.0951C45.3974 33.2511 45.7074 33.4711 45.9434 33.7551C46.1794 34.0351 46.3154 34.3611 46.3514 34.7331L45.6434 34.8651C45.5754 34.4491 45.3654 34.1211 45.0134 33.8811C44.6614 33.6371 44.2214 33.5131 43.6934 33.5091C43.1934 33.5011 42.7854 33.6011 42.4694 33.8091C42.1534 34.0131 41.9954 34.2831 41.9954 34.6191C41.9954 34.8111 42.0494 34.9751 42.1574 35.1111C42.2694 35.2431 42.4654 35.3651 42.7454 35.4771C43.0254 35.5891 43.4214 35.7091 43.9334 35.8371C44.5574 35.9971 45.0434 36.1611 45.3914 36.3291C45.7434 36.4971 45.9914 36.6951 46.1354 36.9231C46.2794 37.1471 46.3514 37.4251 46.3514 37.7571C46.3514 38.3571 46.1274 38.8291 45.6794 39.1731C45.2354 39.5131 44.6234 39.6831 43.8434 39.6831ZM47.8038 31.7271V30.8451H48.4938V31.7271H47.8038ZM47.8038 39.5151V33.0351H48.4938V39.5151H47.8038ZM52.817 42.5751C52.497 42.5751 52.177 42.5271 51.857 42.4311C51.541 42.3391 51.245 42.1871 50.969 41.9751C50.693 41.7671 50.459 41.4891 50.267 41.1411L50.891 40.7691C51.087 41.1691 51.365 41.4551 51.725 41.6271C52.085 41.7991 52.451 41.8851 52.823 41.8851C53.347 41.8851 53.761 41.7871 54.065 41.5911C54.373 41.3991 54.593 41.1091 54.725 40.7211C54.857 40.3371 54.923 39.8591 54.923 39.2871V37.5891H54.995V33.0351H55.625V39.2871C55.625 39.4791 55.621 39.6631 55.613 39.8391C55.605 40.0151 55.587 40.1911 55.559 40.3671C55.487 40.8671 55.339 41.2791 55.115 41.6031C54.891 41.9311 54.587 42.1751 54.203 42.3351C53.823 42.4951 53.361 42.5751 52.817 42.5751ZM52.787 39.6951C52.175 39.6951 51.657 39.5451 51.233 39.2451C50.813 38.9411 50.491 38.5311 50.267 38.0151C50.047 37.4951 49.937 36.9111 49.937 36.2631C49.937 35.6231 50.047 35.0451 50.267 34.5291C50.487 34.0131 50.803 33.6051 51.215 33.3051C51.631 33.0051 52.133 32.8551 52.721 32.8551C53.325 32.8551 53.835 33.0031 54.251 33.2991C54.667 33.5951 54.981 34.0011 55.193 34.5171C55.405 35.0291 55.511 35.6111 55.511 36.2631C55.511 36.9111 55.405 37.4931 55.193 38.0091C54.981 38.5251 54.673 38.9351 54.269 39.2391C53.865 39.5431 53.371 39.6951 52.787 39.6951ZM52.829 39.0351C53.313 39.0351 53.715 38.9151 54.035 38.6751C54.359 38.4311 54.599 38.1011 54.755 37.6851C54.915 37.2651 54.995 36.7911 54.995 36.2631C54.995 35.7311 54.915 35.2571 54.755 34.8411C54.595 34.4251 54.355 34.1011 54.035 33.8691C53.715 33.6331 53.317 33.5151 52.841 33.5151C52.349 33.5151 51.943 33.6371 51.623 33.8811C51.303 34.1211 51.065 34.4491 50.909 34.8651C50.753 35.2771 50.675 35.7431 50.675 36.2631C50.675 36.7871 50.755 37.2591 50.915 37.6791C51.079 38.0951 51.319 38.4251 51.635 38.6691C51.955 38.9131 52.353 39.0351 52.829 39.0351ZM62.0508 39.5151V36.1431C62.0508 35.7351 62.0088 35.3711 61.9248 35.0511C61.8448 34.7311 61.7208 34.4591 61.5528 34.2351C61.3888 34.0111 61.1808 33.8411 60.9288 33.7251C60.6808 33.6091 60.3868 33.5511 60.0468 33.5511C59.6948 33.5511 59.3888 33.6131 59.1288 33.7371C58.8728 33.8571 58.6608 34.0271 58.4928 34.2471C58.3288 34.4671 58.2048 34.7291 58.1208 35.0331C58.0408 35.3331 58.0008 35.6611 58.0008 36.0171L57.4548 35.9511C57.4548 35.2511 57.5728 34.6751 57.8088 34.2231C58.0488 33.7671 58.3708 33.4311 58.7748 33.2151C59.1788 32.9951 59.6328 32.8851 60.1368 32.8851C60.4928 32.8851 60.8108 32.9371 61.0908 33.0411C61.3748 33.1451 61.6208 33.2931 61.8288 33.4851C62.0368 33.6731 62.2088 33.8971 62.3448 34.1571C62.4808 34.4131 62.5808 34.6951 62.6448 35.0031C62.7128 35.3111 62.7468 35.6331 62.7468 35.9691V39.5151H62.0508ZM57.3048 39.5151V30.8751H57.9348V35.8671H58.0008V39.5151H57.3048ZM67.7389 39.5151C67.3949 39.5911 67.0549 39.6191 66.7189 39.5991C66.3829 39.5831 66.0829 39.5091 65.8189 39.3771C65.5589 39.2411 65.3629 39.0331 65.2309 38.7531C65.1229 38.5251 65.0629 38.2951 65.0509 38.0631C65.0389 37.8311 65.0329 37.5651 65.0329 37.2651V31.2351H65.7289V37.2531C65.7289 37.5251 65.7309 37.7511 65.7349 37.9311C65.7429 38.1071 65.7849 38.2691 65.8609 38.4171C66.0049 38.6931 66.2329 38.8611 66.5449 38.9211C66.8569 38.9771 67.2549 38.9671 67.7389 38.8911V39.5151ZM63.5809 33.6651V33.0351H67.7389V33.6651H63.5809ZM71.3707 39.6831C70.6227 39.6831 70.0047 39.5251 69.5167 39.2091C69.0327 38.8931 68.7327 38.4531 68.6167 37.8891L69.3247 37.7691C69.4247 38.1531 69.6607 38.4591 70.0327 38.6871C70.4047 38.9151 70.8607 39.0291 71.4007 39.0291C71.9367 39.0291 72.3627 38.9151 72.6787 38.6871C72.9947 38.4591 73.1527 38.1471 73.1527 37.7511C73.1527 37.5351 73.1027 37.3591 73.0027 37.2231C72.9067 37.0831 72.7147 36.9551 72.4267 36.8391C72.1387 36.7231 71.7107 36.5871 71.1427 36.4311C70.5427 36.2711 70.0727 36.1111 69.7327 35.9511C69.3967 35.7911 69.1587 35.6091 69.0187 35.4051C68.8827 35.2011 68.8147 34.9511 68.8147 34.6551C68.8147 34.2991 68.9167 33.9871 69.1207 33.7191C69.3247 33.4471 69.6087 33.2351 69.9727 33.0831C70.3407 32.9311 70.7647 32.8551 71.2447 32.8551C71.7247 32.8551 72.1567 32.9351 72.5407 33.0951C72.9247 33.2511 73.2347 33.4711 73.4707 33.7551C73.7067 34.0351 73.8427 34.3611 73.8787 34.7331L73.1707 34.8651C73.1027 34.4491 72.8927 34.1211 72.5407 33.8811C72.1887 33.6371 71.7487 33.5131 71.2207 33.5091C70.7207 33.5011 70.3127 33.6011 69.9967 33.8091C69.6807 34.0131 69.5227 34.2831 69.5227 34.6191C69.5227 34.8111 69.5767 34.9751 69.6847 35.1111C69.7967 35.2431 69.9927 35.3651 70.2727 35.4771C70.5527 35.5891 70.9487 35.7091 71.4607 35.8371C72.0847 35.9971 72.5707 36.1611 72.9187 36.3291C73.2707 36.4971 73.5187 36.6951 73.6627 36.9231C73.8067 37.1471 73.8787 37.4251 73.8787 37.7571C73.8787 38.3571 73.6547 38.8291 73.2067 39.1731C72.7627 39.5131 72.1507 39.6831 71.3707 39.6831Z" fill="black"/>
<rect width="356" height="77" transform="translate(23 50.5151)" fill="white"/>
<path d="M23.98 81.5151V71.4351H29.951V72.8981H25.443V75.7401H29.111V77.2101H25.443V81.5151H23.98ZM34.2903 81.7251C33.5343 81.7251 32.8787 81.5548 32.3233 81.2141C31.768 80.8735 31.3387 80.4045 31.0353 79.8071C30.7367 79.2051 30.5873 78.5121 30.5873 77.7281C30.5873 76.9395 30.7413 76.2465 31.0493 75.6491C31.3573 75.0471 31.789 74.5805 32.3443 74.2491C32.8997 73.9131 33.5483 73.7451 34.2903 73.7451C35.0463 73.7451 35.702 73.9155 36.2573 74.2561C36.8127 74.5968 37.242 75.0658 37.5453 75.6631C37.8487 76.2605 38.0003 76.9488 38.0003 77.7281C38.0003 78.5168 37.8463 79.2121 37.5383 79.8141C37.235 80.4115 36.8057 80.8805 36.2503 81.2211C35.695 81.5571 35.0417 81.7251 34.2903 81.7251ZM34.2903 80.3461C35.0137 80.3461 35.5527 80.1035 35.9073 79.6181C36.2667 79.1281 36.4463 78.4981 36.4463 77.7281C36.4463 76.9395 36.2643 76.3095 35.9003 75.8381C35.541 75.3621 35.0043 75.1241 34.2903 75.1241C33.8003 75.1241 33.3967 75.2361 33.0793 75.4601C32.762 75.6795 32.5263 75.9851 32.3723 76.3771C32.2183 76.7645 32.1413 77.2148 32.1413 77.7281C32.1413 78.5215 32.3233 79.1561 32.6873 79.6321C33.0513 80.1081 33.5857 80.3461 34.2903 80.3461ZM42.8216 81.7251C42.0656 81.7251 41.4099 81.5548 40.8546 81.2141C40.2993 80.8735 39.8699 80.4045 39.5666 79.8071C39.2679 79.2051 39.1186 78.5121 39.1186 77.7281C39.1186 76.9395 39.2726 76.2465 39.5806 75.6491C39.8886 75.0471 40.3203 74.5805 40.8756 74.2491C41.4309 73.9131 42.0796 73.7451 42.8216 73.7451C43.5776 73.7451 44.2333 73.9155 44.7886 74.2561C45.3439 74.5968 45.7733 75.0658 46.0766 75.6631C46.3799 76.2605 46.5316 76.9488 46.5316 77.7281C46.5316 78.5168 46.3776 79.2121 46.0696 79.8141C45.7663 80.4115 45.3369 80.8805 44.7816 81.2211C44.2263 81.5571 43.5729 81.7251 42.8216 81.7251ZM42.8216 80.3461C43.5449 80.3461 44.0839 80.1035 44.4386 79.6181C44.7979 79.1281 44.9776 78.4981 44.9776 77.7281C44.9776 76.9395 44.7956 76.3095 44.4316 75.8381C44.0723 75.3621 43.5356 75.1241 42.8216 75.1241C42.3316 75.1241 41.9279 75.2361 41.6106 75.4601C41.2933 75.6795 41.0576 75.9851 40.9036 76.3771C40.7496 76.7645 40.6726 77.2148 40.6726 77.7281C40.6726 78.5215 40.8546 79.1561 41.2186 79.6321C41.5826 80.1081 42.1169 80.3461 42.8216 80.3461ZM52.3958 81.5151C51.9198 81.6085 51.4532 81.6481 50.9958 81.6341C50.5385 81.6201 50.1302 81.5315 49.7708 81.3681C49.4115 81.2048 49.1408 80.9481 48.9588 80.5981C48.7955 80.2855 48.7068 79.9681 48.6928 79.6461C48.6835 79.3195 48.6788 78.9508 48.6788 78.5401V71.8551H50.1488V78.4701C50.1488 78.7735 50.1512 79.0371 50.1558 79.2611C50.1652 79.4851 50.2142 79.6741 50.3028 79.8281C50.4708 80.1175 50.7368 80.2831 51.1008 80.3251C51.4695 80.3625 51.9012 80.3461 52.3958 80.2761V81.5151ZM47.2298 75.1311V73.9551H52.3958V75.1311H47.2298ZM61.1185 81.5151C60.6425 81.6085 60.1758 81.6481 59.7185 81.6341C59.2612 81.6201 58.8528 81.5315 58.4935 81.3681C58.1342 81.2048 57.8635 80.9481 57.6815 80.5981C57.5182 80.2855 57.4295 79.9681 57.4155 79.6461C57.4062 79.3195 57.4015 78.9508 57.4015 78.5401V71.8551H58.8715V78.4701C58.8715 78.7735 58.8738 79.0371 58.8785 79.2611C58.8878 79.4851 58.9368 79.6741 59.0255 79.8281C59.1935 80.1175 59.4595 80.2831 59.8235 80.3251C60.1922 80.3625 60.6238 80.3461 61.1185 80.2761V81.5151ZM55.9525 75.1311V73.9551H61.1185V75.1311H55.9525ZM62.7124 81.5151V73.9551H64.0144V75.7891L63.8324 75.5511C63.9258 75.3085 64.0471 75.0868 64.1964 74.8861C64.3458 74.6808 64.5184 74.5128 64.7144 74.3821C64.9058 74.2421 65.1181 74.1348 65.3514 74.0601C65.5894 73.9808 65.8321 73.9341 66.0794 73.9201C66.3268 73.9015 66.5648 73.9131 66.7934 73.9551V75.3271C66.5461 75.2618 66.2708 75.2431 65.9674 75.2711C65.6688 75.2991 65.3934 75.3948 65.1414 75.5581C64.9034 75.7121 64.7144 75.8988 64.5744 76.1181C64.4391 76.3375 64.3411 76.5825 64.2804 76.8531C64.2198 77.1191 64.1894 77.4015 64.1894 77.7001V81.5151H62.7124ZM70.0427 81.7251C69.4827 81.7251 69.0137 81.6225 68.6357 81.4171C68.2577 81.2071 67.9707 80.9318 67.7747 80.5911C67.5834 80.2458 67.4877 79.8678 67.4877 79.4571C67.4877 79.0745 67.5554 78.7385 67.6907 78.4491C67.8261 78.1598 68.0267 77.9148 68.2927 77.7141C68.5587 77.5088 68.8854 77.3431 69.2727 77.2171C69.6087 77.1191 69.9891 77.0328 70.4137 76.9581C70.8384 76.8835 71.2841 76.8135 71.7507 76.7481C72.2221 76.6828 72.6887 76.6175 73.1507 76.5521L72.6187 76.8461C72.6281 76.2535 72.5021 75.8148 72.2407 75.5301C71.9841 75.2408 71.5407 75.0961 70.9107 75.0961C70.5141 75.0961 70.1501 75.1895 69.8187 75.3761C69.4874 75.5581 69.2564 75.8615 69.1257 76.2861L67.7607 75.8661C67.9474 75.2175 68.3021 74.7018 68.8247 74.3191C69.3521 73.9365 70.0521 73.7451 70.9247 73.7451C71.6014 73.7451 72.1894 73.8618 72.6887 74.0951C73.1927 74.3238 73.5614 74.6878 73.7947 75.1871C73.9161 75.4345 73.9907 75.6958 74.0187 75.9711C74.0467 76.2465 74.0607 76.5428 74.0607 76.8601V81.5151H72.7657V79.7861L73.0177 80.0101C72.7051 80.5888 72.3061 81.0205 71.8207 81.3051C71.3401 81.5851 70.7474 81.7251 70.0427 81.7251ZM70.3017 80.5281C70.7171 80.5281 71.0741 80.4558 71.3727 80.3111C71.6714 80.1618 71.9117 79.9728 72.0937 79.7441C72.2757 79.5155 72.3947 79.2775 72.4507 79.0301C72.5301 78.8061 72.5744 78.5541 72.5837 78.2741C72.5977 77.9941 72.6047 77.7701 72.6047 77.6021L73.0807 77.7771C72.6187 77.8471 72.1987 77.9101 71.8207 77.9661C71.4427 78.0221 71.0997 78.0781 70.7917 78.1341C70.4884 78.1855 70.2177 78.2485 69.9797 78.3231C69.7791 78.3931 69.5994 78.4771 69.4407 78.5751C69.2867 78.6731 69.1631 78.7921 69.0697 78.9321C68.9811 79.0721 68.9367 79.2425 68.9367 79.4431C68.9367 79.6391 68.9857 79.8211 69.0837 79.9891C69.1817 80.1525 69.3311 80.2831 69.5317 80.3811C69.7324 80.4791 69.9891 80.5281 70.3017 80.5281ZM76.5714 81.5151V73.6891C76.5714 73.4978 76.5784 73.2948 76.5924 73.0801C76.6064 72.8608 76.6461 72.6461 76.7114 72.4361C76.7814 72.2215 76.8958 72.0255 77.0544 71.8481C77.2458 71.6381 77.4558 71.4888 77.6844 71.4001C77.9131 71.3115 78.1394 71.2601 78.3634 71.2461C78.5921 71.2321 78.8021 71.2251 78.9934 71.2251H79.9454V72.4291H79.0634C78.7181 72.4291 78.4591 72.5155 78.2864 72.6881C78.1184 72.8561 78.0344 73.0965 78.0344 73.4091V81.5151H76.5714ZM75.3184 75.1311V73.9551H79.9454V75.1311H75.3184ZM81.1494 81.5151V73.6891C81.1494 73.4978 81.1564 73.2948 81.1704 73.0801C81.1844 72.8608 81.2241 72.6461 81.2894 72.4361C81.3594 72.2215 81.4738 72.0255 81.6324 71.8481C81.8238 71.6381 82.0338 71.4888 82.2624 71.4001C82.4911 71.3115 82.7174 71.2601 82.9414 71.2461C83.1701 71.2321 83.3801 71.2251 83.5714 71.2251H84.5234V72.4291H83.6414C83.2961 72.4291 83.0371 72.5155 82.8644 72.6881C82.6964 72.8561 82.6124 73.0965 82.6124 73.4091V81.5151H81.1494ZM79.8964 75.1311V73.9551H84.5234V75.1311H79.8964ZM85.9852 72.7161V71.2951H87.4482V72.7161H85.9852ZM85.9852 81.5151V73.9551H87.4482V81.5151H85.9852ZM92.7843 81.7251C92.0096 81.7251 91.3516 81.5525 90.8103 81.2071C90.269 80.8618 89.8536 80.3881 89.5643 79.7861C89.2796 79.1841 89.135 78.5005 89.1303 77.7351C89.135 76.9558 89.2843 76.2675 89.5783 75.6701C89.8723 75.0681 90.2923 74.5968 90.8383 74.2561C91.3843 73.9155 92.04 73.7451 92.8053 73.7451C93.6313 73.7451 94.336 73.9505 94.9193 74.3611C95.5073 74.7718 95.8946 75.3341 96.0813 76.0481L94.6253 76.4681C94.4806 76.0435 94.2426 75.7145 93.9113 75.4811C93.5846 75.2431 93.209 75.1241 92.7843 75.1241C92.3036 75.1241 91.9093 75.2385 91.6013 75.4671C91.2933 75.6911 91.0646 75.9991 90.9153 76.3911C90.766 76.7831 90.689 77.2311 90.6843 77.7351C90.689 78.5145 90.8663 79.1445 91.2163 79.6251C91.571 80.1058 92.0936 80.3461 92.7843 80.3461C93.2556 80.3461 93.636 80.2388 93.9253 80.0241C94.2193 79.8048 94.4433 79.4921 94.5973 79.0861L96.0813 79.4361C95.834 80.1735 95.4256 80.7405 94.8563 81.1371C94.287 81.5291 93.5963 81.7251 92.7843 81.7251ZM104.636 81.5151C104.16 81.6085 103.693 81.6481 103.236 81.6341C102.779 81.6201 102.37 81.5315 102.011 81.3681C101.652 81.2048 101.381 80.9481 101.199 80.5981C101.036 80.2855 100.947 79.9681 100.933 79.6461C100.924 79.3195 100.919 78.9508 100.919 78.5401V71.8551H102.389V78.4701C102.389 78.7735 102.391 79.0371 102.396 79.2611C102.405 79.4851 102.454 79.6741 102.543 79.8281C102.711 80.1175 102.977 80.2831 103.341 80.3251C103.71 80.3625 104.141 80.3461 104.636 80.2761V81.5151ZM99.4701 75.1311V73.9551H104.636V75.1311H99.4701ZM106.23 81.5151V73.9551H107.532V75.7891L107.35 75.5511C107.443 75.3085 107.565 75.0868 107.714 74.8861C107.863 74.6808 108.036 74.5128 108.232 74.3821C108.423 74.2421 108.636 74.1348 108.869 74.0601C109.107 73.9808 109.35 73.9341 109.597 73.9201C109.844 73.9015 110.082 73.9131 110.311 73.9551V75.3271C110.064 75.2618 109.788 75.2431 109.485 75.2711C109.186 75.2991 108.911 75.3948 108.659 75.5581C108.421 75.7121 108.232 75.8988 108.092 76.1181C107.957 76.3375 107.859 76.5825 107.798 76.8531C107.737 77.1191 107.707 77.4015 107.707 77.7001V81.5151H106.23ZM114.86 81.7251C114.109 81.7251 113.449 81.5618 112.879 81.2351C112.315 80.9038 111.874 80.4441 111.556 79.8561C111.244 79.2635 111.087 78.5775 111.087 77.7981C111.087 76.9721 111.241 76.2558 111.549 75.6491C111.862 75.0425 112.296 74.5735 112.851 74.2421C113.407 73.9108 114.053 73.7451 114.79 73.7451C115.56 73.7451 116.216 73.9248 116.757 74.2841C117.299 74.6388 117.702 75.1451 117.968 75.8031C118.239 76.4611 118.346 77.2428 118.29 78.1481H116.827V77.6161C116.818 76.7388 116.65 76.0901 116.323 75.6701C116.001 75.2501 115.509 75.0401 114.846 75.0401C114.114 75.0401 113.563 75.2711 113.194 75.7331C112.826 76.1951 112.641 76.8625 112.641 77.7351C112.641 78.5658 112.826 79.2098 113.194 79.6671C113.563 80.1198 114.095 80.3461 114.79 80.3461C115.248 80.3461 115.642 80.2435 115.973 80.0381C116.309 79.8281 116.571 79.5295 116.757 79.1421L118.192 79.5971C117.898 80.2738 117.453 80.7988 116.855 81.1721C116.258 81.5408 115.593 81.7251 114.86 81.7251ZM112.165 78.1481V77.0071H117.562V78.1481H112.165ZM124.962 81.5151V77.7981C124.962 77.5041 124.936 77.2031 124.885 76.8951C124.838 76.5825 124.745 76.2931 124.605 76.0271C124.469 75.7611 124.276 75.5465 124.024 75.3831C123.776 75.2198 123.452 75.1381 123.051 75.1381C122.789 75.1381 122.542 75.1825 122.309 75.2711C122.075 75.3551 121.87 75.4928 121.693 75.6841C121.52 75.8755 121.382 76.1275 121.28 76.4401C121.182 76.7528 121.133 77.1331 121.133 77.5811L120.223 77.2381C120.223 76.5521 120.351 75.9478 120.608 75.4251C120.864 74.8978 121.233 74.4871 121.714 74.1931C122.194 73.8991 122.775 73.7521 123.457 73.7521C123.979 73.7521 124.418 73.8361 124.773 74.0041C125.127 74.1721 125.414 74.3938 125.634 74.6691C125.858 74.9398 126.028 75.2361 126.145 75.5581C126.261 75.8801 126.341 76.1951 126.383 76.5031C126.425 76.8111 126.446 77.0818 126.446 77.3151V81.5151H124.962ZM119.649 81.5151V73.9551H120.958V76.1391H121.133V81.5151H119.649ZM131.176 81.7251C130.472 81.7251 129.863 81.5501 129.349 81.2001C128.841 80.8501 128.446 80.3741 128.166 79.7721C127.891 79.1655 127.753 78.4841 127.753 77.7281C127.753 76.9675 127.893 76.2885 128.173 75.6911C128.453 75.0891 128.85 74.6155 129.363 74.2701C129.881 73.9201 130.495 73.7451 131.204 73.7451C131.918 73.7451 132.518 73.9201 133.003 74.2701C133.493 74.6155 133.862 75.0891 134.109 75.6911C134.361 76.2931 134.487 76.9721 134.487 77.7281C134.487 78.4841 134.361 79.1631 134.109 79.7651C133.857 80.3671 133.486 80.8455 132.996 81.2001C132.506 81.5501 131.9 81.7251 131.176 81.7251ZM131.379 80.4021C131.86 80.4021 132.252 80.2878 132.555 80.0591C132.859 79.8305 133.08 79.5155 133.22 79.1141C133.36 78.7128 133.43 78.2508 133.43 77.7281C133.43 77.2055 133.358 76.7435 133.213 76.3421C133.073 75.9408 132.854 75.6281 132.555 75.4041C132.261 75.1801 131.886 75.0681 131.428 75.0681C130.943 75.0681 130.544 75.1871 130.231 75.4251C129.919 75.6631 129.685 75.9828 129.531 76.3841C129.382 76.7855 129.307 77.2335 129.307 77.7281C129.307 78.2275 129.382 78.6801 129.531 79.0861C129.685 79.4875 129.914 79.8071 130.217 80.0451C130.525 80.2831 130.913 80.4021 131.379 80.4021ZM133.43 81.5151V76.0761H133.262V71.4351H134.732V81.5151H133.43ZM139.582 81.7181C138.663 81.7181 137.914 81.5151 137.335 81.1091C136.756 80.7031 136.402 80.1315 136.271 79.3941L137.769 79.1631C137.862 79.5551 138.077 79.8655 138.413 80.0941C138.754 80.3181 139.176 80.4301 139.68 80.4301C140.137 80.4301 140.494 80.3368 140.751 80.1501C141.012 79.9635 141.143 79.7068 141.143 79.3801C141.143 79.1888 141.096 79.0348 141.003 78.9181C140.914 78.7968 140.725 78.6825 140.436 78.5751C140.147 78.4678 139.706 78.3348 139.113 78.1761C138.464 78.0081 137.949 77.8285 137.566 77.6371C137.188 77.4411 136.917 77.2148 136.754 76.9581C136.595 76.6968 136.516 76.3818 136.516 76.0131C136.516 75.5558 136.637 75.1568 136.88 74.8161C137.123 74.4755 137.463 74.2118 137.902 74.0251C138.345 73.8385 138.863 73.7451 139.456 73.7451C140.035 73.7451 140.55 73.8361 141.003 74.0181C141.456 74.2001 141.822 74.4591 142.102 74.7951C142.382 75.1265 142.55 75.5161 142.606 75.9641L141.108 76.2371C141.057 75.8731 140.886 75.5861 140.597 75.3761C140.308 75.1661 139.932 75.0518 139.47 75.0331C139.027 75.0145 138.667 75.0891 138.392 75.2571C138.117 75.4205 137.979 75.6468 137.979 75.9361C137.979 76.1041 138.03 76.2465 138.133 76.3631C138.24 76.4798 138.446 76.5918 138.749 76.6991C139.052 76.8065 139.5 76.9348 140.093 77.0841C140.728 77.2475 141.232 77.4295 141.605 77.6301C141.978 77.8261 142.244 78.0618 142.403 78.3371C142.566 78.6078 142.648 78.9368 142.648 79.3241C142.648 80.0708 142.375 80.6565 141.829 81.0811C141.288 81.5058 140.539 81.7181 139.582 81.7181ZM147.14 72.7161V71.2951H148.603V72.7161H147.14ZM147.14 81.5151V73.9551H148.603V81.5151H147.14ZM156.011 81.5151V77.7981C156.011 77.5041 155.985 77.2031 155.934 76.8951C155.887 76.5825 155.794 76.2931 155.654 76.0271C155.518 75.7611 155.325 75.5465 155.073 75.3831C154.825 75.2198 154.501 75.1381 154.1 75.1381C153.838 75.1381 153.591 75.1825 153.358 75.2711C153.124 75.3551 152.919 75.4928 152.742 75.6841C152.569 75.8755 152.431 76.1275 152.329 76.4401C152.231 76.7528 152.182 77.1331 152.182 77.5811L151.272 77.2381C151.272 76.5521 151.4 75.9478 151.657 75.4251C151.913 74.8978 152.282 74.4871 152.763 74.1931C153.243 73.8991 153.824 73.7521 154.506 73.7521C155.028 73.7521 155.467 73.8361 155.822 74.0041C156.176 74.1721 156.463 74.3938 156.683 74.6691C156.907 74.9398 157.077 75.2361 157.194 75.5581C157.31 75.8801 157.39 76.1951 157.432 76.5031C157.474 76.8111 157.495 77.0818 157.495 77.3151V81.5151H156.011ZM150.698 81.5151V73.9551H152.007V76.1391H152.182V81.5151H150.698ZM164.634 81.5151V72.8141H161.281V71.4351H169.45V72.8141H166.097V81.5151H164.634ZM171.72 81.7251C171.16 81.7251 170.691 81.6225 170.313 81.4171C169.935 81.2071 169.648 80.9318 169.452 80.5911C169.261 80.2458 169.165 79.8678 169.165 79.4571C169.165 79.0745 169.233 78.7385 169.368 78.4491C169.504 78.1598 169.704 77.9148 169.97 77.7141C170.236 77.5088 170.563 77.3431 170.95 77.2171C171.286 77.1191 171.667 77.0328 172.091 76.9581C172.516 76.8835 172.962 76.8135 173.428 76.7481C173.9 76.6828 174.366 76.6175 174.828 76.5521L174.296 76.8461C174.306 76.2535 174.18 75.8148 173.918 75.5301C173.662 75.2408 173.218 75.0961 172.588 75.0961C172.192 75.0961 171.828 75.1895 171.496 75.3761C171.165 75.5581 170.934 75.8615 170.803 76.2861L169.438 75.8661C169.625 75.2175 169.98 74.7018 170.502 74.3191C171.03 73.9365 171.73 73.7451 172.602 73.7451C173.279 73.7451 173.867 73.8618 174.366 74.0951C174.87 74.3238 175.239 74.6878 175.472 75.1871C175.594 75.4345 175.668 75.6958 175.696 75.9711C175.724 76.2465 175.738 76.5428 175.738 76.8601V81.5151H174.443V79.7861L174.695 80.0101C174.383 80.5888 173.984 81.0205 173.498 81.3051C173.018 81.5851 172.425 81.7251 171.72 81.7251ZM171.979 80.5281C172.395 80.5281 172.752 80.4558 173.05 80.3111C173.349 80.1618 173.589 79.9728 173.771 79.7441C173.953 79.5155 174.072 79.2775 174.128 79.0301C174.208 78.8061 174.252 78.5541 174.261 78.2741C174.275 77.9941 174.282 77.7701 174.282 77.6021L174.758 77.7771C174.296 77.8471 173.876 77.9101 173.498 77.9661C173.12 78.0221 172.777 78.0781 172.469 78.1341C172.166 78.1855 171.895 78.2485 171.657 78.3231C171.457 78.3931 171.277 78.4771 171.118 78.5751C170.964 78.6731 170.841 78.7921 170.747 78.9321C170.659 79.0721 170.614 79.2425 170.614 79.4431C170.614 79.6391 170.663 79.8211 170.761 79.9891C170.859 80.1525 171.009 80.2831 171.209 80.3811C171.41 80.4791 171.667 80.5281 171.979 80.5281ZM177.556 81.5151V73.9551H178.858V75.7891L178.676 75.5511C178.77 75.3085 178.891 75.0868 179.04 74.8861C179.19 74.6808 179.362 74.5128 179.558 74.3821C179.75 74.2421 179.962 74.1348 180.195 74.0601C180.433 73.9808 180.676 73.9341 180.923 73.9201C181.171 73.9015 181.409 73.9131 181.637 73.9551V75.3271C181.39 75.2618 181.115 75.2431 180.811 75.2711C180.513 75.2991 180.237 75.3948 179.985 75.5581C179.747 75.7121 179.558 75.8988 179.418 76.1181C179.283 76.3375 179.185 76.5825 179.124 76.8531C179.064 77.1191 179.033 77.4015 179.033 77.7001V81.5151H177.556ZM185.812 85.0851C185.406 85.0851 185.011 85.0221 184.629 84.8961C184.251 84.7701 183.905 84.5835 183.593 84.3361C183.28 84.0935 183.021 83.7925 182.816 83.4331L184.167 82.7471C184.33 83.0691 184.563 83.3048 184.867 83.4541C185.17 83.6035 185.49 83.6781 185.826 83.6781C186.241 83.6781 186.596 83.6035 186.89 83.4541C187.184 83.3095 187.405 83.0901 187.555 82.7961C187.709 82.5021 187.783 82.1381 187.779 81.7041V79.5901H187.954V73.9551H189.249V81.7181C189.249 81.9188 189.242 82.1101 189.228 82.2921C189.214 82.4741 189.188 82.6561 189.151 82.8381C189.043 83.3468 188.838 83.7668 188.535 84.0981C188.236 84.4295 187.853 84.6768 187.387 84.8401C186.925 85.0035 186.4 85.0851 185.812 85.0851ZM185.7 81.7251C184.995 81.7251 184.386 81.5501 183.873 81.2001C183.364 80.8501 182.97 80.3741 182.69 79.7721C182.414 79.1655 182.277 78.4841 182.277 77.7281C182.277 76.9675 182.417 76.2885 182.697 75.6911C182.977 75.0891 183.373 74.6155 183.887 74.2701C184.405 73.9201 185.018 73.7451 185.728 73.7451C186.442 73.7451 187.041 73.9201 187.527 74.2701C188.017 74.6155 188.385 75.0891 188.633 75.6911C188.885 76.2931 189.011 76.9721 189.011 77.7281C189.011 78.4841 188.885 79.1631 188.633 79.7651C188.381 80.3671 188.01 80.8455 187.52 81.2001C187.03 81.5501 186.423 81.7251 185.7 81.7251ZM185.903 80.4021C186.383 80.4021 186.775 80.2878 187.079 80.0591C187.382 79.8305 187.604 79.5155 187.744 79.1141C187.884 78.7128 187.954 78.2508 187.954 77.7281C187.954 77.2055 187.881 76.7435 187.737 76.3421C187.597 75.9408 187.377 75.6281 187.079 75.4041C186.785 75.1801 186.409 75.0681 185.952 75.0681C185.466 75.0681 185.067 75.1871 184.755 75.4251C184.442 75.6631 184.209 75.9828 184.055 76.3841C183.905 76.7855 183.831 77.2335 183.831 77.7281C183.831 78.2275 183.905 78.6801 184.055 79.0861C184.209 79.4875 184.437 79.8071 184.741 80.0451C185.049 80.2831 185.436 80.4021 185.903 80.4021ZM194.567 81.7251C193.816 81.7251 193.156 81.5618 192.586 81.2351C192.022 80.9038 191.581 80.4441 191.263 79.8561C190.951 79.2635 190.794 78.5775 190.794 77.7981C190.794 76.9721 190.948 76.2558 191.256 75.6491C191.569 75.0425 192.003 74.5735 192.558 74.2421C193.114 73.9108 193.76 73.7451 194.497 73.7451C195.267 73.7451 195.923 73.9248 196.464 74.2841C197.006 74.6388 197.409 75.1451 197.675 75.8031C197.946 76.4611 198.053 77.2428 197.997 78.1481H196.534V77.6161C196.525 76.7388 196.357 76.0901 196.03 75.6701C195.708 75.2501 195.216 75.0401 194.553 75.0401C193.821 75.0401 193.27 75.2711 192.901 75.7331C192.533 76.1951 192.348 76.8625 192.348 77.7351C192.348 78.5658 192.533 79.2098 192.901 79.6671C193.27 80.1198 193.802 80.3461 194.497 80.3461C194.955 80.3461 195.349 80.2435 195.68 80.0381C196.016 79.8281 196.278 79.5295 196.464 79.1421L197.899 79.5971C197.605 80.2738 197.16 80.7988 196.562 81.1721C195.965 81.5408 195.3 81.7251 194.567 81.7251ZM191.872 78.1481V77.0071H197.269V78.1481H191.872ZM203.894 81.5151C203.418 81.6085 202.951 81.6481 202.494 81.6341C202.037 81.6201 201.628 81.5315 201.269 81.3681C200.91 81.2048 200.639 80.9481 200.457 80.5981C200.294 80.2855 200.205 79.9681 200.191 79.6461C200.182 79.3195 200.177 78.9508 200.177 78.5401V71.8551H201.647V78.4701C201.647 78.7735 201.649 79.0371 201.654 79.2611C201.663 79.4851 201.712 79.6741 201.801 79.8281C201.969 80.1175 202.235 80.2831 202.599 80.3251C202.968 80.3625 203.399 80.3461 203.894 80.2761V81.5151ZM198.728 75.1311V73.9551H203.894V75.1311H198.728ZM210.426 81.5151L207.5 71.4351H209.033L211.154 79.0581L213.275 71.4421L214.815 71.4351L216.936 79.0581L219.057 71.4351H220.597L217.664 81.5151H216.208L214.045 73.9761L211.882 81.5151H210.426ZM223.277 81.7251C222.717 81.7251 222.248 81.6225 221.87 81.4171C221.492 81.2071 221.205 80.9318 221.009 80.5911C220.818 80.2458 220.722 79.8678 220.722 79.4571C220.722 79.0745 220.79 78.7385 220.925 78.4491C221.06 78.1598 221.261 77.9148 221.527 77.7141C221.793 77.5088 222.12 77.3431 222.507 77.2171C222.843 77.1191 223.223 77.0328 223.648 76.9581C224.073 76.8835 224.518 76.8135 224.985 76.7481C225.456 76.6828 225.923 76.6175 226.385 76.5521L225.853 76.8461C225.862 76.2535 225.736 75.8148 225.475 75.5301C225.218 75.2408 224.775 75.0961 224.145 75.0961C223.748 75.0961 223.384 75.1895 223.053 75.3761C222.722 75.5581 222.491 75.8615 222.36 76.2861L220.995 75.8661C221.182 75.2175 221.536 74.7018 222.059 74.3191C222.586 73.9365 223.286 73.7451 224.159 73.7451C224.836 73.7451 225.424 73.8618 225.923 74.0951C226.427 74.3238 226.796 74.6878 227.029 75.1871C227.15 75.4345 227.225 75.6958 227.253 75.9711C227.281 76.2465 227.295 76.5428 227.295 76.8601V81.5151H226V79.7861L226.252 80.0101C225.939 80.5888 225.54 81.0205 225.055 81.3051C224.574 81.5851 223.982 81.7251 223.277 81.7251ZM223.536 80.5281C223.951 80.5281 224.308 80.4558 224.607 80.3111C224.906 80.1618 225.146 79.9728 225.328 79.7441C225.51 79.5155 225.629 79.2775 225.685 79.0301C225.764 78.8061 225.809 78.5541 225.818 78.2741C225.832 77.9941 225.839 77.7701 225.839 77.6021L226.315 77.7771C225.853 77.8471 225.433 77.9101 225.055 77.9661C224.677 78.0221 224.334 78.0781 224.026 78.1341C223.723 78.1855 223.452 78.2485 223.214 78.3231C223.013 78.3931 222.834 78.4771 222.675 78.5751C222.521 78.6731 222.397 78.7921 222.304 78.9321C222.215 79.0721 222.171 79.2425 222.171 79.4431C222.171 79.6391 222.22 79.8211 222.318 79.9891C222.416 80.1525 222.565 80.2831 222.766 80.3811C222.967 80.4791 223.223 80.5281 223.536 80.5281ZM232.004 81.7181C231.084 81.7181 230.335 81.5151 229.757 81.1091C229.178 80.7031 228.823 80.1315 228.693 79.3941L230.191 79.1631C230.284 79.5551 230.499 79.8655 230.835 80.0941C231.175 80.3181 231.598 80.4301 232.102 80.4301C232.559 80.4301 232.916 80.3368 233.173 80.1501C233.434 79.9635 233.565 79.7068 233.565 79.3801C233.565 79.1888 233.518 79.0348 233.425 78.9181C233.336 78.7968 233.147 78.6825 232.858 78.5751C232.568 78.4678 232.127 78.3348 231.535 78.1761C230.886 78.0081 230.37 77.8285 229.988 77.6371C229.61 77.4411 229.339 77.2148 229.176 76.9581C229.017 76.6968 228.938 76.3818 228.938 76.0131C228.938 75.5558 229.059 75.1568 229.302 74.8161C229.544 74.4755 229.885 74.2118 230.324 74.0251C230.767 73.8385 231.285 73.7451 231.878 73.7451C232.456 73.7451 232.972 73.8361 233.425 74.0181C233.877 74.2001 234.244 74.4591 234.524 74.7951C234.804 75.1265 234.972 75.5161 235.028 75.9641L233.53 76.2371C233.478 75.8731 233.308 75.5861 233.019 75.3761C232.729 75.1661 232.354 75.0518 231.892 75.0331C231.448 75.0145 231.089 75.0891 230.814 75.2571C230.538 75.4205 230.401 75.6468 230.401 75.9361C230.401 76.1041 230.452 76.2465 230.555 76.3631C230.662 76.4798 230.867 76.5918 231.171 76.6991C231.474 76.8065 231.922 76.9348 232.515 77.0841C233.149 77.2475 233.653 77.4295 234.027 77.6301C234.4 77.8261 234.666 78.0618 234.825 78.3371C234.988 78.6078 235.07 78.9368 235.07 79.3241C235.07 80.0708 234.797 80.6565 234.251 81.0811C233.709 81.5058 232.96 81.7181 232.004 81.7181ZM241.925 81.5151V77.7981C241.925 77.5041 241.899 77.2031 241.848 76.8951C241.801 76.5825 241.708 76.2931 241.568 76.0271C241.432 75.7611 241.239 75.5465 240.987 75.3831C240.739 75.2198 240.415 75.1381 240.014 75.1381C239.752 75.1381 239.505 75.1825 239.272 75.2711C239.038 75.3551 238.833 75.4928 238.656 75.6841C238.483 75.8755 238.345 76.1275 238.243 76.4401C238.145 76.7528 238.096 77.1331 238.096 77.5811L237.186 77.2381C237.186 76.5521 237.314 75.9478 237.571 75.4251C237.827 74.8978 238.196 74.4871 238.677 74.1931C239.157 73.8991 239.738 73.7521 240.42 73.7521C240.942 73.7521 241.381 73.8361 241.736 74.0041C242.09 74.1721 242.377 74.3938 242.597 74.6691C242.821 74.9398 242.991 75.2361 243.108 75.5581C243.224 75.8801 243.304 76.1951 243.346 76.5031C243.388 76.8111 243.409 77.0818 243.409 77.3151V81.5151H241.925ZM236.612 81.5151V71.4351H237.921V76.8741H238.096V81.5151H236.612ZM245.372 72.7161V71.2951H246.835V72.7161H245.372ZM245.372 81.5151V73.9551H246.835V81.5151H245.372ZM254.243 81.5151V77.7981C254.243 77.5041 254.217 77.2031 254.166 76.8951C254.119 76.5825 254.026 76.2931 253.886 76.0271C253.751 75.7611 253.557 75.5465 253.305 75.3831C253.058 75.2198 252.733 75.1381 252.332 75.1381C252.071 75.1381 251.823 75.1825 251.59 75.2711C251.357 75.3551 251.151 75.4928 250.974 75.6841C250.801 75.8755 250.664 76.1275 250.561 76.4401C250.463 76.7528 250.414 77.1331 250.414 77.5811L249.504 77.2381C249.504 76.5521 249.632 75.9478 249.889 75.4251C250.146 74.8978 250.514 74.4871 250.995 74.1931C251.476 73.8991 252.057 73.7521 252.738 73.7521C253.261 73.7521 253.699 73.8361 254.054 74.0041C254.409 74.1721 254.696 74.3938 254.915 74.6691C255.139 74.9398 255.309 75.2361 255.426 75.5581C255.543 75.8801 255.622 76.1951 255.664 76.5031C255.706 76.8111 255.727 77.0818 255.727 77.3151V81.5151H254.243ZM248.93 81.5151V73.9551H250.239V76.1391H250.414V81.5151H248.93ZM260.665 85.0851C260.259 85.0851 259.865 85.0221 259.482 84.8961C259.104 84.7701 258.759 84.5835 258.446 84.3361C258.134 84.0935 257.875 83.7925 257.669 83.4331L259.02 82.7471C259.184 83.0691 259.417 83.3048 259.72 83.4541C260.024 83.6035 260.343 83.6781 260.679 83.6781C261.095 83.6781 261.449 83.6035 261.743 83.4541C262.037 83.3095 262.259 83.0901 262.408 82.7961C262.562 82.5021 262.637 82.1381 262.632 81.7041V79.5901H262.807V73.9551H264.102V81.7181C264.102 81.9188 264.095 82.1101 264.081 82.2921C264.067 82.4741 264.042 82.6561 264.004 82.8381C263.897 83.3468 263.692 83.7668 263.388 84.0981C263.09 84.4295 262.707 84.6768 262.24 84.8401C261.778 85.0035 261.253 85.0851 260.665 85.0851ZM260.553 81.7251C259.849 81.7251 259.24 81.5501 258.726 81.2001C258.218 80.8501 257.823 80.3741 257.543 79.7721C257.268 79.1655 257.13 78.4841 257.13 77.7281C257.13 76.9675 257.27 76.2885 257.55 75.6911C257.83 75.0891 258.227 74.6155 258.74 74.2701C259.258 73.9201 259.872 73.7451 260.581 73.7451C261.295 73.7451 261.895 73.9201 262.38 74.2701C262.87 74.6155 263.239 75.0891 263.486 75.6911C263.738 76.2931 263.864 76.9721 263.864 77.7281C263.864 78.4841 263.738 79.1631 263.486 79.7651C263.234 80.3671 262.863 80.8455 262.373 81.2001C261.883 81.5501 261.277 81.7251 260.553 81.7251ZM260.756 80.4021C261.237 80.4021 261.629 80.2878 261.932 80.0591C262.236 79.8305 262.457 79.5155 262.597 79.1141C262.737 78.7128 262.807 78.2508 262.807 77.7281C262.807 77.2055 262.735 76.7435 262.59 76.3421C262.45 75.9408 262.231 75.6281 261.932 75.4041C261.638 75.1801 261.263 75.0681 260.805 75.0681C260.32 75.0681 259.921 75.1871 259.608 75.4251C259.296 75.6631 259.062 75.9828 258.908 76.3841C258.759 76.7855 258.684 77.2335 258.684 77.7281C258.684 78.2275 258.759 78.6801 258.908 79.0861C259.062 79.4875 259.291 79.8071 259.594 80.0451C259.902 80.2831 260.29 80.4021 260.756 80.4021ZM270.394 81.5151C269.918 81.6085 269.451 81.6481 268.994 81.6341C268.537 81.6201 268.128 81.5315 267.769 81.3681C267.41 81.2048 267.139 80.9481 266.957 80.5981C266.794 80.2855 266.705 79.9681 266.691 79.6461C266.682 79.3195 266.677 78.9508 266.677 78.5401V71.8551H268.147V78.4701C268.147 78.7735 268.149 79.0371 268.154 79.2611C268.163 79.4851 268.212 79.6741 268.301 79.8281C268.469 80.1175 268.735 80.2831 269.099 80.3251C269.468 80.3625 269.899 80.3461 270.394 80.2761V81.5151ZM265.228 75.1311V73.9551H270.394V75.1311H265.228ZM274.929 81.7251C274.173 81.7251 273.517 81.5548 272.962 81.2141C272.407 80.8735 271.977 80.4045 271.674 79.8071C271.375 79.2051 271.226 78.5121 271.226 77.7281C271.226 76.9395 271.38 76.2465 271.688 75.6491C271.996 75.0471 272.428 74.5805 272.983 74.2491C273.538 73.9131 274.187 73.7451 274.929 73.7451C275.685 73.7451 276.341 73.9155 276.896 74.2561C277.451 74.5968 277.881 75.0658 278.184 75.6631C278.487 76.2605 278.639 76.9488 278.639 77.7281C278.639 78.5168 278.485 79.2121 278.177 79.8141C277.874 80.4115 277.444 80.8805 276.889 81.2211C276.334 81.5571 275.68 81.7251 274.929 81.7251ZM274.929 80.3461C275.652 80.3461 276.191 80.1035 276.546 79.6181C276.905 79.1281 277.085 78.4981 277.085 77.7281C277.085 76.9395 276.903 76.3095 276.539 75.8381C276.18 75.3621 275.643 75.1241 274.929 75.1241C274.439 75.1241 274.035 75.2361 273.718 75.4601C273.401 75.6795 273.165 75.9851 273.011 76.3771C272.857 76.7645 272.78 77.2148 272.78 77.7281C272.78 78.5215 272.962 79.1561 273.326 79.6321C273.69 80.1081 274.224 80.3461 274.929 80.3461ZM285.483 81.5151V77.7981C285.483 77.5041 285.458 77.2031 285.406 76.8951C285.36 76.5825 285.266 76.2931 285.126 76.0271C284.991 75.7611 284.797 75.5465 284.545 75.3831C284.298 75.2198 283.974 75.1381 283.572 75.1381C283.311 75.1381 283.064 75.1825 282.83 75.2711C282.597 75.3551 282.392 75.4928 282.214 75.6841C282.042 75.8755 281.904 76.1275 281.801 76.4401C281.703 76.7528 281.654 77.1331 281.654 77.5811L280.744 77.2381C280.744 76.5521 280.873 75.9478 281.129 75.4251C281.386 74.8978 281.755 74.4871 282.235 74.1931C282.716 73.8991 283.297 73.7521 283.978 73.7521C284.501 73.7521 284.94 73.8361 285.294 74.0041C285.649 74.1721 285.936 74.3938 286.155 74.6691C286.379 74.9398 286.55 75.2361 286.666 75.5581C286.783 75.8801 286.862 76.1951 286.904 76.5031C286.946 76.8111 286.967 77.0818 286.967 77.3151V81.5151H285.483ZM280.17 81.5151V73.9551H281.479V76.1391H281.654V81.5151H280.17ZM288.651 83.1881L288.742 82.5371C288.942 82.5511 289.099 82.5138 289.211 82.4251C289.323 82.3365 289.397 82.2128 289.435 82.0541C289.472 81.8955 289.479 81.7158 289.456 81.5151H288.651V79.8281H290.198V81.6551C290.198 82.2058 290.065 82.6211 289.799 82.9011C289.537 83.1811 289.155 83.2768 288.651 83.1881ZM295.654 81.5151V71.4351H298.811C298.904 71.4351 299.077 71.4375 299.329 71.4421C299.585 71.4468 299.83 71.4655 300.064 71.4981C300.852 71.5961 301.515 71.8785 302.052 72.3451C302.593 72.8118 303.001 73.4045 303.277 74.1231C303.552 74.8371 303.69 75.6211 303.69 76.4751C303.69 77.3338 303.552 78.1225 303.277 78.8411C303.001 79.5551 302.593 80.1455 302.052 80.6121C301.515 81.0741 300.852 81.3541 300.064 81.4521C299.83 81.4848 299.585 81.5035 299.329 81.5081C299.077 81.5128 298.904 81.5151 298.811 81.5151H295.654ZM297.152 80.1221H298.811C298.969 80.1221 299.158 80.1175 299.378 80.1081C299.597 80.0988 299.791 80.0801 299.959 80.0521C300.472 79.9541 300.887 79.7325 301.205 79.3871C301.527 79.0371 301.762 78.6078 301.912 78.0991C302.061 77.5905 302.136 77.0491 302.136 76.4751C302.136 75.8825 302.059 75.3341 301.905 74.8301C301.751 74.3215 301.513 73.8968 301.191 73.5561C300.873 73.2108 300.463 72.9915 299.959 72.8981C299.791 72.8655 299.595 72.8468 299.371 72.8421C299.151 72.8328 298.965 72.8281 298.811 72.8281H297.152V80.1221ZM309.527 81.7251C308.519 81.7251 307.66 81.5058 306.951 81.0671C306.242 80.6238 305.698 80.0078 305.32 79.2191C304.947 78.4305 304.76 77.5158 304.76 76.4751C304.76 75.4345 304.947 74.5198 305.32 73.7311C305.698 72.9425 306.242 72.3288 306.951 71.8901C307.66 71.4468 308.519 71.2251 309.527 71.2251C310.689 71.2251 311.65 71.5191 312.411 72.1071C313.176 72.6951 313.708 73.4861 314.007 74.4801L312.523 74.8791C312.327 74.1745 311.977 73.6215 311.473 73.2201C310.974 72.8188 310.325 72.6181 309.527 72.6181C308.813 72.6181 308.218 72.7791 307.742 73.1011C307.266 73.4231 306.907 73.8735 306.664 74.4521C306.426 75.0308 306.307 75.7051 306.307 76.4751C306.302 77.2451 306.419 77.9195 306.657 78.4981C306.9 79.0768 307.259 79.5271 307.735 79.8491C308.216 80.1711 308.813 80.3321 309.527 80.3321C310.325 80.3321 310.974 80.1315 311.473 79.7301C311.977 79.3241 312.327 78.7711 312.523 78.0711L314.007 78.4701C313.708 79.4641 313.176 80.2551 312.411 80.8431C311.65 81.4311 310.689 81.7251 309.527 81.7251Z" fill="#352F28"/>
<path d="M23.84 104.515V95.8751H29.18V96.5471H24.53V99.8291H28.46V100.501H24.53V103.843H29.18V104.515H23.84ZM29.9052 104.515L32.4912 101.239L29.9652 98.0351H30.8052L32.8992 100.717L34.9812 98.0351H35.8212L33.2952 101.239L35.8812 104.515H35.0292L32.8992 101.761L30.7572 104.515H29.9052ZM39.6741 104.695C39.0901 104.695 38.5961 104.543 38.1921 104.239C37.7881 103.935 37.4801 103.525 37.2681 103.009C37.0561 102.493 36.9501 101.911 36.9501 101.263C36.9501 100.611 37.0561 100.029 37.2681 99.5171C37.4801 99.0011 37.7941 98.5951 38.2101 98.2991C38.6261 98.0031 39.1361 97.8551 39.7401 97.8551C40.3281 97.8551 40.8301 98.0051 41.2461 98.3051C41.6621 98.6051 41.9781 99.0131 42.1941 99.5291C42.4141 100.045 42.5241 100.623 42.5241 101.263C42.5241 101.911 42.4121 102.495 42.1881 103.015C41.9681 103.531 41.6461 103.941 41.2221 104.245C40.8021 104.545 40.2861 104.695 39.6741 104.695ZM36.8361 107.395V98.0351H37.4661V103.027H37.5261V107.395H36.8361ZM39.6321 104.035C40.1081 104.035 40.5041 103.913 40.8201 103.669C41.1401 103.425 41.3801 103.095 41.5401 102.679C41.7041 102.259 41.7861 101.787 41.7861 101.263C41.7861 100.743 41.7061 100.277 41.5461 99.8651C41.3901 99.4491 41.1521 99.1211 40.8321 98.8811C40.5161 98.6371 40.1121 98.5151 39.6201 98.5151C39.1441 98.5151 38.7461 98.6331 38.4261 98.8691C38.1061 99.1011 37.8661 99.4251 37.7061 99.8411C37.5461 100.257 37.4661 100.731 37.4661 101.263C37.4661 101.791 37.5441 102.265 37.7001 102.685C37.8601 103.101 38.1001 103.431 38.4201 103.675C38.7441 103.915 39.1481 104.035 39.6321 104.035ZM43.9639 104.515V95.6951H44.6539V104.515H43.9639ZM49.1152 104.695C48.4712 104.695 47.9252 104.549 47.4772 104.257C47.0292 103.965 46.6872 103.561 46.4512 103.045C46.2152 102.529 46.0972 101.935 46.0972 101.263C46.0972 100.587 46.2172 99.9931 46.4572 99.4811C46.6972 98.9651 47.0412 98.5651 47.4892 98.2811C47.9412 97.9971 48.4832 97.8551 49.1152 97.8551C49.7592 97.8551 50.3052 98.0011 50.7532 98.2931C51.2052 98.5811 51.5472 98.9811 51.7792 99.4931C52.0152 100.005 52.1332 100.595 52.1332 101.263C52.1332 101.947 52.0152 102.547 51.7792 103.063C51.5432 103.575 51.1992 103.975 50.7472 104.263C50.2952 104.551 49.7512 104.695 49.1152 104.695ZM49.1152 104.023C49.8792 104.023 50.4492 103.767 50.8252 103.255C51.2052 102.743 51.3952 102.079 51.3952 101.263C51.3952 100.431 51.2052 99.7671 50.8252 99.2711C50.4452 98.7751 49.8752 98.5271 49.1152 98.5271C48.5992 98.5271 48.1732 98.6451 47.8372 98.8811C47.5012 99.1131 47.2492 99.4351 47.0812 99.8471C46.9172 100.255 46.8352 100.727 46.8352 101.263C46.8352 102.095 47.0272 102.763 47.4112 103.267C47.7992 103.771 48.3672 104.023 49.1152 104.023ZM53.4533 104.515V98.0351H54.0833V99.5891L53.9273 99.3851C53.9993 99.2011 54.0893 99.0311 54.1973 98.8751C54.3093 98.7151 54.4233 98.5851 54.5393 98.4851C54.7113 98.3251 54.9133 98.2051 55.1453 98.1251C55.3773 98.0411 55.6113 97.9931 55.8473 97.9811C56.0833 97.9651 56.2973 97.9831 56.4893 98.0351V98.6891C56.2333 98.6291 55.9613 98.6171 55.6733 98.6531C55.3853 98.6891 55.1153 98.8131 54.8633 99.0251C54.6433 99.2171 54.4833 99.4411 54.3833 99.6971C54.2833 99.9491 54.2193 100.215 54.1913 100.495C54.1633 100.771 54.1493 101.041 54.1493 101.305V104.515H53.4533ZM60.178 104.695C59.558 104.695 59.022 104.557 58.57 104.281C58.118 104.001 57.768 103.607 57.52 103.099C57.272 102.587 57.148 101.983 57.148 101.287C57.148 100.579 57.27 99.9691 57.514 99.4571C57.762 98.9411 58.11 98.5451 58.558 98.2691C59.01 97.9931 59.546 97.8551 60.166 97.8551C60.794 97.8551 61.33 97.9991 61.774 98.2871C62.222 98.5711 62.562 98.9831 62.794 99.5231C63.03 100.063 63.142 100.713 63.13 101.473H62.41V101.233C62.39 100.345 62.19 99.6691 61.81 99.2051C61.43 98.7411 60.886 98.5091 60.178 98.5091C59.446 98.5091 58.88 98.7511 58.48 99.2351C58.084 99.7151 57.886 100.395 57.886 101.275C57.886 102.147 58.084 102.823 58.48 103.303C58.88 103.783 59.442 104.023 60.166 104.023C60.666 104.023 61.102 103.907 61.474 103.675C61.85 103.439 62.148 103.103 62.368 102.667L62.992 102.943C62.732 103.503 62.356 103.935 61.864 104.239C61.372 104.543 60.81 104.695 60.178 104.695ZM57.622 101.473V100.849H62.74V101.473H57.622ZM70.2975 104.515C69.9535 104.591 69.6135 104.619 69.2775 104.599C68.9415 104.583 68.6415 104.509 68.3775 104.377C68.1175 104.241 67.9215 104.033 67.7895 103.753C67.6815 103.525 67.6215 103.295 67.6095 103.063C67.5975 102.831 67.5915 102.565 67.5915 102.265V96.2351H68.2875V102.253C68.2875 102.525 68.2895 102.751 68.2935 102.931C68.3015 103.107 68.3435 103.269 68.4195 103.417C68.5635 103.693 68.7915 103.861 69.1035 103.921C69.4155 103.977 69.8135 103.967 70.2975 103.891V104.515ZM66.1395 98.6651V98.0351H70.2975V98.6651H66.1395ZM76.2813 104.515V101.143C76.2813 100.735 76.2393 100.371 76.1553 100.051C76.0753 99.7311 75.9513 99.4591 75.7833 99.2351C75.6193 99.0111 75.4113 98.8411 75.1593 98.7251C74.9113 98.6091 74.6173 98.5511 74.2773 98.5511C73.9253 98.5511 73.6193 98.6131 73.3593 98.7371C73.1033 98.8571 72.8913 99.0271 72.7233 99.2471C72.5593 99.4671 72.4353 99.7291 72.3513 100.033C72.2713 100.333 72.2313 100.661 72.2313 101.017L71.6853 100.951C71.6853 100.251 71.8033 99.6751 72.0393 99.2231C72.2793 98.7671 72.6013 98.4311 73.0053 98.2151C73.4093 97.9951 73.8633 97.8851 74.3673 97.8851C74.7233 97.8851 75.0413 97.9371 75.3213 98.0411C75.6053 98.1451 75.8513 98.2931 76.0593 98.4851C76.2673 98.6731 76.4393 98.8971 76.5753 99.1571C76.7113 99.4131 76.8113 99.6951 76.8753 100.003C76.9433 100.311 76.9773 100.633 76.9773 100.969V104.515H76.2813ZM71.5353 104.515V95.8751H72.1653V100.867H72.2313V104.515H71.5353ZM81.2014 104.695C80.5814 104.695 80.0454 104.557 79.5934 104.281C79.1414 104.001 78.7914 103.607 78.5434 103.099C78.2954 102.587 78.1714 101.983 78.1714 101.287C78.1714 100.579 78.2934 99.9691 78.5374 99.4571C78.7854 98.9411 79.1334 98.5451 79.5814 98.2691C80.0334 97.9931 80.5694 97.8551 81.1894 97.8551C81.8174 97.8551 82.3534 97.9991 82.7974 98.2871C83.2454 98.5711 83.5854 98.9831 83.8174 99.5231C84.0534 100.063 84.1654 100.713 84.1534 101.473H83.4334V101.233C83.4134 100.345 83.2134 99.6691 82.8334 99.2051C82.4534 98.7411 81.9094 98.5091 81.2014 98.5091C80.4694 98.5091 79.9034 98.7511 79.5034 99.2351C79.1074 99.7151 78.9094 100.395 78.9094 101.275C78.9094 102.147 79.1074 102.823 79.5034 103.303C79.9034 103.783 80.4654 104.023 81.1894 104.023C81.6894 104.023 82.1254 103.907 82.4974 103.675C82.8734 103.439 83.1714 103.103 83.3914 102.667L84.0154 102.943C83.7554 103.503 83.3794 103.935 82.8874 104.239C82.3954 104.543 81.8334 104.695 81.2014 104.695ZM78.6454 101.473V100.849H83.7634V101.473H78.6454ZM90.721 104.695C90.137 104.695 89.643 104.543 89.239 104.239C88.835 103.935 88.527 103.525 88.315 103.009C88.103 102.493 87.997 101.911 87.997 101.263C87.997 100.611 88.103 100.029 88.315 99.5171C88.527 99.0011 88.841 98.5951 89.257 98.2991C89.673 98.0031 90.183 97.8551 90.787 97.8551C91.375 97.8551 91.877 98.0051 92.293 98.3051C92.709 98.6051 93.025 99.0131 93.241 99.5291C93.461 100.045 93.571 100.623 93.571 101.263C93.571 101.911 93.459 102.495 93.235 103.015C93.015 103.531 92.693 103.941 92.269 104.245C91.849 104.545 91.333 104.695 90.721 104.695ZM87.883 107.395V98.0351H88.513V103.027H88.573V107.395H87.883ZM90.679 104.035C91.155 104.035 91.551 103.913 91.867 103.669C92.187 103.425 92.427 103.095 92.587 102.679C92.751 102.259 92.833 101.787 92.833 101.263C92.833 100.743 92.753 100.277 92.593 99.8651C92.437 99.4491 92.199 99.1211 91.879 98.8811C91.563 98.6371 91.159 98.5151 90.667 98.5151C90.191 98.5151 89.793 98.6331 89.473 98.8691C89.153 99.1011 88.913 99.4251 88.753 99.8411C88.593 100.257 88.513 100.731 88.513 101.263C88.513 101.791 88.591 102.265 88.747 102.685C88.907 103.101 89.147 103.431 89.467 103.675C89.791 103.915 90.195 104.035 90.679 104.035ZM97.5608 104.695C96.9408 104.695 96.4048 104.557 95.9528 104.281C95.5008 104.001 95.1508 103.607 94.9028 103.099C94.6548 102.587 94.5308 101.983 94.5308 101.287C94.5308 100.579 94.6528 99.9691 94.8968 99.4571C95.1448 98.9411 95.4928 98.5451 95.9408 98.2691C96.3928 97.9931 96.9288 97.8551 97.5488 97.8551C98.1768 97.8551 98.7128 97.9991 99.1568 98.2871C99.6048 98.5711 99.9448 98.9831 100.177 99.5231C100.413 100.063 100.525 100.713 100.513 101.473H99.7928V101.233C99.7728 100.345 99.5728 99.6691 99.1928 99.2051C98.8128 98.7411 98.2688 98.5091 97.5608 98.5091C96.8288 98.5091 96.2628 98.7511 95.8628 99.2351C95.4668 99.7151 95.2688 100.395 95.2688 101.275C95.2688 102.147 95.4668 102.823 95.8628 103.303C96.2628 103.783 96.8248 104.023 97.5488 104.023C98.0488 104.023 98.4848 103.907 98.8568 103.675C99.2328 103.439 99.5308 103.103 99.7508 102.667L100.375 102.943C100.115 103.503 99.7388 103.935 99.2468 104.239C98.7548 104.543 98.1928 104.695 97.5608 104.695ZM95.0048 101.473V100.849H100.123V101.473H95.0048ZM103.595 104.695C103.095 104.695 102.679 104.607 102.347 104.431C102.019 104.255 101.773 104.023 101.609 103.735C101.445 103.443 101.363 103.127 101.363 102.787C101.363 102.419 101.439 102.111 101.591 101.863C101.747 101.615 101.953 101.415 102.209 101.263C102.469 101.111 102.755 100.997 103.067 100.921C103.423 100.841 103.807 100.773 104.219 100.717C104.631 100.657 105.023 100.605 105.395 100.561C105.771 100.517 106.077 100.479 106.313 100.447L106.061 100.597C106.077 99.8971 105.945 99.3771 105.665 99.0371C105.389 98.6931 104.901 98.5211 104.201 98.5211C103.709 98.5211 103.303 98.6331 102.983 98.8571C102.667 99.0771 102.445 99.4191 102.317 99.8831L101.609 99.6851C101.757 99.0971 102.055 98.6451 102.503 98.3291C102.951 98.0131 103.525 97.8551 104.225 97.8551C104.821 97.8551 105.321 97.9711 105.725 98.2031C106.133 98.4351 106.417 98.7611 106.577 99.1811C106.645 99.3531 106.691 99.5551 106.715 99.7871C106.739 100.015 106.751 100.245 106.751 100.477V104.515H106.121V102.811L106.355 102.871C106.159 103.455 105.817 103.905 105.329 104.221C104.841 104.537 104.263 104.695 103.595 104.695ZM103.631 104.059C104.071 104.059 104.457 103.981 104.789 103.825C105.121 103.665 105.389 103.443 105.593 103.159C105.801 102.871 105.933 102.533 105.989 102.145C106.029 101.929 106.051 101.695 106.055 101.443C106.059 101.191 106.061 101.005 106.061 100.885L106.361 101.077C106.101 101.109 105.789 101.143 105.425 101.179C105.065 101.215 104.697 101.259 104.321 101.311C103.945 101.363 103.605 101.429 103.301 101.509C103.113 101.561 102.923 101.637 102.731 101.737C102.543 101.833 102.385 101.967 102.257 102.139C102.133 102.311 102.071 102.529 102.071 102.793C102.071 102.989 102.119 103.185 102.215 103.381C102.315 103.577 102.479 103.739 102.707 103.867C102.935 103.995 103.243 104.059 103.631 104.059ZM108.309 104.515V95.8751H109.005V101.155L112.071 98.0351H113.037L109.827 101.275L113.493 104.515H112.419L109.005 101.395V104.515H108.309ZM121.246 104.515V101.143C121.246 100.735 121.204 100.371 121.12 100.051C121.04 99.7311 120.916 99.4591 120.748 99.2351C120.584 99.0111 120.376 98.8411 120.124 98.7251C119.876 98.6091 119.582 98.5511 119.242 98.5511C118.89 98.5511 118.584 98.6131 118.324 98.7371C118.068 98.8571 117.856 99.0271 117.688 99.2471C117.524 99.4671 117.4 99.7291 117.316 100.033C117.236 100.333 117.196 100.661 117.196 101.017L116.65 100.951C116.65 100.251 116.768 99.6751 117.004 99.2231C117.244 98.7671 117.566 98.4311 117.97 98.2151C118.374 97.9951 118.828 97.8851 119.332 97.8851C119.688 97.8851 120.006 97.9371 120.286 98.0411C120.57 98.1451 120.816 98.2931 121.024 98.4851C121.232 98.6731 121.404 98.8971 121.54 99.1571C121.676 99.4131 121.776 99.6951 121.84 100.003C121.908 100.311 121.942 100.633 121.942 100.969V104.515H121.246ZM116.5 104.515V95.8751H117.13V100.867H117.196V104.515H116.5ZM126.154 104.695C125.51 104.695 124.964 104.549 124.516 104.257C124.068 103.965 123.726 103.561 123.49 103.045C123.254 102.529 123.136 101.935 123.136 101.263C123.136 100.587 123.256 99.9931 123.496 99.4811C123.736 98.9651 124.08 98.5651 124.528 98.2811C124.98 97.9971 125.522 97.8551 126.154 97.8551C126.798 97.8551 127.344 98.0011 127.792 98.2931C128.244 98.5811 128.586 98.9811 128.818 99.4931C129.054 100.005 129.172 100.595 129.172 101.263C129.172 101.947 129.054 102.547 128.818 103.063C128.582 103.575 128.238 103.975 127.786 104.263C127.334 104.551 126.79 104.695 126.154 104.695ZM126.154 104.023C126.918 104.023 127.488 103.767 127.864 103.255C128.244 102.743 128.434 102.079 128.434 101.263C128.434 100.431 128.244 99.7671 127.864 99.2711C127.484 98.7751 126.914 98.5271 126.154 98.5271C125.638 98.5271 125.212 98.6451 124.876 98.8811C124.54 99.1131 124.288 99.4351 124.12 99.8471C123.956 100.255 123.874 100.727 123.874 101.263C123.874 102.095 124.066 102.763 124.45 103.267C124.838 103.771 125.406 104.023 126.154 104.023ZM132.982 104.665C132.626 104.665 132.306 104.613 132.022 104.509C131.742 104.405 131.498 104.259 131.29 104.071C131.082 103.879 130.91 103.655 130.774 103.399C130.638 103.139 130.536 102.855 130.468 102.547C130.404 102.239 130.372 101.917 130.372 101.581V98.0351H131.068V101.407C131.068 101.815 131.108 102.179 131.188 102.499C131.272 102.819 131.396 103.091 131.56 103.315C131.728 103.539 131.936 103.709 132.184 103.825C132.436 103.941 132.732 103.999 133.072 103.999C133.424 103.999 133.728 103.939 133.984 103.819C134.244 103.695 134.456 103.523 134.62 103.303C134.788 103.083 134.912 102.823 134.992 102.523C135.076 102.219 135.118 101.889 135.118 101.533L135.664 101.599C135.664 102.299 135.544 102.877 135.304 103.333C135.068 103.785 134.748 104.121 134.344 104.341C133.94 104.557 133.486 104.665 132.982 104.665ZM135.184 104.515V103.057H135.118V98.0351H135.814V104.515H135.184ZM137.488 104.515V98.0351H138.118V99.5891L137.962 99.3851C138.034 99.2011 138.124 99.0311 138.232 98.8751C138.344 98.7151 138.458 98.5851 138.574 98.4851C138.746 98.3251 138.948 98.2051 139.18 98.1251C139.412 98.0411 139.646 97.9931 139.882 97.9811C140.118 97.9651 140.332 97.9831 140.524 98.0351V98.6891C140.268 98.6291 139.996 98.6171 139.708 98.6531C139.42 98.6891 139.15 98.8131 138.898 99.0251C138.678 99.2171 138.518 99.4411 138.418 99.6971C138.318 99.9491 138.254 100.215 138.226 100.495C138.198 100.771 138.184 101.041 138.184 101.305V104.515H137.488ZM143.82 104.683C143.072 104.683 142.454 104.525 141.966 104.209C141.482 103.893 141.182 103.453 141.066 102.889L141.774 102.769C141.874 103.153 142.11 103.459 142.482 103.687C142.854 103.915 143.31 104.029 143.85 104.029C144.386 104.029 144.812 103.915 145.128 103.687C145.444 103.459 145.602 103.147 145.602 102.751C145.602 102.535 145.552 102.359 145.452 102.223C145.356 102.083 145.164 101.955 144.876 101.839C144.588 101.723 144.16 101.587 143.592 101.431C142.992 101.271 142.522 101.111 142.182 100.951C141.846 100.791 141.608 100.609 141.468 100.405C141.332 100.201 141.264 99.9511 141.264 99.6551C141.264 99.2991 141.366 98.9871 141.57 98.7191C141.774 98.4471 142.058 98.2351 142.422 98.0831C142.79 97.9311 143.214 97.8551 143.694 97.8551C144.174 97.8551 144.606 97.9351 144.99 98.0951C145.374 98.2511 145.684 98.4711 145.92 98.7551C146.156 99.0351 146.292 99.3611 146.328 99.7331L145.62 99.8651C145.552 99.4491 145.342 99.1211 144.99 98.8811C144.638 98.6371 144.198 98.5131 143.67 98.5091C143.17 98.5011 142.762 98.6011 142.446 98.8091C142.13 99.0131 141.972 99.2831 141.972 99.6191C141.972 99.8111 142.026 99.9751 142.134 100.111C142.246 100.243 142.442 100.365 142.722 100.477C143.002 100.589 143.398 100.709 143.91 100.837C144.534 100.997 145.02 101.161 145.368 101.329C145.72 101.497 145.968 101.695 146.112 101.923C146.256 102.147 146.328 102.425 146.328 102.757C146.328 103.357 146.104 103.829 145.656 104.173C145.212 104.513 144.6 104.683 143.82 104.683ZM150.735 104.515V97.4291C150.735 97.2611 150.743 97.1011 150.759 96.9491C150.779 96.7971 150.817 96.6531 150.873 96.5171C150.933 96.3811 151.017 96.2531 151.125 96.1331C151.237 96.0131 151.361 95.9211 151.497 95.8571C151.637 95.7931 151.785 95.7511 151.941 95.7311C152.097 95.7071 152.261 95.6951 152.433 95.6951H153.267V96.2951H152.493C152.137 96.2951 151.869 96.3811 151.689 96.5531C151.513 96.7251 151.425 97.0091 151.425 97.4051V104.515H150.735ZM149.583 98.6651V98.0351H153.267V98.6651H149.583ZM156.646 104.695C156.002 104.695 155.456 104.549 155.008 104.257C154.56 103.965 154.218 103.561 153.982 103.045C153.746 102.529 153.628 101.935 153.628 101.263C153.628 100.587 153.748 99.9931 153.988 99.4811C154.228 98.9651 154.572 98.5651 155.02 98.2811C155.472 97.9971 156.014 97.8551 156.646 97.8551C157.29 97.8551 157.836 98.0011 158.284 98.2931C158.736 98.5811 159.078 98.9811 159.31 99.4931C159.546 100.005 159.664 100.595 159.664 101.263C159.664 101.947 159.546 102.547 159.31 103.063C159.074 103.575 158.73 103.975 158.278 104.263C157.826 104.551 157.282 104.695 156.646 104.695ZM156.646 104.023C157.41 104.023 157.98 103.767 158.356 103.255C158.736 102.743 158.926 102.079 158.926 101.263C158.926 100.431 158.736 99.7671 158.356 99.2711C157.976 98.7751 157.406 98.5271 156.646 98.5271C156.13 98.5271 155.704 98.6451 155.368 98.8811C155.032 99.1131 154.78 99.4351 154.612 99.8471C154.448 100.255 154.366 100.727 154.366 101.263C154.366 102.095 154.558 102.763 154.942 103.267C155.33 103.771 155.898 104.023 156.646 104.023ZM160.985 104.515V98.0351H161.615V99.5891L161.459 99.3851C161.531 99.2011 161.621 99.0311 161.729 98.8751C161.841 98.7151 161.955 98.5851 162.071 98.4851C162.243 98.3251 162.445 98.2051 162.677 98.1251C162.909 98.0411 163.143 97.9931 163.379 97.9811C163.615 97.9651 163.829 97.9831 164.021 98.0351V98.6891C163.765 98.6291 163.493 98.6171 163.205 98.6531C162.917 98.6891 162.647 98.8131 162.395 99.0251C162.175 99.2171 162.015 99.4411 161.915 99.6971C161.815 99.9491 161.751 100.215 161.723 100.495C161.695 100.771 161.681 101.041 161.681 101.305V104.515H160.985ZM170.397 104.695C169.813 104.695 169.319 104.543 168.915 104.239C168.511 103.935 168.203 103.525 167.991 103.009C167.779 102.493 167.673 101.911 167.673 101.263C167.673 100.611 167.779 100.029 167.991 99.5171C168.203 99.0011 168.517 98.5951 168.933 98.2991C169.349 98.0031 169.859 97.8551 170.463 97.8551C171.051 97.8551 171.553 98.0051 171.969 98.3051C172.385 98.6051 172.701 99.0131 172.917 99.5291C173.137 100.045 173.247 100.623 173.247 101.263C173.247 101.911 173.135 102.495 172.911 103.015C172.691 103.531 172.369 103.941 171.945 104.245C171.525 104.545 171.009 104.695 170.397 104.695ZM167.559 107.395V98.0351H168.189V103.027H168.249V107.395H167.559ZM170.355 104.035C170.831 104.035 171.227 103.913 171.543 103.669C171.863 103.425 172.103 103.095 172.263 102.679C172.427 102.259 172.509 101.787 172.509 101.263C172.509 100.743 172.429 100.277 172.269 99.8651C172.113 99.4491 171.875 99.1211 171.555 98.8811C171.239 98.6371 170.835 98.5151 170.343 98.5151C169.867 98.5151 169.469 98.6331 169.149 98.8691C168.829 99.1011 168.589 99.4251 168.429 99.8411C168.269 100.257 168.189 100.731 168.189 101.263C168.189 101.791 168.267 102.265 168.423 102.685C168.583 103.101 168.823 103.431 169.143 103.675C169.467 103.915 169.871 104.035 170.355 104.035ZM174.687 96.7271V95.8451H175.377V96.7271H174.687ZM174.687 104.515V98.0351H175.377V104.515H174.687ZM180.618 104.515C180.274 104.591 179.934 104.619 179.598 104.599C179.262 104.583 178.962 104.509 178.698 104.377C178.438 104.241 178.242 104.033 178.11 103.753C178.002 103.525 177.942 103.295 177.93 103.063C177.918 102.831 177.912 102.565 177.912 102.265V96.2351H178.608V102.253C178.608 102.525 178.61 102.751 178.614 102.931C178.622 103.107 178.664 103.269 178.74 103.417C178.884 103.693 179.112 103.861 179.424 103.921C179.736 103.977 180.134 103.967 180.618 103.891V104.515ZM176.46 98.6651V98.0351H180.618V98.6651H176.46ZM184.291 104.695C183.643 104.695 183.097 104.551 182.653 104.263C182.209 103.971 181.871 103.569 181.639 103.057C181.411 102.541 181.293 101.947 181.285 101.275C181.293 100.591 181.413 99.9931 181.645 99.4811C181.881 98.9651 182.221 98.5651 182.665 98.2811C183.109 97.9971 183.653 97.8551 184.297 97.8551C184.925 97.8551 185.477 98.0071 185.953 98.3111C186.433 98.6111 186.765 99.0251 186.949 99.5531L186.277 99.7991C186.113 99.3951 185.855 99.0831 185.503 98.8631C185.151 98.6391 184.747 98.5271 184.291 98.5271C183.779 98.5271 183.357 98.6451 183.025 98.8811C182.693 99.1131 182.445 99.4351 182.281 99.8471C182.117 100.259 182.031 100.735 182.023 101.275C182.035 102.103 182.229 102.769 182.605 103.273C182.985 103.773 183.547 104.023 184.291 104.023C184.751 104.023 185.149 103.917 185.485 103.705C185.825 103.493 186.085 103.185 186.265 102.781L186.949 103.015C186.697 103.563 186.345 103.981 185.893 104.269C185.441 104.553 184.907 104.695 184.291 104.695ZM192.953 104.515V101.143C192.953 100.735 192.911 100.371 192.827 100.051C192.747 99.7311 192.623 99.4591 192.455 99.2351C192.291 99.0111 192.083 98.8411 191.831 98.7251C191.583 98.6091 191.289 98.5511 190.949 98.5511C190.597 98.5511 190.291 98.6131 190.031 98.7371C189.775 98.8571 189.563 99.0271 189.395 99.2471C189.231 99.4671 189.107 99.7291 189.023 100.033C188.943 100.333 188.903 100.661 188.903 101.017L188.357 100.951C188.357 100.251 188.475 99.6751 188.711 99.2231C188.951 98.7671 189.273 98.4311 189.677 98.2151C190.081 97.9951 190.535 97.8851 191.039 97.8851C191.395 97.8851 191.713 97.9371 191.993 98.0411C192.277 98.1451 192.523 98.2931 192.731 98.4851C192.939 98.6731 193.111 98.8971 193.247 99.1571C193.383 99.4131 193.483 99.6951 193.547 100.003C193.615 100.311 193.649 100.633 193.649 100.969V104.515H192.953ZM188.207 104.515V95.8751H188.837V100.867H188.903V104.515H188.207ZM195.323 96.7271V95.8451H196.013V96.7271H195.323ZM195.323 104.515V98.0351H196.013V104.515H195.323ZM202.563 104.515V101.143C202.563 100.735 202.521 100.371 202.437 100.051C202.357 99.7311 202.233 99.4591 202.065 99.2351C201.901 99.0111 201.693 98.8411 201.441 98.7251C201.193 98.6091 200.899 98.5511 200.559 98.5511C200.207 98.5511 199.901 98.6131 199.641 98.7371C199.385 98.8571 199.173 99.0271 199.005 99.2471C198.841 99.4671 198.717 99.7291 198.633 100.033C198.553 100.333 198.513 100.661 198.513 101.017L197.967 100.951C197.967 100.251 198.085 99.6751 198.321 99.2231C198.561 98.7671 198.883 98.4311 199.287 98.2151C199.691 97.9951 200.145 97.8851 200.649 97.8851C201.005 97.8851 201.323 97.9371 201.603 98.0411C201.887 98.1451 202.133 98.2931 202.341 98.4851C202.549 98.6731 202.721 98.8971 202.857 99.1571C202.993 99.4131 203.093 99.6951 203.157 100.003C203.225 100.311 203.259 100.633 203.259 100.969V104.515H202.563ZM197.817 104.515V98.0351H198.447V99.4931H198.513V104.515H197.817ZM207.333 107.575C207.013 107.575 206.693 107.527 206.373 107.431C206.057 107.339 205.761 107.187 205.485 106.975C205.209 106.767 204.975 106.489 204.783 106.141L205.407 105.769C205.603 106.169 205.881 106.455 206.241 106.627C206.601 106.799 206.967 106.885 207.339 106.885C207.863 106.885 208.277 106.787 208.581 106.591C208.889 106.399 209.109 106.109 209.241 105.721C209.373 105.337 209.439 104.859 209.439 104.287V102.589H209.511V98.0351H210.141V104.287C210.141 104.479 210.137 104.663 210.129 104.839C210.121 105.015 210.103 105.191 210.075 105.367C210.003 105.867 209.855 106.279 209.631 106.603C209.407 106.931 209.103 107.175 208.719 107.335C208.339 107.495 207.877 107.575 207.333 107.575ZM207.303 104.695C206.691 104.695 206.173 104.545 205.749 104.245C205.329 103.941 205.007 103.531 204.783 103.015C204.563 102.495 204.453 101.911 204.453 101.263C204.453 100.623 204.563 100.045 204.783 99.5291C205.003 99.0131 205.319 98.6051 205.731 98.3051C206.147 98.0051 206.649 97.8551 207.237 97.8551C207.841 97.8551 208.351 98.0031 208.767 98.2991C209.183 98.5951 209.497 99.0011 209.709 99.5171C209.921 100.029 210.027 100.611 210.027 101.263C210.027 101.911 209.921 102.493 209.709 103.009C209.497 103.525 209.189 103.935 208.785 104.239C208.381 104.543 207.887 104.695 207.303 104.695ZM207.345 104.035C207.829 104.035 208.231 103.915 208.551 103.675C208.875 103.431 209.115 103.101 209.271 102.685C209.431 102.265 209.511 101.791 209.511 101.263C209.511 100.731 209.431 100.257 209.271 99.8411C209.111 99.4251 208.871 99.1011 208.551 98.8691C208.231 98.6331 207.833 98.5151 207.357 98.5151C206.865 98.5151 206.459 98.6371 206.139 98.8811C205.819 99.1211 205.581 99.4491 205.425 99.8651C205.269 100.277 205.191 100.743 205.191 101.263C205.191 101.787 205.271 102.259 205.431 102.679C205.595 103.095 205.835 103.425 206.151 103.669C206.471 103.913 206.869 104.035 207.345 104.035ZM217.661 104.515C217.317 104.591 216.977 104.619 216.641 104.599C216.305 104.583 216.005 104.509 215.741 104.377C215.481 104.241 215.285 104.033 215.153 103.753C215.045 103.525 214.985 103.295 214.973 103.063C214.961 102.831 214.955 102.565 214.955 102.265V96.2351H215.651V102.253C215.651 102.525 215.653 102.751 215.657 102.931C215.665 103.107 215.707 103.269 215.783 103.417C215.927 103.693 216.155 103.861 216.467 103.921C216.779 103.977 217.177 103.967 217.661 103.891V104.515ZM213.503 98.6651V98.0351H217.661V98.6651H213.503ZM221.346 104.695C220.702 104.695 220.156 104.549 219.708 104.257C219.26 103.965 218.918 103.561 218.682 103.045C218.446 102.529 218.328 101.935 218.328 101.263C218.328 100.587 218.448 99.9931 218.688 99.4811C218.928 98.9651 219.272 98.5651 219.72 98.2811C220.172 97.9971 220.714 97.8551 221.346 97.8551C221.99 97.8551 222.536 98.0011 222.984 98.2931C223.436 98.5811 223.778 98.9811 224.01 99.4931C224.246 100.005 224.364 100.595 224.364 101.263C224.364 101.947 224.246 102.547 224.01 103.063C223.774 103.575 223.43 103.975 222.978 104.263C222.526 104.551 221.982 104.695 221.346 104.695ZM221.346 104.023C222.11 104.023 222.68 103.767 223.056 103.255C223.436 102.743 223.626 102.079 223.626 101.263C223.626 100.431 223.436 99.7671 223.056 99.2711C222.676 98.7751 222.106 98.5271 221.346 98.5271C220.83 98.5271 220.404 98.6451 220.068 98.8811C219.732 99.1131 219.48 99.4351 219.312 99.8471C219.148 100.255 219.066 100.727 219.066 101.263C219.066 102.095 219.258 102.763 219.642 103.267C220.03 103.771 220.598 104.023 221.346 104.023ZM231.524 104.515C231.18 104.591 230.84 104.619 230.504 104.599C230.168 104.583 229.868 104.509 229.604 104.377C229.344 104.241 229.148 104.033 229.016 103.753C228.908 103.525 228.848 103.295 228.836 103.063C228.824 102.831 228.818 102.565 228.818 102.265V96.2351H229.514V102.253C229.514 102.525 229.516 102.751 229.52 102.931C229.528 103.107 229.57 103.269 229.646 103.417C229.79 103.693 230.018 103.861 230.33 103.921C230.642 103.977 231.04 103.967 231.524 103.891V104.515ZM227.366 98.6651V98.0351H231.524V98.6651H227.366ZM237.508 104.515V101.143C237.508 100.735 237.466 100.371 237.382 100.051C237.302 99.7311 237.178 99.4591 237.01 99.2351C236.846 99.0111 236.638 98.8411 236.386 98.7251C236.138 98.6091 235.844 98.5511 235.504 98.5511C235.152 98.5511 234.846 98.6131 234.586 98.7371C234.33 98.8571 234.118 99.0271 233.95 99.2471C233.786 99.4671 233.662 99.7291 233.578 100.033C233.498 100.333 233.458 100.661 233.458 101.017L232.912 100.951C232.912 100.251 233.03 99.6751 233.266 99.2231C233.506 98.7671 233.828 98.4311 234.232 98.2151C234.636 97.9951 235.09 97.8851 235.594 97.8851C235.95 97.8851 236.268 97.9371 236.548 98.0411C236.832 98.1451 237.078 98.2931 237.286 98.4851C237.494 98.6731 237.666 98.8971 237.802 99.1571C237.938 99.4131 238.038 99.6951 238.102 100.003C238.17 100.311 238.204 100.633 238.204 100.969V104.515H237.508ZM232.762 104.515V95.8751H233.392V100.867H233.458V104.515H232.762ZM242.428 104.695C241.808 104.695 241.272 104.557 240.82 104.281C240.368 104.001 240.018 103.607 239.77 103.099C239.522 102.587 239.398 101.983 239.398 101.287C239.398 100.579 239.52 99.9691 239.764 99.4571C240.012 98.9411 240.36 98.5451 240.808 98.2691C241.26 97.9931 241.796 97.8551 242.416 97.8551C243.044 97.8551 243.58 97.9991 244.024 98.2871C244.472 98.5711 244.812 98.9831 245.044 99.5231C245.28 100.063 245.392 100.713 245.38 101.473H244.66V101.233C244.64 100.345 244.44 99.6691 244.06 99.2051C243.68 98.7411 243.136 98.5091 242.428 98.5091C241.696 98.5091 241.13 98.7511 240.73 99.2351C240.334 99.7151 240.136 100.395 240.136 101.275C240.136 102.147 240.334 102.823 240.73 103.303C241.13 103.783 241.692 104.023 242.416 104.023C242.916 104.023 243.352 103.907 243.724 103.675C244.1 103.439 244.398 103.103 244.618 102.667L245.242 102.943C244.982 103.503 244.606 103.935 244.114 104.239C243.622 104.543 243.06 104.695 242.428 104.695ZM239.872 101.473V100.849H244.99V101.473H239.872ZM251.504 104.683C250.756 104.683 250.138 104.525 249.65 104.209C249.166 103.893 248.866 103.453 248.75 102.889L249.458 102.769C249.558 103.153 249.794 103.459 250.166 103.687C250.538 103.915 250.994 104.029 251.534 104.029C252.07 104.029 252.496 103.915 252.812 103.687C253.128 103.459 253.286 103.147 253.286 102.751C253.286 102.535 253.236 102.359 253.136 102.223C253.04 102.083 252.848 101.955 252.56 101.839C252.272 101.723 251.844 101.587 251.276 101.431C250.676 101.271 250.206 101.111 249.866 100.951C249.53 100.791 249.292 100.609 249.152 100.405C249.016 100.201 248.948 99.9511 248.948 99.6551C248.948 99.2991 249.05 98.9871 249.254 98.7191C249.458 98.4471 249.742 98.2351 250.106 98.0831C250.474 97.9311 250.898 97.8551 251.378 97.8551C251.858 97.8551 252.29 97.9351 252.674 98.0951C253.058 98.2511 253.368 98.4711 253.604 98.7551C253.84 99.0351 253.976 99.3611 254.012 99.7331L253.304 99.8651C253.236 99.4491 253.026 99.1211 252.674 98.8811C252.322 98.6371 251.882 98.5131 251.354 98.5091C250.854 98.5011 250.446 98.6011 250.13 98.8091C249.814 99.0131 249.656 99.2831 249.656 99.6191C249.656 99.8111 249.71 99.9751 249.818 100.111C249.93 100.243 250.126 100.365 250.406 100.477C250.686 100.589 251.082 100.709 251.594 100.837C252.218 100.997 252.704 101.161 253.052 101.329C253.404 101.497 253.652 101.695 253.796 101.923C253.94 102.147 254.012 102.425 254.012 102.757C254.012 103.357 253.788 103.829 253.34 104.173C252.896 104.513 252.284 104.683 251.504 104.683ZM260.09 104.515V101.143C260.09 100.735 260.048 100.371 259.964 100.051C259.884 99.7311 259.76 99.4591 259.592 99.2351C259.428 99.0111 259.22 98.8411 258.968 98.7251C258.72 98.6091 258.426 98.5511 258.086 98.5511C257.734 98.5511 257.428 98.6131 257.168 98.7371C256.912 98.8571 256.7 99.0271 256.532 99.2471C256.368 99.4671 256.244 99.7291 256.16 100.033C256.08 100.333 256.04 100.661 256.04 101.017L255.494 100.951C255.494 100.251 255.612 99.6751 255.848 99.2231C256.088 98.7671 256.41 98.4311 256.814 98.2151C257.218 97.9951 257.672 97.8851 258.176 97.8851C258.532 97.8851 258.85 97.9371 259.13 98.0411C259.414 98.1451 259.66 98.2931 259.868 98.4851C260.076 98.6731 260.248 98.8971 260.384 99.1571C260.52 99.4131 260.62 99.6951 260.684 100.003C260.752 100.311 260.786 100.633 260.786 100.969V104.515H260.09ZM255.344 104.515V95.8751H255.974V100.867H256.04V104.515H255.344ZM264.998 104.695C264.354 104.695 263.808 104.549 263.36 104.257C262.912 103.965 262.57 103.561 262.334 103.045C262.098 102.529 261.98 101.935 261.98 101.263C261.98 100.587 262.1 99.9931 262.34 99.4811C262.58 98.9651 262.924 98.5651 263.372 98.2811C263.824 97.9971 264.366 97.8551 264.998 97.8551C265.642 97.8551 266.188 98.0011 266.636 98.2931C267.088 98.5811 267.43 98.9811 267.662 99.4931C267.898 100.005 268.016 100.595 268.016 101.263C268.016 101.947 267.898 102.547 267.662 103.063C267.426 103.575 267.082 103.975 266.63 104.263C266.178 104.551 265.634 104.695 264.998 104.695ZM264.998 104.023C265.762 104.023 266.332 103.767 266.708 103.255C267.088 102.743 267.278 102.079 267.278 101.263C267.278 100.431 267.088 99.7671 266.708 99.2711C266.328 98.7751 265.758 98.5271 264.998 98.5271C264.482 98.5271 264.056 98.6451 263.72 98.8811C263.384 99.1131 263.132 99.4351 262.964 99.8471C262.8 100.255 262.718 100.727 262.718 101.263C262.718 102.095 262.91 102.763 263.294 103.267C263.682 103.771 264.25 104.023 264.998 104.023ZM272.174 104.695C271.59 104.695 271.096 104.543 270.692 104.239C270.288 103.935 269.98 103.525 269.768 103.009C269.556 102.493 269.45 101.911 269.45 101.263C269.45 100.611 269.556 100.029 269.768 99.5171C269.98 99.0011 270.294 98.5951 270.71 98.2991C271.126 98.0031 271.636 97.8551 272.24 97.8551C272.828 97.8551 273.33 98.0051 273.746 98.3051C274.162 98.6051 274.478 99.0131 274.694 99.5291C274.914 100.045 275.024 100.623 275.024 101.263C275.024 101.911 274.912 102.495 274.688 103.015C274.468 103.531 274.146 103.941 273.722 104.245C273.302 104.545 272.786 104.695 272.174 104.695ZM269.336 107.395V98.0351H269.966V103.027H270.026V107.395H269.336ZM272.132 104.035C272.608 104.035 273.004 103.913 273.32 103.669C273.64 103.425 273.88 103.095 274.04 102.679C274.204 102.259 274.286 101.787 274.286 101.263C274.286 100.743 274.206 100.277 274.046 99.8651C273.89 99.4491 273.652 99.1211 273.332 98.8811C273.016 98.6371 272.612 98.5151 272.12 98.5151C271.644 98.5151 271.246 98.6331 270.926 98.8691C270.606 99.1011 270.366 99.4251 270.206 99.8411C270.046 100.257 269.966 100.731 269.966 101.263C269.966 101.791 270.044 102.265 270.2 102.685C270.36 103.101 270.6 103.431 270.92 103.675C271.244 103.915 271.648 104.035 272.132 104.035ZM279.182 104.695C278.598 104.695 278.104 104.543 277.7 104.239C277.296 103.935 276.988 103.525 276.776 103.009C276.564 102.493 276.458 101.911 276.458 101.263C276.458 100.611 276.564 100.029 276.776 99.5171C276.988 99.0011 277.302 98.5951 277.718 98.2991C278.134 98.0031 278.644 97.8551 279.248 97.8551C279.836 97.8551 280.338 98.0051 280.754 98.3051C281.17 98.6051 281.486 99.0131 281.702 99.5291C281.922 100.045 282.032 100.623 282.032 101.263C282.032 101.911 281.92 102.495 281.696 103.015C281.476 103.531 281.154 103.941 280.73 104.245C280.31 104.545 279.794 104.695 279.182 104.695ZM276.344 107.395V98.0351H276.974V103.027H277.034V107.395H276.344ZM279.14 104.035C279.616 104.035 280.012 103.913 280.328 103.669C280.648 103.425 280.888 103.095 281.048 102.679C281.212 102.259 281.294 101.787 281.294 101.263C281.294 100.743 281.214 100.277 281.054 99.8651C280.898 99.4491 280.66 99.1211 280.34 98.8811C280.024 98.6371 279.62 98.5151 279.128 98.5151C278.652 98.5151 278.254 98.6331 277.934 98.8691C277.614 99.1011 277.374 99.4251 277.214 99.8411C277.054 100.257 276.974 100.731 276.974 101.263C276.974 101.791 277.052 102.265 277.208 102.685C277.368 103.101 277.608 103.431 277.928 103.675C278.252 103.915 278.656 104.035 279.14 104.035ZM286.022 104.695C285.402 104.695 284.866 104.557 284.414 104.281C283.962 104.001 283.612 103.607 283.364 103.099C283.116 102.587 282.992 101.983 282.992 101.287C282.992 100.579 283.114 99.9691 283.358 99.4571C283.606 98.9411 283.954 98.5451 284.402 98.2691C284.854 97.9931 285.39 97.8551 286.01 97.8551C286.638 97.8551 287.174 97.9991 287.618 98.2871C288.066 98.5711 288.406 98.9831 288.638 99.5231C288.874 100.063 288.986 100.713 288.974 101.473H288.254V101.233C288.234 100.345 288.034 99.6691 287.654 99.2051C287.274 98.7411 286.73 98.5091 286.022 98.5091C285.29 98.5091 284.724 98.7511 284.324 99.2351C283.928 99.7151 283.73 100.395 283.73 101.275C283.73 102.147 283.928 102.823 284.324 103.303C284.724 103.783 285.286 104.023 286.01 104.023C286.51 104.023 286.946 103.907 287.318 103.675C287.694 103.439 287.992 103.103 288.212 102.667L288.836 102.943C288.576 103.503 288.2 103.935 287.708 104.239C287.216 104.543 286.654 104.695 286.022 104.695ZM283.466 101.473V100.849H288.584V101.473H283.466ZM290.301 104.515V98.0351H290.931V99.5891L290.775 99.3851C290.847 99.2011 290.937 99.0311 291.045 98.8751C291.157 98.7151 291.271 98.5851 291.387 98.4851C291.559 98.3251 291.761 98.2051 291.993 98.1251C292.225 98.0411 292.459 97.9931 292.695 97.9811C292.931 97.9651 293.145 97.9831 293.337 98.0351V98.6891C293.081 98.6291 292.809 98.6171 292.521 98.6531C292.233 98.6891 291.963 98.8131 291.711 99.0251C291.491 99.2171 291.331 99.4411 291.231 99.6971C291.131 99.9491 291.067 100.215 291.039 100.495C291.011 100.771 290.997 101.041 290.997 101.305V104.515H290.301ZM296.632 104.683C295.884 104.683 295.266 104.525 294.778 104.209C294.294 103.893 293.994 103.453 293.878 102.889L294.586 102.769C294.686 103.153 294.922 103.459 295.294 103.687C295.666 103.915 296.122 104.029 296.662 104.029C297.198 104.029 297.624 103.915 297.94 103.687C298.256 103.459 298.414 103.147 298.414 102.751C298.414 102.535 298.364 102.359 298.264 102.223C298.168 102.083 297.976 101.955 297.688 101.839C297.4 101.723 296.972 101.587 296.404 101.431C295.804 101.271 295.334 101.111 294.994 100.951C294.658 100.791 294.42 100.609 294.28 100.405C294.144 100.201 294.076 99.9511 294.076 99.6551C294.076 99.2991 294.178 98.9871 294.382 98.7191C294.586 98.4471 294.87 98.2351 295.234 98.0831C295.602 97.9311 296.026 97.8551 296.506 97.8551C296.986 97.8551 297.418 97.9351 297.802 98.0951C298.186 98.2511 298.496 98.4711 298.732 98.7551C298.968 99.0351 299.104 99.3611 299.14 99.7331L298.432 99.8651C298.364 99.4491 298.154 99.1211 297.802 98.8811C297.45 98.6371 297.01 98.5131 296.482 98.5091C295.982 98.5011 295.574 98.6011 295.258 98.8091C294.942 99.0131 294.784 99.2831 294.784 99.6191C294.784 99.8111 294.838 99.9751 294.946 100.111C295.058 100.243 295.254 100.365 295.534 100.477C295.814 100.589 296.21 100.709 296.722 100.837C297.346 100.997 297.832 101.161 298.18 101.329C298.532 101.497 298.78 101.695 298.924 101.923C299.068 102.147 299.14 102.425 299.14 102.757C299.14 103.357 298.916 103.829 298.468 104.173C298.024 104.513 297.412 104.683 296.632 104.683Z" fill="#352F28"/>
<g clip-path="url(#clip0_2315_1897)">
<rect width="356" height="119" transform="translate(23 131.515)" fill="white"/>
<g clip-path="url(#clip1_2315_1897)">
<rect width="356" height="127" transform="translate(23 127.515)" fill="white"/>
<path d="M23 179.515H403" stroke="#F1F1F1" stroke-dasharray="2 2"/>
<rect x="23" y="202.783" width="15.8333" height="31.41" fill="#F2F0EF"/>
<rect x="23" y="194.406" width="15.8333" height="8.37601" fill="#F2F0EF"/>
<rect x="42.8333" y="202.784" width="15.1008" height="31.41" fill="#F2F0EF"/>
<rect x="61.9341" y="202.784" width="15.1008" height="31.41" fill="#F2F0EF"/>
<rect x="81.0349" y="179.701" width="15.1008" height="54.493" fill="#C5C5C5"/>
<rect x="100.136" y="171.71" width="15.1008" height="62.4833" fill="#787A7C"/>
<rect x="119.237" y="185.916" width="15.1008" height="48.2784" fill="#C5C5C5"/>
<rect x="119.237" y="173.042" width="15.1008" height="12.8742" fill="#C5C5C5"/>
<rect x="138.337" y="171.71" width="15.1008" height="62.4833" fill="#787A7C"/>
<rect x="157.438" y="149.515" width="15.1008" height="84.6785" fill="#352F28"/>
<rect x="176.539" y="149.515" width="15.1008" height="84.6785" fill="#352F28"/>
<rect x="195.64" y="179.701" width="15.1008" height="54.493" fill="#C5C5C5"/>
<rect x="214.741" y="202.783" width="15.1008" height="31.41" fill="#F2F0EF"/>
<rect x="214.741" y="194.406" width="15.1008" height="8.37601" fill="#F2F0EF"/>
<rect x="233.842" y="185.915" width="15.1008" height="48.2784" fill="#C5C5C5"/>
<rect x="252.942" y="171.71" width="15.1008" height="62.4833" fill="#787A7C"/>
<rect x="272.043" y="149.515" width="15.1008" height="84.6785" fill="#352F28"/>
<rect x="291.144" y="149.515" width="15.1008" height="84.6785" fill="#352F28"/>
<rect x="310.245" y="171.71" width="15.1008" height="62.4833" fill="#787A7C"/>
<rect x="329.346" y="179.701" width="15.1008" height="54.493" fill="#C5C5C5"/>
<rect x="329.346" y="165.17" width="15.1008" height="14.5315" fill="#C5C5C5"/>
<rect x="348.447" y="179.701" width="15.1008" height="54.493" fill="#C5C5C5"/>
<rect x="367.547" y="185.915" width="15.1008" height="48.2784" fill="#C5C5C5"/>
</g>
</g>
<defs>
<clipPath id="clip0_2315_1897">
<rect width="356" height="119" fill="white" transform="translate(23 131.515)"/>
</clipPath>
<clipPath id="clip1_2315_1897">
<rect width="356" height="127" fill="white" transform="translate(23 127.515)"/>
</clipPath>
</defs>
</svg>
