<svg width="534" height="282" viewBox="0 0 534 282" fill="none" xmlns="http://www.w3.org/2000/svg">
<g clip-path="url(#clip0_2378_2728)">
<rect width="534" height="282" fill="white"/>
<path d="M215.62 238.27C214.732 238.27 213.931 238.123 213.217 237.829C212.509 237.535 211.921 237.118 211.453 236.578C210.991 236.038 210.682 235.396 210.526 234.652L211.588 234.472C211.81 235.336 212.284 236.017 213.01 236.515C213.742 237.013 214.621 237.262 215.647 237.262C216.343 237.262 216.958 237.151 217.492 236.929C218.026 236.707 218.443 236.395 218.743 235.993C219.043 235.585 219.193 235.111 219.193 234.571C219.193 234.181 219.121 233.854 218.977 233.59C218.839 233.326 218.659 233.11 218.437 232.942C218.215 232.768 217.978 232.63 217.726 232.528C217.474 232.42 217.237 232.333 217.015 232.267L213.757 231.295C213.325 231.169 212.938 231.013 212.596 230.827C212.26 230.635 211.975 230.416 211.741 230.17C211.513 229.918 211.336 229.633 211.21 229.315C211.09 228.997 211.03 228.643 211.03 228.253C211.03 227.557 211.216 226.948 211.588 226.426C211.96 225.904 212.47 225.499 213.118 225.211C213.772 224.917 214.522 224.77 215.368 224.77C216.22 224.776 216.985 224.935 217.663 225.247C218.341 225.553 218.896 225.988 219.328 226.552C219.766 227.116 220.048 227.785 220.174 228.559L219.103 228.748C219.019 228.154 218.803 227.635 218.455 227.191C218.113 226.747 217.675 226.402 217.141 226.156C216.607 225.91 216.013 225.787 215.359 225.787C214.729 225.781 214.171 225.886 213.685 226.102C213.205 226.318 212.827 226.609 212.551 226.975C212.275 227.341 212.137 227.755 212.137 228.217C212.137 228.697 212.266 229.081 212.524 229.369C212.788 229.651 213.109 229.873 213.487 230.035C213.871 230.197 214.237 230.329 214.585 230.431L217.195 231.205C217.441 231.277 217.735 231.379 218.077 231.511C218.419 231.643 218.755 231.832 219.085 232.078C219.415 232.318 219.688 232.639 219.904 233.041C220.126 233.437 220.237 233.935 220.237 234.535C220.237 235.117 220.126 235.639 219.904 236.101C219.682 236.563 219.364 236.956 218.95 237.28C218.536 237.598 218.047 237.841 217.483 238.009C216.919 238.183 216.298 238.27 215.62 238.27ZM226.322 238.27C225.446 238.27 224.705 238.042 224.099 237.586C223.493 237.13 223.031 236.515 222.713 235.741C222.395 234.967 222.236 234.094 222.236 233.122C222.236 232.144 222.395 231.271 222.713 230.503C223.031 229.729 223.502 229.12 224.126 228.676C224.75 228.232 225.515 228.01 226.421 228.01C227.303 228.01 228.056 228.235 228.68 228.685C229.304 229.135 229.778 229.747 230.102 230.521C230.432 231.295 230.597 232.162 230.597 233.122C230.597 234.094 230.429 234.97 230.093 235.75C229.763 236.524 229.28 237.139 228.644 237.595C228.014 238.045 227.24 238.27 226.322 238.27ZM222.065 242.32V228.28H223.01V235.768H223.1V242.32H222.065ZM226.259 237.28C226.973 237.28 227.567 237.097 228.041 236.731C228.521 236.365 228.881 235.87 229.121 235.246C229.367 234.616 229.49 233.908 229.49 233.122C229.49 232.342 229.37 231.643 229.13 231.025C228.896 230.401 228.539 229.909 228.059 229.549C227.585 229.183 226.979 229 226.241 229C225.527 229 224.93 229.177 224.45 229.531C223.97 229.879 223.61 230.365 223.37 230.989C223.13 231.613 223.01 232.324 223.01 233.122C223.01 233.914 223.127 234.625 223.361 235.255C223.601 235.879 223.961 236.374 224.441 236.74C224.927 237.1 225.533 237.28 226.259 237.28ZM236.581 238.27C235.651 238.27 234.847 238.063 234.169 237.649C233.491 237.229 232.966 236.638 232.594 235.876C232.222 235.108 232.036 234.202 232.036 233.158C232.036 232.096 232.219 231.181 232.585 230.413C232.957 229.639 233.479 229.045 234.151 228.631C234.829 228.217 235.633 228.01 236.563 228.01C237.505 228.01 238.309 228.226 238.975 228.658C239.647 229.084 240.157 229.702 240.505 230.512C240.859 231.322 241.027 232.297 241.009 233.437H239.929V233.077C239.899 231.745 239.599 230.731 239.029 230.035C238.459 229.339 237.643 228.991 236.581 228.991C235.483 228.991 234.634 229.354 234.034 230.08C233.44 230.8 233.143 231.82 233.143 233.14C233.143 234.448 233.44 235.462 234.034 236.182C234.634 236.902 235.477 237.262 236.563 237.262C237.313 237.262 237.967 237.088 238.525 236.74C239.089 236.386 239.536 235.882 239.866 235.228L240.802 235.642C240.412 236.482 239.848 237.13 239.11 237.586C238.372 238.042 237.529 238.27 236.581 238.27ZM232.747 233.437V232.501H240.424V233.437H232.747ZM245.632 238.27C244.882 238.27 244.258 238.138 243.76 237.874C243.268 237.61 242.899 237.262 242.653 236.83C242.407 236.392 242.284 235.918 242.284 235.408C242.284 234.856 242.398 234.394 242.626 234.022C242.86 233.65 243.169 233.35 243.553 233.122C243.943 232.894 244.372 232.723 244.84 232.609C245.374 232.489 245.95 232.387 246.568 232.303C247.186 232.213 247.774 232.135 248.332 232.069C248.896 232.003 249.355 231.946 249.709 231.898L249.331 232.123C249.355 231.073 249.157 230.293 248.737 229.783C248.323 229.267 247.591 229.009 246.541 229.009C245.803 229.009 245.194 229.177 244.714 229.513C244.24 229.843 243.907 230.356 243.715 231.052L242.653 230.755C242.875 229.873 243.322 229.195 243.994 228.721C244.666 228.247 245.527 228.01 246.577 228.01C247.471 228.01 248.221 228.184 248.827 228.532C249.439 228.88 249.865 229.369 250.105 229.999C250.207 230.257 250.276 230.56 250.312 230.908C250.348 231.25 250.366 231.595 250.366 231.943V238H249.421V235.444L249.772 235.534C249.478 236.41 248.965 237.085 248.233 237.559C247.501 238.033 246.634 238.27 245.632 238.27ZM245.686 237.316C246.346 237.316 246.925 237.199 247.423 236.965C247.921 236.725 248.323 236.392 248.629 235.966C248.941 235.534 249.139 235.027 249.223 234.445C249.283 234.121 249.316 233.77 249.322 233.392C249.328 233.014 249.331 232.735 249.331 232.555L249.781 232.843C249.391 232.891 248.923 232.942 248.377 232.996C247.837 233.05 247.285 233.116 246.721 233.194C246.157 233.272 245.647 233.371 245.191 233.491C244.909 233.569 244.624 233.683 244.336 233.833C244.054 233.977 243.817 234.178 243.625 234.436C243.439 234.694 243.346 235.021 243.346 235.417C243.346 235.711 243.418 236.005 243.562 236.299C243.712 236.593 243.958 236.836 244.3 237.028C244.642 237.22 245.104 237.316 245.686 237.316ZM252.703 238V225.04H253.747V232.96L258.346 228.28H259.795L254.98 233.14L260.479 238H258.868L253.747 233.32V238H252.703ZM270.147 238C269.631 238.114 269.121 238.156 268.617 238.126C268.113 238.102 267.663 237.991 267.267 237.793C266.877 237.589 266.583 237.277 266.385 236.857C266.223 236.515 266.133 236.17 266.115 235.822C266.097 235.474 266.088 235.075 266.088 234.625V225.58H267.132V234.607C267.132 235.015 267.135 235.354 267.141 235.624C267.153 235.888 267.216 236.131 267.33 236.353C267.546 236.767 267.888 237.019 268.356 237.109C268.824 237.193 269.421 237.178 270.147 237.064V238ZM263.91 229.225V228.28H270.147V229.225H263.91ZM275.675 238.27C274.709 238.27 273.89 238.051 273.218 237.613C272.546 237.175 272.033 236.569 271.679 235.795C271.325 235.021 271.148 234.13 271.148 233.122C271.148 232.108 271.328 231.217 271.688 230.449C272.048 229.675 272.564 229.075 273.236 228.649C273.914 228.223 274.727 228.01 275.675 228.01C276.641 228.01 277.46 228.229 278.132 228.667C278.81 229.099 279.323 229.699 279.671 230.467C280.025 231.235 280.202 232.12 280.202 233.122C280.202 234.148 280.025 235.048 279.671 235.822C279.317 236.59 278.801 237.19 278.123 237.622C277.445 238.054 276.629 238.27 275.675 238.27ZM275.675 237.262C276.821 237.262 277.676 236.878 278.24 236.11C278.81 235.342 279.095 234.346 279.095 233.122C279.095 231.874 278.81 230.878 278.24 230.134C277.67 229.39 276.815 229.018 275.675 229.018C274.901 229.018 274.262 229.195 273.758 229.549C273.254 229.897 272.876 230.38 272.624 230.998C272.378 231.61 272.255 232.318 272.255 233.122C272.255 234.37 272.543 235.372 273.119 236.128C273.701 236.884 274.553 237.262 275.675 237.262ZM289.376 238.252C288.254 238.252 287.327 238.015 286.595 237.541C285.869 237.067 285.419 236.407 285.245 235.561L286.307 235.381C286.457 235.957 286.811 236.416 287.369 236.758C287.927 237.1 288.611 237.271 289.421 237.271C290.225 237.271 290.864 237.1 291.338 236.758C291.812 236.416 292.049 235.948 292.049 235.354C292.049 235.03 291.974 234.766 291.824 234.562C291.68 234.352 291.392 234.16 290.96 233.986C290.528 233.812 289.886 233.608 289.034 233.374C288.134 233.134 287.429 232.894 286.919 232.654C286.415 232.414 286.058 232.141 285.848 231.835C285.644 231.529 285.542 231.154 285.542 230.71C285.542 230.176 285.695 229.708 286.001 229.306C286.307 228.898 286.733 228.58 287.279 228.352C287.831 228.124 288.467 228.01 289.187 228.01C289.907 228.01 290.555 228.13 291.131 228.37C291.707 228.604 292.172 228.934 292.526 229.36C292.88 229.78 293.084 230.269 293.138 230.827L292.076 231.025C291.974 230.401 291.659 229.909 291.131 229.549C290.603 229.183 289.943 228.997 289.151 228.991C288.401 228.979 287.789 229.129 287.315 229.441C286.841 229.747 286.604 230.152 286.604 230.656C286.604 230.944 286.685 231.19 286.847 231.394C287.015 231.592 287.309 231.775 287.729 231.943C288.149 232.111 288.743 232.291 289.511 232.483C290.447 232.723 291.176 232.969 291.698 233.221C292.226 233.473 292.598 233.77 292.814 234.112C293.03 234.448 293.138 234.865 293.138 235.363C293.138 236.263 292.802 236.971 292.13 237.487C291.464 237.997 290.546 238.252 289.376 238.252ZM300.294 238C299.778 238.114 299.268 238.156 298.764 238.126C298.26 238.102 297.81 237.991 297.414 237.793C297.024 237.589 296.73 237.277 296.532 236.857C296.37 236.515 296.28 236.17 296.262 235.822C296.244 235.474 296.235 235.075 296.235 234.625V225.58H297.279V234.607C297.279 235.015 297.282 235.354 297.288 235.624C297.3 235.888 297.363 236.131 297.477 236.353C297.693 236.767 298.035 237.019 298.503 237.109C298.971 237.193 299.568 237.178 300.294 237.064V238ZM294.057 229.225V228.28H300.294V229.225H294.057ZM304.959 238.27C304.209 238.27 303.585 238.138 303.087 237.874C302.595 237.61 302.226 237.262 301.98 236.83C301.734 236.392 301.611 235.918 301.611 235.408C301.611 234.856 301.725 234.394 301.953 234.022C302.187 233.65 302.496 233.35 302.88 233.122C303.27 232.894 303.699 232.723 304.167 232.609C304.701 232.489 305.277 232.387 305.895 232.303C306.513 232.213 307.101 232.135 307.659 232.069C308.223 232.003 308.682 231.946 309.036 231.898L308.658 232.123C308.682 231.073 308.484 230.293 308.064 229.783C307.65 229.267 306.918 229.009 305.868 229.009C305.13 229.009 304.521 229.177 304.041 229.513C303.567 229.843 303.234 230.356 303.042 231.052L301.98 230.755C302.202 229.873 302.649 229.195 303.321 228.721C303.993 228.247 304.854 228.01 305.904 228.01C306.798 228.01 307.548 228.184 308.154 228.532C308.766 228.88 309.192 229.369 309.432 229.999C309.534 230.257 309.603 230.56 309.639 230.908C309.675 231.25 309.693 231.595 309.693 231.943V238H308.748V235.444L309.099 235.534C308.805 236.41 308.292 237.085 307.56 237.559C306.828 238.033 305.961 238.27 304.959 238.27ZM305.013 237.316C305.673 237.316 306.252 237.199 306.75 236.965C307.248 236.725 307.65 236.392 307.956 235.966C308.268 235.534 308.466 235.027 308.55 234.445C308.61 234.121 308.643 233.77 308.649 233.392C308.655 233.014 308.658 232.735 308.658 232.555L309.108 232.843C308.718 232.891 308.25 232.942 307.704 232.996C307.164 233.05 306.612 233.116 306.048 233.194C305.484 233.272 304.974 233.371 304.518 233.491C304.236 233.569 303.951 233.683 303.663 233.833C303.381 233.977 303.144 234.178 302.952 234.436C302.766 234.694 302.673 235.021 302.673 235.417C302.673 235.711 302.745 236.005 302.889 236.299C303.039 236.593 303.285 236.836 303.627 237.028C303.969 237.22 304.431 237.316 305.013 237.316ZM312.03 238V228.28H312.975V230.611L312.741 230.305C312.849 230.029 312.984 229.774 313.146 229.54C313.314 229.3 313.485 229.105 313.659 228.955C313.917 228.715 314.22 228.535 314.568 228.415C314.916 228.289 315.267 228.217 315.621 228.199C315.975 228.175 316.296 228.202 316.584 228.28V229.261C316.2 229.171 315.792 229.153 315.36 229.207C314.928 229.261 314.523 229.447 314.145 229.765C313.815 230.053 313.575 230.389 313.425 230.773C313.275 231.151 313.179 231.55 313.137 231.97C313.095 232.384 313.074 232.789 313.074 233.185V238H312.03ZM323.444 238C322.928 238.114 322.418 238.156 321.914 238.126C321.41 238.102 320.96 237.991 320.564 237.793C320.174 237.589 319.88 237.277 319.682 236.857C319.52 236.515 319.43 236.17 319.412 235.822C319.394 235.474 319.385 235.075 319.385 234.625V225.58H320.429V234.607C320.429 235.015 320.432 235.354 320.438 235.624C320.45 235.888 320.513 236.131 320.627 236.353C320.843 236.767 321.185 237.019 321.653 237.109C322.121 237.193 322.718 237.178 323.444 237.064V238ZM317.207 229.225V228.28H323.444V229.225H317.207Z" fill="#2A2723"/>
<path fill-rule="evenodd" clip-rule="evenodd" d="M275.135 27.4455C274.155 29.9978 272.643 52.8176 271.609 80.6646C269.25 144.162 267.988 166.991 266.795 167.728C265.51 168.522 264.927 160.005 262.856 110.174C260.655 57.2208 259.77 47.1954 257.499 49.4661C255.888 51.077 255.048 61.1276 253.275 100.015C252.207 123.429 250.86 152.969 250.28 165.66C249.172 189.896 248.18 196.805 247.059 188.059C246.719 185.398 245.576 164.5 244.521 141.618C242.098 89.1091 241.734 85.5719 238.934 87.3027C237.391 88.2567 236.888 92.5931 234.838 122.641C231.741 168.021 231.183 169.01 227.051 136.475C226.489 132.049 225.783 127.786 225.481 127.001C224.419 124.236 222.739 126.339 221.474 132.013C220.772 135.167 219.756 138.827 219.218 140.146C217.759 143.718 216.87 141.418 214.513 127.979C212.219 114.898 210.913 110.174 209.592 110.174C208.102 110.174 207.146 113.845 205.435 126.138C203.092 142.979 201.892 148.528 200.955 146.854C200.007 145.161 198.522 134.13 197.125 118.398C195.385 98.8191 193.356 93.4977 190.697 101.541C190.094 103.362 188.67 118.567 187.533 135.329C185.564 164.339 184.823 171.738 183.974 170.888C182.862 169.776 181.483 151.886 179.744 115.979C177.208 63.5918 176.879 60.4368 174.132 62.1348C172.482 63.1536 172.045 69.8043 170.081 123.719C167.83 185.484 167.214 197.469 166.2 199.108C165.071 200.935 164.357 190.84 162.748 150.326C160.014 81.4706 159.16 71.3068 156.346 74.1203C154.716 75.7506 153.722 87.8262 152.144 125.165C150.344 167.777 149.641 178.792 148.688 179.382C147.203 180.299 145.859 157.648 143.864 98.0799C142.851 67.816 141.399 43.3892 140.427 40.2709C139.853 38.4268 138.534 38.0514 137.652 39.4794C136.645 41.1087 135.305 58.9545 134.268 84.5347C133.088 113.685 131.509 140.193 130.673 144.89C129.427 151.9 127.368 140.827 126.018 119.849C125.053 104.84 123.57 88.5257 123.008 86.7116C122.247 84.2512 120.777 84.6363 119.654 87.5901C119.116 89.0046 117.601 107.985 116.288 129.77C114.974 151.554 113.526 170.045 113.07 170.86C112.044 172.692 111.299 163.22 110.009 131.943C107.206 64.0446 106.736 57.1414 104.724 54.3898C103.575 52.8176 103.359 53.015 102.423 56.5009C101.854 58.6159 100.941 67.5306 100.394 76.3108C99.847 85.091 98.7373 102.724 97.9275 115.495C95.2987 156.944 94.2083 154.486 90.2018 98.0799C88.6712 76.5295 88.1546 73.1238 86.504 73.6734C84.5409 74.3284 83.9275 79.8287 82.0012 114.044C79.1344 164.961 79.0512 166.335 78.4746 171.963C78.1814 174.817 77.5893 176.777 77.1568 176.317C76.3548 175.462 74.7855 158.115 73.7125 138.232C72.9433 123.973 70.6571 100.44 69.8308 98.2879C69.4806 97.3755 68.7946 96.6286 68.306 96.6286C66.2278 96.6286 65.1954 102.397 62.08 131.405C61.2547 139.091 60.2108 146.039 59.7599 146.844C58.7692 148.615 57.4979 144.213 55.885 133.426C55.292 129.452 54.2799 125.867 53.6375 125.459C51.8447 124.319 -8 124.989 -8 126.138C-8 126.75 22.2474 126.622 34.3675 126.622H53.5137L55.1565 136.976C56.9116 148.039 58.6908 151.649 60.6152 148.053C61.7414 145.95 62.4999 140.563 65.0571 116.533C67.235 96.0684 68.6504 94.3888 70.3155 110.295C70.837 115.283 71.7146 125.896 72.2641 133.878C75.4859 180.646 75.4395 180.241 77.4742 179.563C79.2418 178.974 79.8291 173.773 81.4284 144.521C83.8337 100.553 84.8128 84.8772 85.4436 80.2196C86.4488 72.8006 87.6921 77.8743 88.7864 93.8693C90.6237 120.71 92.5307 142.675 93.1692 144.338C94.0409 146.61 95.4206 146.377 96.3872 143.795C97.3228 141.299 99.0778 121.874 99.906 104.853C100.734 87.8291 102.211 65.881 102.894 60.4271C104.521 47.445 106.058 65.135 108.648 126.622C110.357 167.19 110.928 174.167 112.579 174.717C114.772 175.446 114.86 174.547 118.263 116.769C119.068 103.102 120.085 90.9503 120.524 89.7651C121.264 87.7633 121.37 87.7381 122.014 89.4168C122.396 90.4104 123.572 102.78 124.631 116.905C126.543 142.441 127.625 149.842 129.448 149.842C132.124 149.842 133.219 138.176 135.211 88.4047C135.785 74.0371 136.67 57.9909 137.176 52.746C137.681 47.5011 138.095 42.7341 138.095 42.1517C138.095 41.4841 138.432 41.4319 139.01 42.0124C140.078 43.0854 141.499 64.9918 142.928 102.434C145.699 175.056 146.153 181.715 148.397 182.463C150.143 183.045 150.651 179.34 151.672 158.55C154.704 96.7786 155.601 81.3487 156.314 78.7296L157.104 75.827L157.745 79.0247C158.613 83.3553 160.037 109.917 161.802 154.68C163.268 191.851 163.809 199.424 165.189 202.001C167.538 206.389 169.052 189.197 170.507 141.618C172.152 87.7962 173.525 63.9305 174.897 65.3392C175.733 66.1983 177.315 87.0435 178.263 109.69C179.414 137.153 181.728 169.497 182.668 171.254C184.04 173.816 185.258 173.497 185.909 170.402C186.218 168.939 187.35 154.897 188.426 139.199C190.284 112.101 190.748 107.092 191.924 101.48C193.092 95.9011 195.259 107.394 196.662 126.622C197.671 140.435 199.456 149.842 201.069 149.842C202.789 149.842 203.892 145.53 206.225 129.691C209.405 108.102 209.731 107.962 213.05 126.756C215.635 141.394 216.142 143.069 217.985 143.069C219.814 143.069 220.917 140.66 222.295 133.654C222.947 130.339 223.806 127.827 224.205 128.073C224.602 128.32 225.433 132.773 226.052 137.972C228.54 158.894 229.717 164.002 231.61 162.108C233.204 160.516 233.732 155.356 236.829 111.141C238.007 94.3172 238.635 89.6915 239.655 90.3214C240.734 90.989 241.429 100.267 243.102 136.297C244.871 174.391 246.094 192.978 246.92 194.314C247.958 195.995 249.118 195.438 249.74 192.959C250.288 190.78 252.308 150.067 253.681 113.56C255.1 75.7922 256.82 52.3928 258.074 53.728C259.081 54.7971 260.696 80.5069 261.987 115.979C263.772 165.035 264.607 172.714 267.809 169.513C269.03 168.292 270.014 151.892 272.093 98.0799C273.92 50.7723 275.091 32.7765 276.427 31.4403C277.102 30.766 277.417 31.3136 277.417 33.1596C277.417 34.6486 277.846 43.1173 278.37 51.9778C278.894 60.8373 280.005 86.373 280.838 108.723C282.477 152.676 283.506 166.96 285.15 168.605C287.897 171.352 288.536 166.742 290.5 130.008C292.174 98.6817 293.485 84.0442 294.726 82.8028C295.805 81.7241 296.508 86.9573 297.69 104.853C298.218 112.835 299.125 126.549 299.708 135.329C301.134 156.844 302.297 161.915 304.967 158.263C306.38 156.331 307.677 146.247 309.847 120.333C311.377 102.063 311.978 98.2821 313.225 99.0532C314.159 99.6308 315.787 111.585 317.109 127.589C318.339 142.479 319.909 153.955 320.947 155.633C322.462 158.084 324.663 155.768 325.702 150.63C326.273 147.801 327.413 139.626 328.235 132.462C331.111 107.399 332.256 108.612 335.961 140.651C338.12 159.316 339.346 166.059 340.8 167.266C343.731 169.699 345.103 162.696 347.532 132.91C350.267 99.3532 351.971 88.5363 353.24 96.6567C354.368 103.869 354.923 109.791 357.269 139.649C359.814 172.045 360.344 176.849 361.585 178.858C362.707 180.674 364.161 179.321 364.864 175.806C365.544 172.405 367.897 139.961 368.851 120.817C370.537 87.0338 372.89 65.0354 374.635 66.7788C375.309 67.4532 376.957 83.2508 378.505 103.885C380.746 133.757 382.243 143.069 384.808 143.069C387.173 143.069 388.619 129.722 391.1 85.0184C391.912 70.3848 392.803 56.8879 393.081 55.0255C394.624 44.6701 395.813 43.9619 396.769 52.8273C397.1 55.8982 398.463 79.3101 399.797 104.853C402.565 157.85 403.818 174.935 405.204 178.578C406.049 180.803 406.358 180.956 407.567 179.747C409.072 178.241 410.142 169.298 411.896 143.553C413.906 114.036 415.919 90.3166 416.811 85.6125C417.303 83.0118 417.72 80.6172 417.736 80.2912C417.752 79.9641 418.221 80.4779 418.776 81.4328C420.038 83.6039 421.881 106.232 424.501 151.777C426.414 185.03 427.681 199.255 428.903 201.233C429.998 203.004 431.209 201.968 432.158 198.449C433.265 194.335 435.668 159.573 436.554 134.845C438.15 90.2962 440.086 48.7985 440.942 40.7923C441.466 35.8919 441.908 31.3204 441.924 30.6334C441.945 29.7617 442.21 29.8236 442.806 30.8395C443.745 32.4427 445.054 52.9656 447.217 100.015C449.933 159.081 450.918 172.546 452.6 173.585C455.191 175.186 456.543 163.478 458.857 119.365C460.314 91.5985 461.78 73.1403 462.882 68.6907C464.454 62.3399 466.127 73.9539 468.507 107.755C471.015 143.363 472.239 150.425 475.442 147.768C477.672 145.917 478.33 143.567 481.137 127.436C484.961 105.461 486.22 103.642 488.678 116.54C490.949 128.459 489.123 127.621 512.315 127.387L532.357 127.589L543 127.387L532.357 127.105L512.728 126.661C491.248 126.089 491.899 126.289 490.782 119.912C489.439 112.25 487.291 106.304 485.865 106.304C483.787 106.304 482.915 109.251 480.141 125.67C477.435 141.674 475.16 148.845 473.853 145.488C472.563 142.176 471.044 127.996 469.499 104.853C467.523 75.2465 466.099 64.7006 464.078 64.7006C461.262 64.7006 459.97 75.352 457.854 115.979C456.236 147.035 454.741 166.641 453.76 169.676C453.273 171.184 452.974 170.759 452.404 167.741C451.743 164.24 448.606 107.803 447.189 73.892C446.396 54.9113 444.878 31.8302 444.214 28.6094C443.53 25.3005 441.773 25.6517 440.798 29.2925C439.725 33.3115 438.214 59.6502 436.579 102.917C433.966 172.049 432.291 197.464 430.206 199.621C429.645 200.201 429.314 200.201 429.309 199.621C429.305 199.115 428.871 195.001 428.345 190.478C427.818 185.954 426.285 163.097 424.937 139.683C422.143 91.1438 421.12 80.2805 419.162 78.3203C417.972 77.1293 417.666 77.2599 416.899 79.2878C415.4 83.2469 413.988 96.8144 411.922 127.105C409.416 163.851 408.288 175.696 407.101 177.732C406.58 178.623 406.133 178.916 406.107 178.384C406.08 177.852 405.656 174.586 405.166 171.127C404.191 164.254 403.057 146.021 400.741 100.015C398.197 49.4651 397.538 42.8899 395.093 43.691C392.851 44.4254 391.697 53.9554 389.71 88.1261C387.6 124.416 386.244 139.105 384.88 140.479C383.31 142.061 381.634 129.923 379.496 101.466C377.04 68.8058 375.945 62.5373 373.178 65.3043C371.064 67.4184 370.496 73.6666 366.405 139.832C364.463 171.25 363.874 176.932 362.562 176.932C361.586 176.932 360.908 171.219 359.174 148.391C356.571 114.14 354.713 95.337 353.752 93.5422C352.61 91.4079 351.347 91.2928 350.594 93.2549C349.854 95.1822 348.308 108.46 347.553 119.365C345.711 146.001 342.814 167.279 341.251 165.657C340.442 164.818 338.688 153.335 335.924 130.782C334.128 116.121 333.399 112.87 331.793 112.335C329.955 111.723 328.894 115.912 327.267 130.189C323.342 164.661 321.669 163.637 318.047 124.544C315.973 102.167 314.927 96.6286 312.769 96.6286C311.033 96.6286 310.486 99.148 309.3 112.593C306.532 143.967 305.518 153.427 304.683 155.647C303.8 157.993 303.741 157.95 302.733 154.196C302.161 152.067 301.011 138.57 300.176 124.203C297.95 85.8873 296.949 78.7586 294.05 80.5505C292.474 81.5247 291.061 95.5673 289.514 125.654C287.902 156.992 287.21 165.135 286.103 165.82C284.431 166.853 283.578 152.986 280.81 79.6971C279.032 32.5975 278.501 26 276.488 26C276.049 26 275.439 26.6511 275.135 27.4455Z" fill="#352F28"/>
</g>
<defs>
<clipPath id="clip0_2378_2728">
<rect width="534" height="282" fill="white"/>
</clipPath>
</defs>
</svg>
