<svg width="534" height="282" viewBox="0 0 534 282" fill="none" xmlns="http://www.w3.org/2000/svg">
<g clip-path="url(#clip0_2378_2727)">
<rect width="534" height="282" fill="white"/>
<g clip-path="url(#clip1_2378_2727)">
<rect width="535" height="1223.05" transform="translate(0 -87)" fill="white"/>
<g clip-path="url(#clip2_2378_2727)">
<rect width="537.662" height="351.147" transform="translate(0 8.17554)" fill="white"/>
<path d="M31.9402 50.7627C31.9402 44.8827 36.7069 40.116 42.587 40.116H495.075C500.955 40.116 505.721 44.8827 505.721 50.7627V322.059C505.721 327.939 500.955 332.706 495.075 332.706H42.5869C36.7069 332.706 31.9402 327.939 31.9402 322.059V50.7627Z" fill="#F7F7F7"/>
<rect x="53.2339" y="61.4094" width="140.91" height="29.2786" rx="5.32338" fill="#F2F0EF"/>
<g clip-path="url(#clip3_2378_2727)">
<path d="M72.1707 84.263V82.0552H74.4158V84.263H72.1707ZM72.1707 69.3576V67.1497H74.4158V69.3576H72.1707ZM73.3445 82.6887C72.4005 82.6887 71.5558 82.5148 70.8106 82.167C70.0653 81.8192 69.4535 81.3285 68.9753 80.6951C68.5033 80.0616 68.2021 79.3101 68.0717 78.4406L70.2889 78.0866C70.4628 78.8505 70.8354 79.4591 71.4068 79.9125C71.9844 80.3597 72.6737 80.5833 73.4749 80.5833C74.245 80.5833 74.8785 80.4032 75.3754 80.0429C75.8722 79.6765 76.1206 79.2138 76.1206 78.6549C76.1206 78.2636 76.0026 77.9469 75.7666 77.7046C75.5306 77.4562 75.1518 77.2513 74.6301 77.0898L71.3975 76.0837C69.5157 75.4999 68.5747 74.3571 68.5747 72.6554C68.5747 71.8605 68.7642 71.168 69.143 70.578C69.5281 69.9817 70.0684 69.5253 70.764 69.2085C71.4596 68.8856 72.2794 68.7272 73.2234 68.7334C74.0991 68.7396 74.8785 68.898 75.5617 69.2085C76.2511 69.5191 76.8224 69.9662 77.2758 70.55C77.7354 71.1338 78.0615 71.8356 78.254 72.6554L75.953 73.0746C75.866 72.6337 75.6952 72.2455 75.4406 71.9101C75.1859 71.5748 74.8661 71.3139 74.481 71.1276C74.096 70.9413 73.6674 70.8419 73.1954 70.8295C72.7421 70.8233 72.3353 70.8947 71.9751 71.0438C71.6148 71.1866 71.3292 71.3916 71.118 71.6586C70.9068 71.9195 70.8012 72.2145 70.8012 72.5436C70.8012 72.91 70.9472 73.2237 71.2391 73.4845C71.5372 73.7454 72.0061 73.969 72.6458 74.1553L75.0586 74.854C76.22 75.1893 77.0553 75.6458 77.5646 76.2234C78.0801 76.7948 78.3378 77.5556 78.3378 78.5058C78.3378 79.338 78.1298 80.0678 77.7137 80.6951C77.2976 81.3223 76.7138 81.813 75.9623 82.167C75.2108 82.5148 74.3382 82.6887 73.3445 82.6887Z" fill="black"/>
</g>
<path d="M94.3304 81.5488V76.6939L90.4976 70.0503H91.5596L94.7935 75.6399L98.0195 70.0503H99.0815L95.2567 76.6939V81.5488H94.3304ZM102.452 81.7884C101.595 81.7884 100.868 81.5941 100.272 81.2055C99.6756 80.8169 99.2204 80.2792 98.9063 79.5925C98.5923 78.9058 98.4352 78.1152 98.4352 77.2209C98.4352 76.3213 98.5949 75.5307 98.9143 74.8494C99.2337 74.1626 99.6915 73.6303 100.288 73.2523C100.889 72.8744 101.611 72.6854 102.452 72.6854C103.309 72.6854 104.035 72.8797 104.632 73.2683C105.233 73.6516 105.688 74.1839 105.997 74.8653C106.311 75.5467 106.468 76.3319 106.468 77.2209C106.468 78.1312 106.311 78.9297 105.997 79.6164C105.683 80.2978 105.225 80.8302 104.624 81.2135C104.022 81.5967 103.298 81.7884 102.452 81.7884ZM102.452 80.8941C103.468 80.8941 104.227 80.5534 104.727 79.872C105.233 79.1906 105.486 78.3069 105.486 77.2209C105.486 76.1137 105.233 75.23 104.727 74.5699C104.222 73.9098 103.463 73.5797 102.452 73.5797C101.765 73.5797 101.198 73.7368 100.751 74.0508C100.304 74.3596 99.9684 74.7881 99.7448 75.3364C99.5265 75.8794 99.4174 76.5076 99.4174 77.2209C99.4174 78.3282 99.6729 79.2172 100.184 79.8879C100.7 80.5587 101.456 80.8941 102.452 80.8941ZM111.539 81.7485C111.065 81.7485 110.639 81.6793 110.261 81.5408C109.889 81.4024 109.564 81.2081 109.287 80.9579C109.01 80.7024 108.781 80.4043 108.6 80.0636C108.419 79.7176 108.284 79.3396 108.193 78.9297C108.108 78.5198 108.065 78.0913 108.065 77.6441V72.9249H108.992V77.4126C108.992 77.9555 109.045 78.44 109.151 78.8658C109.263 79.2917 109.428 79.6537 109.646 79.9518C109.87 80.2499 110.147 80.4762 110.477 80.6305C110.812 80.7849 111.206 80.8621 111.659 80.8621C112.127 80.8621 112.532 80.7823 112.872 80.6226C113.218 80.4575 113.501 80.2286 113.719 79.9358C113.942 79.6431 114.107 79.297 114.214 78.8978C114.326 78.4932 114.382 78.054 114.382 77.5802L115.108 77.6681C115.108 78.5997 114.948 79.3689 114.629 79.9758C114.315 80.5773 113.889 81.0245 113.351 81.3173C112.814 81.6047 112.21 81.7485 111.539 81.7485ZM114.469 81.5488V79.6085H114.382V72.9249H115.308V81.5488H114.469ZM117.536 81.5488V72.9249H118.374V74.9931L118.167 74.7216C118.262 74.4767 118.382 74.2505 118.526 74.0429C118.675 73.8299 118.827 73.6569 118.981 73.5238C119.21 73.3109 119.479 73.1512 119.788 73.0447C120.096 72.9329 120.408 72.8691 120.722 72.8531C121.036 72.8318 121.321 72.8557 121.576 72.9249V73.7953C121.236 73.7155 120.874 73.6995 120.49 73.7474C120.107 73.7953 119.748 73.9603 119.412 74.2425C119.119 74.498 118.907 74.7961 118.773 75.1368C118.64 75.4722 118.555 75.8262 118.518 76.1988C118.481 76.5661 118.462 76.9255 118.462 77.2768V81.5488H117.536ZM126.285 81.5488V70.0503H130.685C131.281 70.0503 131.816 70.1781 132.29 70.4336C132.769 70.6838 133.144 71.0272 133.416 71.4637C133.693 71.9002 133.831 72.3926 133.831 72.9409C133.831 73.5584 133.661 74.1147 133.32 74.6098C132.979 75.0995 132.527 75.4429 131.962 75.6399L131.93 75.2566C132.686 75.4855 133.285 75.8688 133.727 76.4064C134.174 76.9388 134.398 77.5989 134.398 78.3867C134.398 79.0468 134.251 79.6138 133.959 80.0876C133.671 80.556 133.272 80.918 132.761 81.1735C132.25 81.4237 131.67 81.5488 131.02 81.5488H126.285ZM127.211 80.6465H130.717C131.228 80.6465 131.686 80.5587 132.09 80.383C132.5 80.2073 132.822 79.9545 133.056 79.6244C133.296 79.2944 133.416 78.8951 133.416 78.4267C133.416 77.9635 133.307 77.5456 133.088 77.173C132.875 76.795 132.585 76.4969 132.218 76.2787C131.851 76.0551 131.438 75.9433 130.98 75.9433H127.211V80.6465ZM127.211 75.057H130.677C131.076 75.057 131.441 74.9638 131.771 74.7775C132.106 74.5912 132.372 74.3383 132.569 74.0189C132.766 73.6942 132.865 73.3242 132.865 72.909C132.865 72.3181 132.654 71.8416 132.234 71.4796C131.819 71.1177 131.3 70.9367 130.677 70.9367H127.211V75.057ZM138.477 81.7884C137.812 81.7884 137.258 81.6713 136.816 81.437C136.38 81.2028 136.052 80.8941 135.834 80.5108C135.616 80.1222 135.507 79.7016 135.507 79.2491C135.507 78.7594 135.608 78.3495 135.81 78.0194C136.018 77.6894 136.292 77.4232 136.632 77.2209C136.978 77.0186 137.359 76.8669 137.774 76.7658C138.248 76.6593 138.759 76.5688 139.307 76.4943C139.856 76.4144 140.377 76.3452 140.873 76.2867C141.373 76.2281 141.78 76.1775 142.094 76.1349L141.759 76.3346C141.78 75.403 141.604 74.7109 141.232 74.2585C140.865 73.8006 140.215 73.5717 139.283 73.5717C138.629 73.5717 138.088 73.7208 137.663 74.0189C137.242 74.3117 136.947 74.7668 136.776 75.3844L135.834 75.1208C136.031 74.3383 136.427 73.7368 137.024 73.3162C137.62 72.8957 138.384 72.6854 139.315 72.6854C140.109 72.6854 140.774 72.8398 141.312 73.1485C141.855 73.4573 142.233 73.8911 142.446 74.4501C142.536 74.679 142.597 74.9478 142.629 75.2566C142.661 75.56 142.677 75.8661 142.677 76.1749V81.5488H141.839V79.2811L142.15 79.3609C141.889 80.1381 141.434 80.737 140.785 81.1576C140.135 81.5781 139.366 81.7884 138.477 81.7884ZM138.525 80.942C139.11 80.942 139.624 80.8382 140.066 80.6305C140.508 80.4176 140.865 80.1222 141.136 79.7442C141.413 79.3609 141.589 78.9111 141.663 78.3947C141.716 78.1073 141.746 77.7958 141.751 77.4605C141.756 77.1251 141.759 76.8776 141.759 76.7179L142.158 76.9734C141.812 77.016 141.397 77.0612 140.912 77.1091C140.433 77.157 139.944 77.2156 139.443 77.2848C138.943 77.354 138.49 77.4418 138.086 77.5483C137.836 77.6175 137.583 77.7187 137.327 77.8517C137.077 77.9795 136.867 78.1578 136.696 78.3867C136.531 78.6156 136.449 78.9058 136.449 79.2571C136.449 79.518 136.513 79.7788 136.64 80.0396C136.774 80.3005 136.992 80.5161 137.295 80.6864C137.599 80.8568 138.009 80.942 138.525 80.942ZM144.91 81.5488V69.8108H145.829V81.5488H144.91ZM150.72 81.7884C150.054 81.7884 149.501 81.6713 149.059 81.437C148.622 81.2028 148.295 80.8941 148.077 80.5108C147.858 80.1222 147.749 79.7016 147.749 79.2491C147.749 78.7594 147.85 78.3495 148.053 78.0194C148.26 77.6894 148.534 77.4232 148.875 77.2209C149.221 77.0186 149.602 76.8669 150.017 76.7658C150.491 76.6593 151.002 76.5688 151.55 76.4943C152.098 76.4144 152.62 76.3452 153.115 76.2867C153.616 76.2281 154.023 76.1775 154.337 76.1349L154.002 76.3346C154.023 75.403 153.847 74.7109 153.475 74.2585C153.107 73.8006 152.458 73.5717 151.526 73.5717C150.871 73.5717 150.331 73.7208 149.905 74.0189C149.485 74.3117 149.189 74.7668 149.019 75.3844L148.077 75.1208C148.274 74.3383 148.67 73.7368 149.266 73.3162C149.863 72.8957 150.627 72.6854 151.558 72.6854C152.351 72.6854 153.017 72.8398 153.554 73.1485C154.097 73.4573 154.475 73.8911 154.688 74.4501C154.779 74.679 154.84 74.9478 154.872 75.2566C154.904 75.56 154.92 75.8661 154.92 76.1749V81.5488H154.081V79.2811L154.393 79.3609C154.132 80.1381 153.677 80.737 153.027 81.1576C152.378 81.5781 151.609 81.7884 150.72 81.7884ZM150.768 80.942C151.353 80.942 151.867 80.8382 152.309 80.6305C152.751 80.4176 153.107 80.1222 153.379 79.7442C153.656 79.3609 153.831 78.9111 153.906 78.3947C153.959 78.1073 153.988 77.7958 153.994 77.4605C153.999 77.1251 154.002 76.8776 154.002 76.7179L154.401 76.9734C154.055 77.016 153.64 77.0612 153.155 77.1091C152.676 77.157 152.186 77.2156 151.686 77.2848C151.186 77.354 150.733 77.4418 150.328 77.5483C150.078 77.6175 149.825 77.7187 149.57 77.8517C149.32 77.9795 149.109 78.1578 148.939 78.3867C148.774 78.6156 148.692 78.9058 148.692 79.2571C148.692 79.518 148.755 79.7788 148.883 80.0396C149.016 80.3005 149.235 80.5161 149.538 80.6864C149.841 80.8568 150.251 80.942 150.768 80.942ZM163.309 81.5488V77.0612C163.309 76.5182 163.254 76.0338 163.142 75.6079C163.035 75.1821 162.87 74.8201 162.647 74.522C162.428 74.2239 162.152 73.9976 161.816 73.8432C161.486 73.6889 161.095 73.6117 160.642 73.6117C160.174 73.6117 159.767 73.6942 159.421 73.8592C159.08 74.0189 158.798 74.2451 158.574 74.5379C158.356 74.8307 158.191 75.1794 158.079 75.584C157.973 75.9832 157.92 76.4197 157.92 76.8935L157.193 76.8057C157.193 75.8741 157.35 75.1075 157.664 74.506C157.983 73.8991 158.412 73.452 158.95 73.1645C159.487 72.8717 160.091 72.7253 160.762 72.7253C161.236 72.7253 161.659 72.7945 162.032 72.9329C162.41 73.0713 162.737 73.2683 163.014 73.5238C163.291 73.774 163.52 74.0721 163.701 74.4182C163.882 74.7589 164.015 75.1342 164.1 75.5441C164.19 75.954 164.236 76.3825 164.236 76.8296V81.5488H163.309ZM156.993 81.5488V72.9249H157.832V74.8653H157.92V81.5488H156.993ZM169.794 81.7884C168.932 81.7884 168.205 81.5967 167.614 81.2135C167.023 80.8248 166.574 80.2898 166.265 79.6085C165.961 78.9217 165.804 78.1312 165.794 77.2369C165.804 76.3266 165.964 75.5307 166.273 74.8494C166.587 74.1626 167.039 73.6303 167.63 73.2523C168.221 72.8744 168.945 72.6854 169.802 72.6854C170.638 72.6854 171.373 72.8877 172.006 73.2923C172.645 73.6915 173.087 74.2425 173.332 74.9452L172.437 75.2726C172.219 74.7349 171.876 74.3197 171.407 74.0269C170.939 73.7288 170.401 73.5797 169.794 73.5797C169.113 73.5797 168.551 73.7368 168.109 74.0508C167.668 74.3596 167.337 74.7881 167.119 75.3364C166.901 75.8847 166.787 76.5182 166.776 77.2369C166.792 78.3388 167.05 79.2252 167.55 79.8959C168.056 80.5613 168.804 80.8941 169.794 80.8941C170.406 80.8941 170.936 80.753 171.383 80.4708C171.836 80.1887 172.182 79.7788 172.421 79.2411L173.332 79.5526C172.996 80.2819 172.528 80.8382 171.926 81.2214C171.325 81.5994 170.614 81.7884 169.794 81.7884ZM178.326 81.7884C177.501 81.7884 176.787 81.6047 176.186 81.2374C175.584 80.8648 175.119 80.3404 174.788 79.6644C174.458 78.983 174.293 78.1791 174.293 77.2529C174.293 76.3106 174.456 75.4988 174.781 74.8174C175.111 74.1307 175.574 73.6037 176.17 73.2364C176.771 72.8691 177.485 72.6854 178.31 72.6854C179.146 72.6854 179.859 72.877 180.45 73.2603C181.046 73.6383 181.499 74.1866 181.807 74.9052C182.121 75.6239 182.271 76.489 182.255 77.5004H181.296V77.181C181.27 75.9992 181.004 75.0995 180.498 74.482C179.992 73.8645 179.268 73.5558 178.326 73.5558C177.352 73.5558 176.598 73.8778 176.066 74.522C175.539 75.1608 175.276 76.0657 175.276 77.2369C175.276 78.3974 175.539 79.297 176.066 79.9358C176.598 80.5746 177.346 80.8941 178.31 80.8941C178.975 80.8941 179.556 80.7397 180.051 80.4309C180.551 80.1168 180.948 79.6697 181.24 79.0894L182.071 79.4567C181.725 80.202 181.224 80.7769 180.57 81.1815C179.915 81.5861 179.167 81.7884 178.326 81.7884ZM174.924 77.5004V76.6699H181.736V77.5004H174.924Z" fill="black"/>
<path d="M61.5062 149.16V145.423H64.8439V149.16H61.5062ZM61.5062 123.56V119.807H64.8439V123.56H61.5062ZM63.3427 146.461C61.7457 146.461 60.3191 146.173 59.0627 145.598C57.8064 145.023 56.7737 144.209 55.9645 143.155C55.166 142.09 54.6443 140.834 54.3995 139.386L57.7053 138.859C58.0247 140.222 58.7061 141.308 59.7495 142.117C60.7928 142.915 62.0438 143.315 63.5024 143.315C64.9504 143.315 66.1269 142.969 67.0319 142.277C67.9475 141.585 68.4053 140.701 68.4053 139.626C68.4053 138.859 68.1711 138.236 67.7026 137.757C67.2448 137.278 66.4942 136.873 65.4508 136.543L60.0529 134.882C56.8589 133.892 55.2619 131.976 55.2619 129.133C55.2619 127.792 55.5813 126.626 56.2201 125.636C56.8695 124.646 57.7798 123.879 58.951 123.336C60.1221 122.793 61.4902 122.522 63.0553 122.522C64.5565 122.543 65.8873 122.82 67.0478 123.352C68.219 123.884 69.1878 124.651 69.9544 125.652C70.7316 126.652 71.2693 127.856 71.5674 129.261L68.1657 129.868C68.0167 129.048 67.7026 128.324 67.2235 127.696C66.755 127.068 66.1588 126.578 65.4348 126.227C64.7215 125.875 63.9177 125.694 63.0233 125.684C62.1822 125.662 61.4263 125.795 60.7556 126.083C60.0955 126.36 59.5685 126.754 59.1745 127.265C58.7913 127.765 58.5996 128.335 58.5996 128.973C58.5996 129.676 58.8711 130.272 59.4141 130.762C59.9571 131.252 60.8141 131.672 61.9853 132.024L66.2174 133.253C68.1551 133.828 69.5551 134.6 70.4175 135.569C71.2799 136.538 71.7111 137.826 71.7111 139.434C71.7111 140.839 71.3598 142.069 70.6571 143.123C69.965 144.166 68.9909 144.986 67.7345 145.582C66.4782 146.168 65.0143 146.461 63.3427 146.461ZM79.1287 145.982V126.658L74.8008 129.293V125.572L79.1287 122.985H82.5304V145.982H79.1287ZM86.9968 149.799L87.2044 148.313C87.6622 148.345 88.0189 148.26 88.2744 148.058C88.5299 147.856 88.7003 147.573 88.7854 147.211C88.8706 146.849 88.8866 146.44 88.8333 145.982H86.9968V142.133H90.5262V146.301C90.5262 147.557 90.2228 148.505 89.6159 149.144C89.0197 149.783 88.1466 150.001 86.9968 149.799ZM103.016 146.413C101.877 146.413 100.807 146.2 99.8061 145.774C98.8053 145.338 97.9376 144.72 97.203 143.922C96.479 143.123 95.952 142.181 95.6219 141.095L98.8479 140.2C99.1566 141.191 99.6943 141.952 100.461 142.484C101.227 143.006 102.079 143.261 103.016 143.251C103.857 143.24 104.597 143.043 105.236 142.66C105.875 142.277 106.375 141.76 106.737 141.111C107.099 140.451 107.28 139.695 107.28 138.843C107.28 137.565 106.881 136.511 106.082 135.681C105.294 134.85 104.262 134.435 102.984 134.435C102.622 134.435 102.25 134.489 101.866 134.595C101.494 134.701 101.142 134.84 100.812 135.01L99.2471 132.375L107.36 125.205L107.711 126.163H96.5322V122.985H110.362V126.163L103.623 132.647L103.591 131.561C105.039 131.561 106.295 131.885 107.36 132.535C108.425 133.174 109.244 134.047 109.819 135.154C110.405 136.251 110.698 137.48 110.698 138.843C110.698 140.312 110.352 141.617 109.66 142.756C108.978 143.895 108.057 144.789 106.897 145.439C105.747 146.088 104.453 146.413 103.016 146.413ZM124.6 145.982V141.973H114.22V138.811L121.694 122.985H125.511L118.037 138.811H124.6V132.583H127.986V138.811H130.27V141.973H127.986V145.982H124.6ZM140.923 146.461C139.741 146.461 138.639 146.221 137.617 145.742C136.606 145.252 135.738 144.582 135.014 143.73C134.29 142.868 133.774 141.877 133.465 140.759L136.675 139.897C136.856 140.578 137.165 141.169 137.601 141.67C138.048 142.17 138.57 142.559 139.166 142.836C139.762 143.102 140.38 143.235 141.019 143.235C141.86 143.235 142.621 143.033 143.303 142.628C143.995 142.223 144.538 141.68 144.931 140.999C145.336 140.318 145.538 139.567 145.538 138.747C145.538 137.906 145.331 137.145 144.916 136.463C144.511 135.782 143.963 135.244 143.271 134.85C142.589 134.446 141.839 134.244 141.019 134.244C140.082 134.244 139.289 134.43 138.639 134.803C137.99 135.175 137.484 135.606 137.122 136.096L134.216 135.074L134.918 122.985H147.327V126.131H136.627L137.984 124.869L137.426 133.924L136.771 133.078C137.378 132.471 138.102 132.008 138.943 131.688C139.784 131.369 140.62 131.209 141.45 131.209C142.877 131.209 144.149 131.539 145.267 132.199C146.395 132.86 147.284 133.759 147.934 134.898C148.583 136.027 148.908 137.31 148.908 138.747C148.908 140.174 148.541 141.473 147.806 142.644C147.071 143.804 146.097 144.731 144.884 145.423C143.67 146.115 142.35 146.461 140.923 146.461Z" fill="#070707"/>
<path d="M57.3699 183.033V181.165H59.0388V183.033H57.3699ZM57.3699 170.233V168.357H59.0388V170.233H57.3699ZM58.2882 181.684C57.4897 181.684 56.7764 181.54 56.1482 181.253C55.52 180.965 55.0037 180.558 54.5991 180.031C54.1998 179.499 53.939 178.87 53.8166 178.147L55.4695 177.883C55.6292 178.564 55.9699 179.107 56.4916 179.512C57.0132 179.911 57.6387 180.111 58.368 180.111C59.092 180.111 59.6803 179.938 60.1327 179.592C60.5906 179.246 60.8195 178.804 60.8195 178.266C60.8195 177.883 60.7023 177.572 60.4681 177.332C60.2392 177.092 59.8639 176.89 59.3422 176.725L56.6433 175.895C55.0463 175.4 54.2477 174.441 54.2477 173.02C54.2477 172.349 54.4074 171.766 54.7269 171.271C55.0516 170.776 55.5067 170.393 56.0923 170.122C56.6779 169.85 57.3619 169.714 58.1445 169.714C58.8951 169.725 59.5605 169.863 60.1407 170.129C60.7263 170.396 61.2107 170.779 61.594 171.279C61.9826 171.78 62.2515 172.381 62.4005 173.084L60.6997 173.387C60.6252 172.977 60.4681 172.616 60.2286 172.301C59.9943 171.987 59.6962 171.742 59.3342 171.567C58.9776 171.391 58.5757 171.301 58.1285 171.295C57.7079 171.285 57.33 171.351 56.9946 171.495C56.6646 171.633 56.4011 171.83 56.2041 172.086C56.0124 172.336 55.9166 172.621 55.9166 172.94C55.9166 173.292 56.0524 173.59 56.3239 173.835C56.5954 174.079 57.0239 174.29 57.6095 174.465L59.7255 175.08C60.6944 175.368 61.3944 175.754 61.8256 176.238C62.2568 176.722 62.4724 177.367 62.4724 178.17C62.4724 178.873 62.2967 179.488 61.9454 180.015C61.5993 180.537 61.1122 180.947 60.4841 181.245C59.8559 181.537 59.124 181.684 58.2882 181.684ZM66.1812 181.444V171.782L64.0172 173.1V171.239L66.1812 169.946H67.882V181.444H66.1812ZM70.1152 183.353L70.219 182.61C70.4479 182.626 70.6263 182.584 70.754 182.482C70.8818 182.381 70.967 182.24 71.0095 182.059C71.0521 181.878 71.0601 181.673 71.0335 181.444H70.1152V179.52H71.8799V181.604C71.8799 182.232 71.7282 182.706 71.4248 183.025C71.1267 183.345 70.6901 183.454 70.1152 183.353ZM78.1249 181.66C77.5553 181.66 77.0203 181.553 76.5199 181.341C76.0195 181.122 75.5856 180.814 75.2183 180.414C74.8563 180.015 74.5928 179.544 74.4278 179.001L76.0408 178.554C76.1951 179.049 76.464 179.429 76.8473 179.696C77.2305 179.956 77.6564 180.084 78.1249 180.079C78.5454 180.074 78.9154 179.975 79.2348 179.783C79.5542 179.592 79.8044 179.334 79.9854 179.009C80.1664 178.679 80.2569 178.301 80.2569 177.875C80.2569 177.236 80.0573 176.709 79.658 176.294C79.2641 175.879 78.7477 175.671 78.1089 175.671C77.9279 175.671 77.7416 175.698 77.5499 175.751C77.3636 175.804 77.188 175.873 77.0229 175.959L76.2404 174.641L80.2968 171.056L80.4725 171.535H74.8829V169.946H81.798V171.535L78.4283 174.777L78.4123 174.234C79.1363 174.234 79.7645 174.396 80.2968 174.721C80.8291 175.04 81.239 175.477 81.5265 176.03C81.8193 176.579 81.9657 177.194 81.9657 177.875C81.9657 178.61 81.7927 179.262 81.4467 179.831C81.106 180.401 80.6455 180.848 80.0652 181.173C79.4903 181.498 78.8435 181.66 78.1249 181.66ZM88.9169 181.444V179.44H83.7266V177.859L87.4637 169.946H89.3721L85.6351 177.859H88.9169V174.745H90.6098V177.859H91.7516V179.44H90.6098V181.444H88.9169ZM97.0783 181.684C96.4874 181.684 95.9364 181.564 95.4254 181.325C94.9197 181.08 94.4858 180.744 94.1238 180.318C93.7618 179.887 93.5037 179.392 93.3493 178.833L94.9543 178.402C95.0448 178.743 95.1992 179.038 95.4174 179.288C95.641 179.539 95.9018 179.733 96.2 179.871C96.4981 180.004 96.8068 180.071 97.1262 180.071C97.5468 180.071 97.9274 179.97 98.2681 179.767C98.6141 179.565 98.8856 179.294 99.0826 178.953C99.2849 178.612 99.386 178.237 99.386 177.827C99.386 177.407 99.2822 177.026 99.0746 176.685C98.8723 176.345 98.5981 176.076 98.2521 175.879C97.9114 175.676 97.5361 175.575 97.1262 175.575C96.6578 175.575 96.2612 175.668 95.9364 175.855C95.6117 176.041 95.3589 176.257 95.1779 176.502L93.7246 175.991L94.0759 169.946H100.28V171.519H94.9303L95.6091 170.888L95.3296 175.416L95.0022 174.992C95.3056 174.689 95.6676 174.457 96.0882 174.298C96.5087 174.138 96.9266 174.058 97.3418 174.058C98.0552 174.058 98.6913 174.223 99.2503 174.553C99.8145 174.883 100.259 175.333 100.584 175.903C100.908 176.467 101.071 177.108 101.071 177.827C101.071 178.54 100.887 179.19 100.52 179.775C100.153 180.356 99.6655 180.819 99.0586 181.165C98.4517 181.511 97.7916 181.684 97.0783 181.684ZM111.111 181.444C110.568 181.551 110.036 181.596 109.514 181.58C108.993 181.564 108.527 181.463 108.117 181.277C107.707 181.09 107.398 180.798 107.191 180.398C107.004 180.042 106.903 179.68 106.887 179.312C106.877 178.94 106.871 178.519 106.871 178.051V170.425H108.548V177.971C108.548 178.317 108.551 178.618 108.556 178.873C108.567 179.129 108.623 179.344 108.724 179.52C108.915 179.85 109.219 180.039 109.634 180.087C110.055 180.129 110.547 180.111 111.111 180.031V181.444ZM105.218 174.162V172.82H111.111V174.162H105.218ZM118.982 181.444V177.204C118.982 176.869 118.953 176.526 118.894 176.174C118.841 175.818 118.735 175.487 118.575 175.184C118.421 174.881 118.2 174.636 117.912 174.449C117.63 174.263 117.26 174.17 116.802 174.17C116.504 174.17 116.222 174.221 115.956 174.322C115.69 174.417 115.456 174.575 115.253 174.793C115.056 175.011 114.899 175.298 114.782 175.655C114.67 176.012 114.614 176.446 114.614 176.957L113.576 176.565C113.576 175.783 113.723 175.094 114.016 174.497C114.308 173.896 114.729 173.427 115.277 173.092C115.825 172.757 116.488 172.589 117.265 172.589C117.862 172.589 118.362 172.685 118.767 172.876C119.171 173.068 119.499 173.321 119.749 173.635C120.004 173.944 120.199 174.282 120.332 174.649C120.465 175.016 120.555 175.376 120.603 175.727C120.651 176.078 120.675 176.387 120.675 176.653V181.444H118.982ZM112.922 181.444V169.946H114.415V176.15H114.614V181.444H112.922ZM122.915 171.407V169.786H124.584V171.407H122.915ZM122.915 181.444V172.82H124.584V181.444H122.915ZM130.279 181.676C129.231 181.676 128.376 181.444 127.716 180.981C127.056 180.518 126.651 179.866 126.502 179.025L128.211 178.761C128.318 179.209 128.562 179.563 128.946 179.823C129.334 180.079 129.816 180.207 130.391 180.207C130.913 180.207 131.32 180.1 131.613 179.887C131.911 179.674 132.06 179.382 132.06 179.009C132.06 178.791 132.007 178.615 131.9 178.482C131.799 178.343 131.583 178.213 131.253 178.091C130.923 177.968 130.42 177.816 129.744 177.635C129.004 177.444 128.416 177.239 127.98 177.021C127.548 176.797 127.24 176.539 127.053 176.246C126.872 175.948 126.782 175.589 126.782 175.168C126.782 174.646 126.92 174.191 127.197 173.803C127.474 173.414 127.862 173.113 128.363 172.9C128.869 172.687 129.459 172.581 130.136 172.581C130.796 172.581 131.384 172.685 131.9 172.892C132.417 173.1 132.834 173.395 133.154 173.779C133.473 174.157 133.665 174.601 133.729 175.112L132.02 175.424C131.961 175.008 131.767 174.681 131.437 174.441C131.107 174.202 130.679 174.071 130.151 174.05C129.646 174.029 129.236 174.114 128.922 174.306C128.608 174.492 128.451 174.75 128.451 175.08C128.451 175.272 128.509 175.434 128.626 175.567C128.749 175.7 128.983 175.828 129.329 175.951C129.675 176.073 130.186 176.219 130.862 176.39C131.586 176.576 132.161 176.784 132.587 177.013C133.013 177.236 133.316 177.505 133.497 177.819C133.684 178.128 133.777 178.503 133.777 178.945C133.777 179.797 133.465 180.465 132.842 180.949C132.225 181.434 131.371 181.676 130.279 181.676ZM140.577 181.444L137.942 172.812L139.595 172.82L141.4 178.737L143.22 172.82H144.658L146.478 178.737L148.283 172.82H149.928L147.293 181.444H145.951L143.939 175.2L141.919 181.444H140.577ZM154.871 181.684C154.014 181.684 153.26 181.498 152.611 181.125C151.967 180.747 151.464 180.223 151.102 179.552C150.745 178.876 150.567 178.093 150.567 177.204C150.567 176.262 150.742 175.445 151.094 174.753C151.45 174.061 151.945 173.526 152.579 173.148C153.212 172.77 153.95 172.581 154.791 172.581C155.669 172.581 156.417 172.786 157.035 173.196C157.652 173.6 158.113 174.178 158.416 174.929C158.725 175.679 158.847 176.571 158.783 177.604H157.114V176.997C157.104 175.996 156.912 175.256 156.54 174.777C156.172 174.298 155.611 174.058 154.855 174.058C154.019 174.058 153.391 174.322 152.97 174.849C152.55 175.376 152.339 176.137 152.339 177.132C152.339 178.08 152.55 178.815 152.97 179.336C153.391 179.853 153.998 180.111 154.791 180.111C155.313 180.111 155.762 179.994 156.14 179.759C156.524 179.52 156.822 179.179 157.035 178.737L158.672 179.256C158.336 180.028 157.828 180.627 157.146 181.053C156.465 181.474 155.706 181.684 154.871 181.684ZM151.796 177.604V176.302H157.953V177.604H151.796ZM164.4 181.684C163.543 181.684 162.789 181.498 162.14 181.125C161.496 180.747 160.993 180.223 160.631 179.552C160.274 178.876 160.096 178.093 160.096 177.204C160.096 176.262 160.271 175.445 160.623 174.753C160.979 174.061 161.475 173.526 162.108 173.148C162.741 172.77 163.479 172.581 164.32 172.581C165.198 172.581 165.946 172.786 166.564 173.196C167.181 173.6 167.642 174.178 167.945 174.929C168.254 175.679 168.376 176.571 168.312 177.604H166.644V176.997C166.633 175.996 166.441 175.256 166.069 174.777C165.701 174.298 165.14 174.058 164.384 174.058C163.548 174.058 162.92 174.322 162.499 174.849C162.079 175.376 161.868 176.137 161.868 177.132C161.868 178.08 162.079 178.815 162.499 179.336C162.92 179.853 163.527 180.111 164.32 180.111C164.842 180.111 165.291 179.994 165.669 179.759C166.053 179.52 166.351 179.179 166.564 178.737L168.201 179.256C167.865 180.028 167.357 180.627 166.675 181.053C165.994 181.474 165.235 181.684 164.4 181.684ZM161.325 177.604V176.302H167.482V177.604H161.325ZM170.096 181.444L170.104 169.946H171.797V176.973L175.182 172.82H177.306L173.729 177.132L177.674 181.444H175.406L171.797 177.292V181.444H170.096Z" fill="black"/>
<path d="M186.56 175.785C186.56 175.391 186.655 175.114 186.847 174.954C187.039 174.795 187.268 174.715 187.534 174.715C187.811 174.715 188.045 174.795 188.236 174.954C188.439 175.114 188.54 175.391 188.54 175.785C188.54 176.168 188.439 176.445 188.236 176.615C188.045 176.786 187.811 176.871 187.534 176.871C187.268 176.871 187.039 176.786 186.847 176.615C186.655 176.445 186.56 176.168 186.56 175.785Z" fill="black"/>
<path d="M201.002 183.033V181.165H202.671V183.033H201.002ZM201.002 170.233V168.357H202.671V170.233H201.002ZM201.92 181.684C201.122 181.684 200.408 181.54 199.78 181.253C199.152 180.965 198.636 180.558 198.231 180.031C197.832 179.499 197.571 178.87 197.448 178.147L199.101 177.883C199.261 178.564 199.602 179.107 200.123 179.512C200.645 179.911 201.271 180.111 202 180.111C202.724 180.111 203.312 179.938 203.765 179.592C204.222 179.246 204.451 178.804 204.451 178.266C204.451 177.883 204.334 177.572 204.1 177.332C203.871 177.092 203.496 176.89 202.974 176.725L200.275 175.895C198.678 175.4 197.88 174.441 197.88 173.02C197.88 172.349 198.039 171.766 198.359 171.271C198.683 170.776 199.139 170.393 199.724 170.122C200.31 169.85 200.994 169.714 201.776 169.714C202.527 169.725 203.192 169.863 203.773 170.129C204.358 170.396 204.843 170.779 205.226 171.279C205.614 171.78 205.883 172.381 206.032 173.084L204.332 173.387C204.257 172.977 204.1 172.616 203.86 172.301C203.626 171.987 203.328 171.742 202.966 171.567C202.609 171.391 202.207 171.301 201.76 171.295C201.34 171.285 200.962 171.351 200.626 171.495C200.296 171.633 200.033 171.83 199.836 172.086C199.644 172.336 199.548 172.621 199.548 172.94C199.548 173.292 199.684 173.59 199.956 173.835C200.227 174.079 200.656 174.29 201.241 174.465L203.357 175.08C204.326 175.368 205.026 175.754 205.457 176.238C205.889 176.722 206.104 177.367 206.104 178.17C206.104 178.873 205.929 179.488 205.577 180.015C205.231 180.537 204.744 180.947 204.116 181.245C203.488 181.537 202.756 181.684 201.92 181.684ZM211.027 181.66C210.457 181.66 209.922 181.553 209.422 181.341C208.921 181.122 208.488 180.814 208.12 180.414C207.758 180.015 207.495 179.544 207.33 179.001L208.943 178.554C209.097 179.049 209.366 179.429 209.749 179.696C210.132 179.956 210.558 180.084 211.027 180.079C211.447 180.074 211.817 179.975 212.137 179.783C212.456 179.592 212.706 179.334 212.887 179.009C213.068 178.679 213.159 178.301 213.159 177.875C213.159 177.236 212.959 176.709 212.56 176.294C212.166 175.879 211.65 175.671 211.011 175.671C210.83 175.671 210.643 175.698 210.452 175.751C210.266 175.804 210.09 175.873 209.925 175.959L209.142 174.641L213.199 171.056L213.374 171.535H207.785V169.946H214.7V171.535L211.33 174.777L211.314 174.234C212.038 174.234 212.666 174.396 213.199 174.721C213.731 175.04 214.141 175.477 214.428 176.03C214.721 176.579 214.868 177.194 214.868 177.875C214.868 178.61 214.695 179.262 214.349 179.831C214.008 180.401 213.547 180.848 212.967 181.173C212.392 181.498 211.745 181.66 211.027 181.66ZM220.956 181.684C220.174 181.684 219.482 181.514 218.88 181.173C218.279 180.827 217.805 180.353 217.459 179.752C217.118 179.15 216.948 178.458 216.948 177.675V173.715C216.948 172.932 217.118 172.24 217.459 171.639C217.805 171.037 218.279 170.566 218.88 170.225C219.482 169.879 220.174 169.706 220.956 169.706C221.739 169.706 222.431 169.879 223.033 170.225C223.634 170.566 224.105 171.037 224.446 171.639C224.792 172.24 224.965 172.932 224.965 173.715V177.675C224.965 178.458 224.792 179.15 224.446 179.752C224.105 180.353 223.634 180.827 223.033 181.173C222.431 181.514 221.739 181.684 220.956 181.684ZM220.956 180.087C221.382 180.087 221.768 179.986 222.114 179.783C222.466 179.576 222.745 179.299 222.953 178.953C223.16 178.602 223.264 178.21 223.264 177.779V173.595C223.264 173.169 223.16 172.783 222.953 172.437C222.745 172.086 222.466 171.809 222.114 171.607C221.768 171.399 221.382 171.295 220.956 171.295C220.531 171.295 220.142 171.399 219.791 171.607C219.445 171.809 219.168 172.086 218.96 172.437C218.753 172.783 218.649 173.169 218.649 173.595V177.779C218.649 178.21 218.753 178.602 218.96 178.953C219.168 179.299 219.445 179.576 219.791 179.783C220.142 179.986 220.531 180.087 220.956 180.087ZM232.065 181.444V179.44H226.875V177.859L230.612 169.946H232.52L228.783 177.859H232.065V174.745H233.758V177.859H234.9V179.44H233.758V181.444H232.065ZM244.949 181.444C244.406 181.551 243.874 181.596 243.352 181.58C242.83 181.564 242.364 181.463 241.955 181.277C241.545 181.09 241.236 180.798 241.028 180.398C240.842 180.042 240.741 179.68 240.725 179.312C240.714 178.94 240.709 178.519 240.709 178.051V170.425H242.386V177.971C242.386 178.317 242.388 178.618 242.394 178.873C242.404 179.129 242.46 179.344 242.561 179.52C242.753 179.85 243.057 180.039 243.472 180.087C243.892 180.129 244.385 180.111 244.949 180.031V181.444ZM239.056 174.162V172.82H244.949V174.162H239.056ZM250.122 181.684C249.26 181.684 248.512 181.49 247.878 181.101C247.245 180.712 246.755 180.177 246.409 179.496C246.069 178.809 245.898 178.019 245.898 177.124C245.898 176.225 246.074 175.434 246.425 174.753C246.777 174.066 247.269 173.534 247.902 173.156C248.536 172.773 249.276 172.581 250.122 172.581C250.985 172.581 251.733 172.775 252.366 173.164C253 173.552 253.489 174.087 253.835 174.769C254.181 175.45 254.354 176.235 254.354 177.124C254.354 178.024 254.179 178.817 253.827 179.504C253.481 180.185 252.992 180.72 252.358 181.109C251.725 181.492 250.979 181.684 250.122 181.684ZM250.122 180.111C250.947 180.111 251.562 179.834 251.967 179.28C252.377 178.721 252.582 178.003 252.582 177.124C252.582 176.225 252.374 175.506 251.959 174.968C251.549 174.425 250.937 174.154 250.122 174.154C249.563 174.154 249.103 174.282 248.741 174.537C248.379 174.787 248.11 175.136 247.934 175.583C247.759 176.025 247.671 176.539 247.671 177.124C247.671 178.029 247.879 178.753 248.294 179.296C248.709 179.839 249.318 180.111 250.122 180.111ZM259.535 181.684C258.731 181.684 258.036 181.484 257.451 181.085C256.87 180.686 256.421 180.143 256.101 179.456C255.787 178.764 255.63 177.987 255.63 177.124C255.63 176.257 255.79 175.482 256.109 174.801C256.429 174.114 256.881 173.574 257.467 173.18C258.057 172.781 258.757 172.581 259.567 172.581C260.381 172.581 261.065 172.781 261.619 173.18C262.178 173.574 262.598 174.114 262.88 174.801C263.168 175.487 263.312 176.262 263.312 177.124C263.312 177.987 263.168 178.761 262.88 179.448C262.593 180.135 262.17 180.68 261.611 181.085C261.052 181.484 260.36 181.684 259.535 181.684ZM259.766 180.175C260.315 180.175 260.762 180.044 261.108 179.783C261.454 179.523 261.707 179.163 261.866 178.705C262.026 178.248 262.106 177.721 262.106 177.124C262.106 176.528 262.023 176.001 261.858 175.543C261.699 175.086 261.448 174.729 261.108 174.473C260.772 174.218 260.344 174.09 259.822 174.09C259.269 174.09 258.813 174.226 258.457 174.497C258.1 174.769 257.834 175.133 257.658 175.591C257.488 176.049 257.403 176.56 257.403 177.124C257.403 177.694 257.488 178.21 257.658 178.674C257.834 179.131 258.095 179.496 258.441 179.767C258.792 180.039 259.234 180.175 259.766 180.175ZM262.106 181.444V175.24H261.914V169.946H263.591V181.444H262.106ZM268.261 181.684C267.622 181.684 267.087 181.567 266.656 181.333C266.225 181.093 265.897 180.779 265.674 180.39C265.455 179.996 265.346 179.565 265.346 179.097C265.346 178.66 265.423 178.277 265.578 177.947C265.732 177.617 265.961 177.337 266.265 177.108C266.568 176.874 266.941 176.685 267.382 176.542C267.766 176.43 268.2 176.331 268.684 176.246C269.168 176.161 269.677 176.081 270.209 176.007C270.747 175.932 271.279 175.857 271.806 175.783L271.199 176.118C271.21 175.442 271.066 174.942 270.768 174.617C270.475 174.287 269.97 174.122 269.251 174.122C268.798 174.122 268.383 174.228 268.005 174.441C267.627 174.649 267.364 174.995 267.215 175.479L265.658 175C265.871 174.26 266.275 173.672 266.871 173.236C267.473 172.799 268.271 172.581 269.267 172.581C270.039 172.581 270.71 172.714 271.279 172.98C271.854 173.241 272.275 173.656 272.541 174.226C272.679 174.508 272.764 174.806 272.796 175.12C272.828 175.434 272.844 175.772 272.844 176.134V181.444H271.367V179.472L271.654 179.728C271.298 180.388 270.843 180.88 270.289 181.205C269.741 181.524 269.065 181.684 268.261 181.684ZM268.556 180.318C269.03 180.318 269.437 180.236 269.778 180.071C270.119 179.901 270.393 179.685 270.6 179.424C270.808 179.163 270.944 178.892 271.008 178.61C271.098 178.354 271.149 178.067 271.159 177.747C271.175 177.428 271.183 177.172 271.183 176.981L271.726 177.18C271.199 177.26 270.72 177.332 270.289 177.396C269.858 177.46 269.467 177.524 269.115 177.588C268.769 177.646 268.46 177.718 268.189 177.803C267.96 177.883 267.755 177.979 267.574 178.091C267.398 178.202 267.257 178.338 267.151 178.498C267.05 178.658 266.999 178.852 266.999 179.081C266.999 179.304 267.055 179.512 267.167 179.704C267.279 179.89 267.449 180.039 267.678 180.151C267.907 180.263 268.2 180.318 268.556 180.318ZM275.6 185.277L277.269 180.734L277.293 182.075L273.532 172.82H275.273L278.083 179.967H277.572L280.255 172.82H281.948L277.189 185.277H275.6Z" fill="black"/>
<path d="M54.3516 215.907V204.409H58.6874C58.7992 204.409 58.919 204.414 59.0468 204.425C59.1799 204.43 59.3183 204.446 59.462 204.472C60.0369 204.563 60.5293 204.771 60.9392 205.095C61.3545 205.415 61.6712 205.819 61.8895 206.309C62.1077 206.793 62.2169 207.328 62.2169 207.914C62.2169 208.505 62.1077 209.045 61.8895 209.535C61.6712 210.019 61.3545 210.424 60.9392 210.749C60.5293 211.068 60.0369 211.273 59.462 211.364C59.3183 211.385 59.1799 211.401 59.0468 211.412C58.919 211.422 58.7992 211.427 58.6874 211.427H55.2698V215.907H54.3516ZM55.2698 210.525H58.6715C58.7673 210.525 58.8764 210.52 58.9989 210.509C59.1266 210.499 59.2544 210.483 59.3821 210.461C59.7974 210.376 60.1434 210.208 60.4202 209.958C60.697 209.703 60.9046 209.397 61.043 209.04C61.1815 208.683 61.2507 208.308 61.2507 207.914C61.2507 207.52 61.1815 207.147 61.043 206.796C60.9046 206.439 60.697 206.136 60.4202 205.886C60.1434 205.63 59.7974 205.46 59.3821 205.375C59.2544 205.348 59.1266 205.33 58.9989 205.319C58.8764 205.308 58.7673 205.303 58.6715 205.303H55.2698V210.525ZM65.8729 216.147C65.2075 216.147 64.6538 216.03 64.212 215.795C63.7755 215.561 63.4481 215.252 63.2298 214.869C63.0116 214.48 62.9024 214.06 62.9024 213.607C62.9024 213.118 63.0036 212.708 63.2059 212.378C63.4135 212.048 63.6876 211.781 64.0283 211.579C64.3744 211.377 64.755 211.225 65.1702 211.124C65.644 211.018 66.155 210.927 66.7033 210.853C67.2516 210.773 67.7733 210.703 68.2684 210.645C68.7688 210.586 69.1761 210.536 69.4901 210.493L69.1548 210.693C69.1761 209.761 69.0004 209.069 68.6277 208.617C68.2604 208.159 67.611 207.93 66.6794 207.93C66.0246 207.93 65.4843 208.079 65.0584 208.377C64.6379 208.67 64.3424 209.125 64.1721 209.743L63.2298 209.479C63.4268 208.697 63.8234 208.095 64.4196 207.674C65.0158 207.254 65.7797 207.044 66.7113 207.044C67.5045 207.044 68.1699 207.198 68.7076 207.507C69.2506 207.816 69.6285 208.249 69.8415 208.808C69.932 209.037 69.9932 209.306 70.0251 209.615C70.0571 209.918 70.073 210.224 70.073 210.533V215.907H69.2346V213.639L69.546 213.719C69.2852 214.496 68.83 215.095 68.1806 215.516C67.5311 215.936 66.7619 216.147 65.8729 216.147ZM65.9208 215.3C66.5064 215.3 67.0201 215.196 67.4619 214.989C67.9038 214.776 68.2604 214.48 68.5319 214.102C68.8087 213.719 68.9844 213.269 69.0589 212.753C69.1122 212.466 69.1414 212.154 69.1468 211.819C69.1521 211.483 69.1548 211.236 69.1548 211.076L69.554 211.332C69.208 211.374 68.7928 211.419 68.3083 211.467C67.8292 211.515 67.3395 211.574 66.8391 211.643C66.3387 211.712 65.8862 211.8 65.4816 211.907C65.2314 211.976 64.9786 212.077 64.723 212.21C64.4728 212.338 64.2626 212.516 64.0922 212.745C63.9272 212.974 63.8447 213.264 63.8447 213.615C63.8447 213.876 63.9086 214.137 64.0363 214.398C64.1694 214.659 64.3877 214.874 64.6911 215.045C64.9945 215.215 65.4044 215.3 65.9208 215.3ZM72.9246 219.74L74.6015 215.228L74.6174 216.57L70.8405 207.283H71.8226L75.0646 215.348H74.5535L77.5 207.283H78.4662L73.8828 219.74H72.9246ZM83.1386 216.147C82.2816 216.147 81.5549 215.952 80.9587 215.564C80.3625 215.175 79.9073 214.637 79.5932 213.951C79.2792 213.264 79.1221 212.474 79.1221 211.579C79.1221 210.68 79.2818 209.889 79.6012 209.208C79.9206 208.521 80.3784 207.989 80.9747 207.611C81.5762 207.233 82.2975 207.044 83.1386 207.044C83.9957 207.044 84.7223 207.238 85.3185 207.627C85.9201 208.01 86.3752 208.542 86.684 209.224C86.9981 209.905 87.1551 210.69 87.1551 211.579C87.1551 212.489 86.9981 213.288 86.684 213.975C86.3699 214.656 85.9121 215.188 85.3106 215.572C84.709 215.955 83.985 216.147 83.1386 216.147ZM83.1386 215.252C84.1554 215.252 84.914 214.912 85.4144 214.23C85.9201 213.549 86.1729 212.665 86.1729 211.579C86.1729 210.472 85.9201 209.588 85.4144 208.928C84.9086 208.268 84.1501 207.938 83.1386 207.938C82.4519 207.938 81.885 208.095 81.4378 208.409C80.9906 208.718 80.6553 209.146 80.4317 209.695C80.2134 210.238 80.1043 210.866 80.1043 211.579C80.1043 212.686 80.3598 213.575 80.8709 214.246C81.3872 214.917 82.1431 215.252 83.1386 215.252ZM92.2258 216.107C91.752 216.107 91.3261 216.038 90.9481 215.899C90.5755 215.761 90.2508 215.566 89.974 215.316C89.6972 215.061 89.4682 214.763 89.2872 214.422C89.1063 214.076 88.9705 213.698 88.88 213.288C88.7948 212.878 88.7522 212.45 88.7522 212.002V207.283H89.6785V211.771C89.6785 212.314 89.7318 212.798 89.8382 213.224C89.95 213.65 90.115 214.012 90.3333 214.31C90.5569 214.608 90.8337 214.834 91.1637 214.989C91.4991 215.143 91.893 215.22 92.3455 215.22C92.814 215.22 93.2186 215.141 93.5593 214.981C93.9053 214.816 94.1874 214.587 94.4057 214.294C94.6293 214.001 94.7943 213.655 94.9008 213.256C95.0125 212.851 95.0684 212.412 95.0684 211.939L95.7951 212.026C95.7951 212.958 95.6354 213.727 95.316 214.334C95.0019 214.936 94.576 215.383 94.0384 215.676C93.5007 215.963 92.8965 216.107 92.2258 216.107ZM95.1563 215.907V213.967H95.0684V207.283H95.9947V215.907H95.1563ZM102.798 215.907C102.34 216.008 101.888 216.046 101.441 216.019C100.993 215.998 100.594 215.899 100.243 215.723C99.8969 215.542 99.636 215.266 99.4604 214.893C99.3166 214.59 99.2368 214.283 99.2208 213.975C99.2048 213.666 99.1969 213.312 99.1969 212.913V204.888H100.123V212.897C100.123 213.259 100.126 213.559 100.131 213.799C100.142 214.033 100.198 214.249 100.299 214.446C100.49 214.813 100.794 215.037 101.209 215.117C101.624 215.191 102.154 215.178 102.798 215.077V215.907ZM97.2645 208.122V207.283H102.798V208.122H97.2645ZM110.829 216.131C109.833 216.131 109.011 215.92 108.361 215.5C107.717 215.079 107.318 214.494 107.163 213.743L108.106 213.583C108.239 214.094 108.553 214.502 109.048 214.805C109.543 215.109 110.15 215.26 110.869 215.26C111.582 215.26 112.149 215.109 112.569 214.805C112.99 214.502 113.2 214.087 113.2 213.559C113.2 213.272 113.134 213.038 113.001 212.857C112.873 212.67 112.617 212.5 112.234 212.346C111.851 212.191 111.281 212.01 110.525 211.803C109.727 211.59 109.101 211.377 108.649 211.164C108.202 210.951 107.885 210.709 107.698 210.437C107.517 210.166 107.427 209.833 107.427 209.439C107.427 208.965 107.563 208.55 107.834 208.194C108.106 207.832 108.484 207.549 108.968 207.347C109.458 207.145 110.022 207.044 110.661 207.044C111.3 207.044 111.875 207.15 112.386 207.363C112.897 207.571 113.309 207.863 113.623 208.241C113.937 208.614 114.118 209.048 114.166 209.543L113.224 209.719C113.134 209.165 112.854 208.729 112.386 208.409C111.917 208.084 111.332 207.919 110.629 207.914C109.964 207.903 109.421 208.036 109 208.313C108.579 208.585 108.369 208.944 108.369 209.391C108.369 209.647 108.441 209.865 108.585 210.046C108.734 210.222 108.995 210.384 109.367 210.533C109.74 210.682 110.267 210.842 110.948 211.012C111.779 211.225 112.426 211.443 112.889 211.667C113.357 211.891 113.687 212.154 113.879 212.458C114.071 212.756 114.166 213.126 114.166 213.567C114.166 214.366 113.868 214.994 113.272 215.452C112.681 215.904 111.867 216.131 110.829 216.131ZM119.461 216.147C118.599 216.147 117.872 215.955 117.281 215.572C116.69 215.183 116.24 214.648 115.932 213.967C115.628 213.28 115.471 212.489 115.46 211.595C115.471 210.685 115.631 209.889 115.94 209.208C116.254 208.521 116.706 207.989 117.297 207.611C117.888 207.233 118.612 207.044 119.469 207.044C120.305 207.044 121.039 207.246 121.673 207.651C122.312 208.05 122.753 208.601 122.998 209.303L122.104 209.631C121.886 209.093 121.542 208.678 121.074 208.385C120.606 208.087 120.068 207.938 119.461 207.938C118.78 207.938 118.218 208.095 117.776 208.409C117.334 208.718 117.004 209.146 116.786 209.695C116.568 210.243 116.453 210.877 116.443 211.595C116.459 212.697 116.717 213.583 117.217 214.254C117.723 214.92 118.471 215.252 119.461 215.252C120.073 215.252 120.603 215.111 121.05 214.829C121.502 214.547 121.849 214.137 122.088 213.599L122.998 213.911C122.663 214.64 122.195 215.196 121.593 215.58C120.991 215.958 120.281 216.147 119.461 216.147ZM130.989 215.907V211.419C130.989 210.877 130.934 210.392 130.822 209.966C130.715 209.54 130.55 209.178 130.327 208.88C130.108 208.582 129.832 208.356 129.496 208.202C129.166 208.047 128.775 207.97 128.322 207.97C127.854 207.97 127.447 208.052 127.101 208.217C126.76 208.377 126.478 208.603 126.254 208.896C126.036 209.189 125.871 209.538 125.759 209.942C125.653 210.342 125.599 210.778 125.599 211.252L124.873 211.164C124.873 210.232 125.03 209.466 125.344 208.864C125.663 208.257 126.092 207.81 126.63 207.523C127.167 207.23 127.771 207.084 128.442 207.084C128.916 207.084 129.339 207.153 129.712 207.291C130.09 207.43 130.417 207.627 130.694 207.882C130.971 208.132 131.2 208.43 131.381 208.776C131.562 209.117 131.695 209.492 131.78 209.902C131.87 210.312 131.916 210.741 131.916 211.188V215.907H130.989ZM124.673 215.907V204.409H125.512V211.052H125.599V215.907H124.673ZM137.537 216.147C136.712 216.147 135.999 215.963 135.397 215.596C134.796 215.223 134.33 214.699 134 214.023C133.67 213.341 133.505 212.537 133.505 211.611C133.505 210.669 133.667 209.857 133.992 209.176C134.322 208.489 134.785 207.962 135.381 207.595C135.983 207.227 136.696 207.044 137.521 207.044C138.357 207.044 139.07 207.235 139.661 207.619C140.258 207.997 140.71 208.545 141.019 209.264C141.333 209.982 141.482 210.847 141.466 211.859H140.508V211.539C140.481 210.357 140.215 209.458 139.709 208.84C139.204 208.223 138.48 207.914 137.537 207.914C136.563 207.914 135.81 208.236 135.278 208.88C134.751 209.519 134.487 210.424 134.487 211.595C134.487 212.756 134.751 213.655 135.278 214.294C135.81 214.933 136.558 215.252 137.521 215.252C138.187 215.252 138.767 215.098 139.262 214.789C139.762 214.475 140.159 214.028 140.452 213.448L141.282 213.815C140.936 214.56 140.436 215.135 139.781 215.54C139.126 215.944 138.378 216.147 137.537 216.147ZM134.136 211.859V211.028H140.947V211.859H134.136ZM146.546 216.147C145.732 216.147 145.042 215.947 144.478 215.548C143.919 215.143 143.49 214.598 143.192 213.911C142.9 213.219 142.753 212.442 142.753 211.579C142.753 210.727 142.9 209.958 143.192 209.272C143.485 208.585 143.906 208.042 144.454 207.643C145.008 207.243 145.676 207.044 146.458 207.044C147.262 207.044 147.941 207.241 148.494 207.635C149.048 208.028 149.466 208.569 149.748 209.256C150.03 209.937 150.171 210.711 150.171 211.579C150.171 212.442 150.03 213.216 149.748 213.903C149.466 214.59 149.056 215.135 148.518 215.54C147.981 215.944 147.323 216.147 146.546 216.147ZM146.602 215.268C147.246 215.268 147.781 215.109 148.207 214.789C148.638 214.464 148.958 214.025 149.165 213.472C149.378 212.913 149.485 212.282 149.485 211.579C149.485 210.871 149.378 210.24 149.165 209.687C148.952 209.133 148.633 208.702 148.207 208.393C147.781 208.079 147.251 207.922 146.618 207.922C145.963 207.922 145.423 208.084 144.997 208.409C144.571 208.729 144.254 209.165 144.047 209.719C143.839 210.267 143.735 210.887 143.735 211.579C143.735 212.277 143.842 212.905 144.055 213.464C144.273 214.017 144.592 214.456 145.013 214.781C145.439 215.106 145.969 215.268 146.602 215.268ZM149.485 215.907V209.264H149.405V204.409H150.323V215.907H149.485ZM155.872 216.107C155.399 216.107 154.973 216.038 154.595 215.899C154.222 215.761 153.897 215.566 153.621 215.316C153.344 215.061 153.115 214.763 152.934 214.422C152.753 214.076 152.617 213.698 152.527 213.288C152.441 212.878 152.399 212.45 152.399 212.002V207.283H153.325V211.771C153.325 212.314 153.378 212.798 153.485 213.224C153.597 213.65 153.762 214.012 153.98 214.31C154.204 214.608 154.48 214.834 154.81 214.989C155.146 215.143 155.54 215.22 155.992 215.22C156.461 215.22 156.865 215.141 157.206 214.981C157.552 214.816 157.834 214.587 158.052 214.294C158.276 214.001 158.441 213.655 158.547 213.256C158.659 212.851 158.715 212.412 158.715 211.939L159.442 212.026C159.442 212.958 159.282 213.727 158.963 214.334C158.649 214.936 158.223 215.383 157.685 215.676C157.147 215.963 156.543 216.107 155.872 216.107ZM158.803 215.907V213.967H158.715V207.283H159.641V215.907H158.803ZM162.029 215.907V204.169H162.947V215.907H162.029ZM168.901 216.147C168.075 216.147 167.362 215.963 166.761 215.596C166.159 215.223 165.693 214.699 165.363 214.023C165.033 213.341 164.868 212.537 164.868 211.611C164.868 210.669 165.03 209.857 165.355 209.176C165.685 208.489 166.148 207.962 166.745 207.595C167.346 207.227 168.059 207.044 168.885 207.044C169.72 207.044 170.434 207.235 171.025 207.619C171.621 207.997 172.073 208.545 172.382 209.264C172.696 209.982 172.845 210.847 172.829 211.859H171.871V211.539C171.844 210.357 171.578 209.458 171.073 208.84C170.567 208.223 169.843 207.914 168.901 207.914C167.926 207.914 167.173 208.236 166.641 208.88C166.114 209.519 165.85 210.424 165.85 211.595C165.85 212.756 166.114 213.655 166.641 214.294C167.173 214.933 167.921 215.252 168.885 215.252C169.55 215.252 170.13 215.098 170.625 214.789C171.126 214.475 171.522 214.028 171.815 213.448L172.646 213.815C172.3 214.56 171.799 215.135 171.144 215.54C170.49 215.944 169.742 216.147 168.901 216.147ZM165.499 211.859V211.028H172.31V211.859H165.499ZM177.909 216.147C177.095 216.147 176.405 215.947 175.841 215.548C175.282 215.143 174.854 214.598 174.556 213.911C174.263 213.219 174.116 212.442 174.116 211.579C174.116 210.727 174.263 209.958 174.556 209.272C174.848 208.585 175.269 208.042 175.817 207.643C176.371 207.243 177.039 207.044 177.822 207.044C178.625 207.044 179.304 207.241 179.858 207.635C180.411 208.028 180.829 208.569 181.111 209.256C181.394 209.937 181.535 210.711 181.535 211.579C181.535 212.442 181.394 213.216 181.111 213.903C180.829 214.59 180.419 215.135 179.882 215.54C179.344 215.944 178.687 216.147 177.909 216.147ZM177.965 215.268C178.609 215.268 179.144 215.109 179.57 214.789C180.001 214.464 180.321 214.025 180.528 213.472C180.741 212.913 180.848 212.282 180.848 211.579C180.848 210.871 180.741 210.24 180.528 209.687C180.316 209.133 179.996 208.702 179.57 208.393C179.144 208.079 178.615 207.922 177.981 207.922C177.326 207.922 176.786 208.084 176.36 208.409C175.934 208.729 175.618 209.165 175.41 209.719C175.202 210.267 175.099 210.887 175.099 211.579C175.099 212.277 175.205 212.905 175.418 213.464C175.636 214.017 175.956 214.456 176.376 214.781C176.802 215.106 177.332 215.268 177.965 215.268ZM180.848 215.907V209.264H180.768V204.409H181.686V215.907H180.848ZM184.561 214.55V213.392H185.718V214.55H184.561ZM184.561 209.799V208.641H185.718V209.799H184.561ZM193.51 216.131C192.781 216.131 192.147 215.923 191.609 215.508C191.072 215.093 190.715 214.539 190.539 213.847L191.466 213.631C191.578 214.084 191.82 214.464 192.192 214.773C192.565 215.082 193.007 215.236 193.518 215.236C193.843 215.236 194.167 215.162 194.492 215.013C194.822 214.858 195.08 214.606 195.267 214.254C195.4 214.004 195.477 213.74 195.498 213.464C195.52 213.182 195.53 212.843 195.53 212.45V204.409H196.456V212.45C196.456 212.753 196.454 213.032 196.448 213.288C196.443 213.544 196.414 213.788 196.361 214.023C196.313 214.257 196.222 214.494 196.089 214.733C195.823 215.202 195.461 215.553 195.003 215.787C194.551 216.016 194.053 216.131 193.51 216.131ZM202.176 216.107C201.703 216.107 201.277 216.038 200.899 215.899C200.526 215.761 200.202 215.566 199.925 215.316C199.648 215.061 199.419 214.763 199.238 214.422C199.057 214.076 198.921 213.698 198.831 213.288C198.746 212.878 198.703 212.45 198.703 212.002V207.283H199.629V211.771C199.629 212.314 199.682 212.798 199.789 213.224C199.901 213.65 200.066 214.012 200.284 214.31C200.508 214.608 200.784 214.834 201.114 214.989C201.45 215.143 201.844 215.22 202.296 215.22C202.765 215.22 203.169 215.141 203.51 214.981C203.856 214.816 204.138 214.587 204.356 214.294C204.58 214.001 204.745 213.655 204.851 213.256C204.963 212.851 205.019 212.412 205.019 211.939L205.746 212.026C205.746 212.958 205.586 213.727 205.267 214.334C204.953 214.936 204.527 215.383 203.989 215.676C203.451 215.963 202.847 216.107 202.176 216.107ZM205.107 215.907V213.967H205.019V207.283H205.945V215.907H205.107ZM214.49 215.907V211.419C214.49 210.877 214.434 210.392 214.322 209.966C214.215 209.54 214.05 209.178 213.827 208.88C213.609 208.582 213.332 208.356 212.996 208.202C212.666 208.047 212.275 207.97 211.823 207.97C211.354 207.97 210.947 208.052 210.601 208.217C210.26 208.377 209.978 208.603 209.754 208.896C209.536 209.189 209.371 209.538 209.259 209.942C209.153 210.342 209.1 210.778 209.1 211.252L208.373 211.164C208.373 210.232 208.53 209.466 208.844 208.864C209.164 208.257 209.592 207.81 210.13 207.523C210.667 207.23 211.272 207.084 211.942 207.084C212.416 207.084 212.839 207.153 213.212 207.291C213.59 207.43 213.917 207.627 214.194 207.882C214.471 208.132 214.7 208.43 214.881 208.776C215.062 209.117 215.195 209.492 215.28 209.902C215.371 210.312 215.416 210.741 215.416 211.188V215.907H214.49ZM208.173 215.907V207.283H209.012V209.224H209.1V215.907H208.173ZM221.006 216.147C220.181 216.147 219.468 215.963 218.866 215.596C218.265 215.223 217.799 214.699 217.469 214.023C217.139 213.341 216.974 212.537 216.974 211.611C216.974 210.669 217.136 209.857 217.461 209.176C217.791 208.489 218.254 207.962 218.85 207.595C219.452 207.227 220.165 207.044 220.99 207.044C221.826 207.044 222.539 207.235 223.13 207.619C223.727 207.997 224.179 208.545 224.488 209.264C224.802 209.982 224.951 210.847 224.935 211.859H223.977V211.539C223.95 210.357 223.684 209.458 223.178 208.84C222.673 208.223 221.949 207.914 221.006 207.914C220.032 207.914 219.279 208.236 218.747 208.88C218.219 209.519 217.956 210.424 217.956 211.595C217.956 212.756 218.219 213.655 218.747 214.294C219.279 214.933 220.027 215.252 220.99 215.252C221.656 215.252 222.236 215.098 222.731 214.789C223.231 214.475 223.628 214.028 223.921 213.448L224.751 213.815C224.405 214.56 223.905 215.135 223.25 215.54C222.595 215.944 221.847 216.147 221.006 216.147ZM217.605 211.859V211.028H224.416V211.859H217.605ZM229.579 215.907L229.595 215.029L234.881 210.23C235.35 209.809 235.656 209.407 235.799 209.024C235.943 208.635 236.015 208.22 236.015 207.778C236.015 207.278 235.895 206.823 235.656 206.413C235.416 206.003 235.091 205.678 234.681 205.439C234.277 205.194 233.822 205.071 233.316 205.071C232.8 205.071 232.337 205.196 231.927 205.447C231.517 205.697 231.192 206.027 230.952 206.437C230.718 206.847 230.601 207.294 230.601 207.778H229.675C229.675 207.102 229.837 206.493 230.162 205.95C230.487 205.401 230.923 204.968 231.471 204.648C232.025 204.329 232.643 204.169 233.324 204.169C234.011 204.169 234.626 204.334 235.169 204.664C235.717 204.989 236.151 205.425 236.47 205.974C236.79 206.522 236.949 207.126 236.949 207.786C236.949 208.244 236.896 208.654 236.79 209.016C236.688 209.373 236.526 209.708 236.302 210.022C236.079 210.331 235.791 210.642 235.44 210.956L230.449 215.484L230.258 215.005H236.949V215.907H229.579ZM242.491 216.147C241.815 216.147 241.203 215.984 240.655 215.66C240.112 215.335 239.678 214.901 239.353 214.358C239.028 213.81 238.866 213.198 238.866 212.521V207.794C238.866 207.118 239.028 206.509 239.353 205.966C239.678 205.417 240.112 204.981 240.655 204.656C241.203 204.331 241.815 204.169 242.491 204.169C243.167 204.169 243.78 204.331 244.328 204.656C244.876 204.981 245.31 205.417 245.629 205.966C245.954 206.509 246.116 207.118 246.116 207.794V212.521C246.116 213.198 245.954 213.81 245.629 214.358C245.31 214.901 244.876 215.335 244.328 215.66C243.78 215.984 243.167 216.147 242.491 216.147ZM242.491 215.244C242.986 215.244 243.436 215.125 243.841 214.885C244.251 214.64 244.578 214.313 244.823 213.903C245.068 213.493 245.19 213.04 245.19 212.545V207.762C245.19 207.273 245.068 206.823 244.823 206.413C244.578 206.003 244.251 205.678 243.841 205.439C243.436 205.194 242.986 205.071 242.491 205.071C241.996 205.071 241.544 205.194 241.134 205.439C240.729 205.678 240.404 206.003 240.16 206.413C239.915 206.823 239.792 207.273 239.792 207.762V212.545C239.792 213.04 239.915 213.493 240.16 213.903C240.404 214.313 240.729 214.64 241.134 214.885C241.544 215.125 241.996 215.244 242.491 215.244Z" fill="black"/>
<rect x="53.2336" y="246.201" width="153.836" height="65.2114" rx="5.32338" fill="#2A2723"/>
<path d="M100.793 272.065C100.684 271.997 100.56 271.958 100.432 271.952C100.305 271.945 100.177 271.971 100.062 272.027C96.0146 274.007 93.1239 273.08 90.0681 272.101C86.854 271.078 83.5352 270.017 78.9426 272.259C78.8158 272.321 78.7089 272.418 78.634 272.537C78.5592 272.657 78.5194 272.795 78.5193 272.936L78.5193 284.244C78.5193 284.372 78.5518 284.498 78.6139 284.61C78.6759 284.721 78.7654 284.816 78.8739 284.884C78.9825 284.951 79.1065 284.99 79.2343 284.997C79.3621 285.004 79.4895 284.978 79.6045 284.922C83.6521 282.942 86.5428 283.869 89.6033 284.848C91.4173 285.428 93.2653 286.019 95.3546 286.019C96.9659 286.019 98.7234 285.668 100.72 284.693C100.847 284.632 100.954 284.535 101.029 284.416C101.104 284.296 101.143 284.158 101.144 284.017L101.144 272.709C101.145 272.581 101.113 272.454 101.052 272.342C100.99 272.229 100.901 272.134 100.793 272.065ZM82.2906 280.739C82.2906 280.939 82.2112 281.131 82.0697 281.273C81.9283 281.414 81.7364 281.493 81.5364 281.493C81.3363 281.493 81.1445 281.414 81.003 281.273C80.8616 281.131 80.7821 280.939 80.7821 280.739L80.7821 274.705C80.7821 274.505 80.8616 274.313 81.003 274.172C81.1445 274.03 81.3363 273.951 81.5364 273.951C81.7364 273.951 81.9283 274.03 82.0697 274.172C82.2112 274.313 82.2906 274.505 82.2906 274.705L82.2906 280.739ZM89.8333 281.493C89.2366 281.493 88.6533 281.317 88.1571 280.985C87.661 280.653 87.2743 280.182 87.0459 279.631C86.8176 279.08 86.7578 278.473 86.8742 277.888C86.9907 277.303 87.278 276.765 87.6999 276.343C88.1219 275.921 88.6595 275.634 89.2447 275.517C89.83 275.401 90.4366 275.461 90.9879 275.689C91.5392 275.917 92.0104 276.304 92.342 276.8C92.6735 277.296 92.8504 277.88 92.8504 278.476C92.8504 279.277 92.5326 280.044 91.9667 280.61C91.4009 281.176 90.6335 281.493 89.8333 281.493ZM98.8846 282.248C98.8846 282.448 98.8051 282.64 98.6637 282.781C98.5222 282.923 98.3304 283.002 98.1303 283.002C97.9303 283.002 97.7384 282.923 97.597 282.781C97.4555 282.64 97.3761 282.448 97.3761 282.248L97.3761 276.214C97.3761 276.014 97.4555 275.822 97.597 275.68C97.7384 275.539 97.9303 275.459 98.1303 275.459C98.3304 275.459 98.5222 275.539 98.6637 275.68C98.8051 275.822 98.8846 276.014 98.8846 276.214L98.8846 282.248Z" fill="white"/>
<path d="M125.693 285.046C124.543 285.046 123.563 284.796 122.754 284.295C121.945 283.79 121.325 283.087 120.894 282.187C120.468 281.288 120.255 280.244 120.255 279.057C120.255 277.87 120.468 276.827 120.894 275.927C121.325 275.027 121.945 274.327 122.754 273.827C123.563 273.321 124.543 273.068 125.693 273.068C127.018 273.068 128.115 273.404 128.983 274.074C129.856 274.745 130.463 275.647 130.803 276.781L129.11 277.236C128.887 276.433 128.488 275.802 127.913 275.344C127.343 274.886 126.603 274.657 125.693 274.657C124.878 274.657 124.2 274.841 123.657 275.208C123.114 275.576 122.704 276.089 122.427 276.749C122.155 277.409 122.02 278.179 122.02 279.057C122.014 279.935 122.147 280.705 122.419 281.365C122.696 282.025 123.106 282.539 123.649 282.906C124.197 283.273 124.878 283.457 125.693 283.457C126.603 283.457 127.343 283.228 127.913 282.77C128.488 282.307 128.887 281.676 129.11 280.878L130.803 281.333C130.463 282.467 129.856 283.369 128.983 284.04C128.115 284.71 127.018 285.046 125.693 285.046ZM134.995 285.046C134.356 285.046 133.821 284.929 133.39 284.694C132.959 284.455 132.631 284.141 132.408 283.752C132.19 283.358 132.08 282.927 132.08 282.459C132.08 282.022 132.158 281.639 132.312 281.309C132.466 280.979 132.695 280.699 132.999 280.47C133.302 280.236 133.675 280.047 134.117 279.903C134.5 279.792 134.934 279.693 135.418 279.608C135.903 279.523 136.411 279.443 136.943 279.368C137.481 279.294 138.013 279.219 138.54 279.145L137.933 279.48C137.944 278.804 137.8 278.304 137.502 277.979C137.209 277.649 136.704 277.484 135.985 277.484C135.533 277.484 135.117 277.59 134.739 277.803C134.361 278.011 134.098 278.357 133.949 278.841L132.392 278.362C132.605 277.622 133.009 277.034 133.606 276.598C134.207 276.161 135.006 275.943 136.001 275.943C136.773 275.943 137.444 276.076 138.013 276.342C138.588 276.603 139.009 277.018 139.275 277.588C139.413 277.87 139.499 278.168 139.53 278.482C139.562 278.796 139.578 279.134 139.578 279.496V284.806H138.101V282.834L138.389 283.089C138.032 283.75 137.577 284.242 137.023 284.567C136.475 284.886 135.799 285.046 134.995 285.046ZM135.29 283.68C135.764 283.68 136.171 283.598 136.512 283.433C136.853 283.262 137.127 283.047 137.335 282.786C137.542 282.525 137.678 282.254 137.742 281.972C137.832 281.716 137.883 281.429 137.894 281.109C137.909 280.79 137.917 280.534 137.917 280.343L138.46 280.542C137.933 280.622 137.454 280.694 137.023 280.758C136.592 280.822 136.201 280.886 135.849 280.949C135.503 281.008 135.195 281.08 134.923 281.165C134.694 281.245 134.489 281.341 134.308 281.453C134.133 281.564 133.991 281.7 133.885 281.86C133.784 282.019 133.733 282.214 133.733 282.443C133.733 282.666 133.789 282.874 133.901 283.066C134.013 283.252 134.183 283.401 134.412 283.513C134.641 283.624 134.934 283.68 135.29 283.68ZM144.95 285.038C143.901 285.038 143.047 284.806 142.386 284.343C141.726 283.88 141.322 283.228 141.173 282.387L142.882 282.123C142.988 282.57 143.233 282.924 143.616 283.185C144.005 283.441 144.487 283.569 145.061 283.569C145.583 283.569 145.99 283.462 146.283 283.249C146.581 283.036 146.73 282.743 146.73 282.371C146.73 282.153 146.677 281.977 146.571 281.844C146.47 281.705 146.254 281.575 145.924 281.453C145.594 281.33 145.091 281.178 144.415 280.997C143.675 280.806 143.087 280.601 142.65 280.383C142.219 280.159 141.91 279.901 141.724 279.608C141.543 279.31 141.452 278.951 141.452 278.53C141.452 278.008 141.591 277.553 141.867 277.165C142.144 276.776 142.533 276.475 143.033 276.262C143.539 276.049 144.13 275.943 144.806 275.943C145.466 275.943 146.054 276.047 146.571 276.254C147.087 276.462 147.505 276.757 147.824 277.141C148.144 277.519 148.335 277.963 148.399 278.474L146.69 278.786C146.632 278.37 146.438 278.043 146.108 277.803C145.777 277.564 145.349 277.433 144.822 277.412C144.316 277.391 143.906 277.476 143.592 277.668C143.278 277.854 143.121 278.112 143.121 278.442C143.121 278.634 143.18 278.796 143.297 278.929C143.419 279.062 143.653 279.19 143.999 279.313C144.345 279.435 144.857 279.581 145.533 279.752C146.257 279.938 146.832 280.146 147.257 280.375C147.683 280.598 147.987 280.867 148.168 281.181C148.354 281.49 148.447 281.865 148.447 282.307C148.447 283.159 148.136 283.827 147.513 284.311C146.895 284.796 146.041 285.038 144.95 285.038ZM156.267 284.806V280.566C156.267 280.231 156.237 279.887 156.179 279.536C156.126 279.179 156.019 278.849 155.859 278.546C155.705 278.243 155.484 277.998 155.197 277.811C154.915 277.625 154.545 277.532 154.087 277.532C153.789 277.532 153.506 277.582 153.24 277.684C152.974 277.779 152.74 277.936 152.538 278.155C152.341 278.373 152.184 278.66 152.067 279.017C151.955 279.374 151.899 279.808 151.899 280.319L150.861 279.927C150.861 279.145 151.007 278.455 151.3 277.859C151.593 277.258 152.013 276.789 152.562 276.454C153.11 276.119 153.773 275.951 154.55 275.951C155.146 275.951 155.646 276.047 156.051 276.238C156.456 276.43 156.783 276.683 157.033 276.997C157.289 277.306 157.483 277.644 157.616 278.011C157.749 278.378 157.84 278.738 157.888 279.089C157.936 279.44 157.96 279.749 157.96 280.015V284.806H156.267ZM150.206 284.806V273.308H151.699V279.512H151.899V284.806H150.206ZM163.784 285.046C162.922 285.046 162.174 284.852 161.541 284.463C160.907 284.074 160.417 283.539 160.071 282.858C159.731 282.171 159.56 281.381 159.56 280.486C159.56 279.587 159.736 278.796 160.087 278.115C160.439 277.428 160.931 276.896 161.565 276.518C162.198 276.134 162.938 275.943 163.784 275.943C164.647 275.943 165.395 276.137 166.028 276.526C166.662 276.914 167.151 277.449 167.497 278.131C167.843 278.812 168.016 279.597 168.016 280.486C168.016 281.386 167.841 282.179 167.489 282.866C167.143 283.547 166.654 284.082 166.02 284.471C165.387 284.854 164.641 285.046 163.784 285.046ZM163.784 283.473C164.609 283.473 165.224 283.196 165.629 282.642C166.039 282.083 166.244 281.365 166.244 280.486C166.244 279.587 166.036 278.868 165.621 278.33C165.211 277.787 164.599 277.516 163.784 277.516C163.225 277.516 162.765 277.644 162.403 277.899C162.041 278.149 161.772 278.498 161.596 278.945C161.421 279.387 161.333 279.901 161.333 280.486C161.333 281.391 161.541 282.115 161.956 282.658C162.371 283.201 162.981 283.473 163.784 283.473ZM173.021 285.038C172.425 285.038 171.924 284.942 171.52 284.75C171.115 284.559 170.785 284.309 170.53 284C170.28 283.686 170.088 283.345 169.955 282.978C169.822 282.61 169.731 282.251 169.683 281.9C169.635 281.548 169.611 281.24 169.611 280.973V276.182H171.304V280.422C171.304 280.758 171.331 281.104 171.384 281.461C171.443 281.812 171.549 282.139 171.704 282.443C171.863 282.746 172.084 282.991 172.366 283.177C172.654 283.364 173.026 283.457 173.484 283.457C173.782 283.457 174.064 283.409 174.331 283.313C174.597 283.212 174.828 283.052 175.025 282.834C175.228 282.616 175.385 282.328 175.496 281.972C175.614 281.615 175.672 281.181 175.672 280.67L176.71 281.061C176.71 281.844 176.564 282.536 176.271 283.137C175.978 283.734 175.558 284.199 175.009 284.535C174.461 284.87 173.798 285.038 173.021 285.038ZM175.872 284.806V282.315H175.672V276.182H177.357V284.806H175.872ZM184.531 284.806C183.988 284.913 183.456 284.958 182.934 284.942C182.413 284.926 181.947 284.825 181.537 284.639C181.127 284.452 180.818 284.159 180.611 283.76C180.424 283.404 180.323 283.042 180.307 282.674C180.297 282.302 180.291 281.881 180.291 281.413V273.787H181.968V281.333C181.968 281.679 181.971 281.98 181.976 282.235C181.987 282.491 182.043 282.706 182.144 282.882C182.335 283.212 182.639 283.401 183.054 283.449C183.475 283.491 183.967 283.473 184.531 283.393V284.806ZM178.638 277.524V276.182H184.531V277.524H178.638Z" fill="white"/>
</g>
</g>
</g>
<defs>
<clipPath id="clip0_2378_2727">
<rect width="534" height="282" fill="white"/>
</clipPath>
<clipPath id="clip1_2378_2727">
<rect width="535" height="1223.05" fill="white" transform="translate(0 -87)"/>
</clipPath>
<clipPath id="clip2_2378_2727">
<rect width="537.662" height="1223.05" fill="white" transform="translate(0 -87)"/>
</clipPath>
<clipPath id="clip3_2378_2727">
<rect width="21.2935" height="21.2935" fill="white" transform="translate(63.8806 65.4019)"/>
</clipPath>
</defs>
</svg>
