<svg width="534" height="282" viewBox="0 0 534 282" fill="none" xmlns="http://www.w3.org/2000/svg">
<g clip-path="url(#clip0_2378_2345)">
<rect width="534" height="282" fill="white"/>
<circle cx="267" cy="141" r="83" stroke="#F2F0EF" stroke-width="2"/>
<circle cx="267" cy="141" r="125" stroke="#F2F0EF" stroke-width="2"/>
<circle cx="267" cy="141" r="167" stroke="#F2F0EF" stroke-width="2"/>
<rect x="292" y="117" width="49" height="49" rx="4" transform="rotate(90 292 117)" fill="#F2F0EF"/>
<path d="M264.497 133.125C264.497 132.606 264.651 132.098 264.94 131.667C265.228 131.235 265.638 130.898 266.118 130.7C266.598 130.501 267.125 130.449 267.635 130.55C268.144 130.652 268.611 130.902 268.979 131.269C269.346 131.636 269.596 132.104 269.697 132.613C269.798 133.122 269.746 133.65 269.548 134.13C269.349 134.609 269.012 135.019 268.581 135.308C268.149 135.596 267.642 135.75 267.122 135.75C266.426 135.75 265.759 135.473 265.266 134.981C264.774 134.489 264.497 133.821 264.497 133.125ZM275.318 142.948L271.076 138.139C270.829 137.859 270.527 137.636 270.187 137.482C269.848 137.329 269.48 137.25 269.107 137.25L265.138 137.25C264.765 137.25 264.397 137.329 264.058 137.482C263.718 137.636 263.415 137.859 263.169 138.139L258.927 142.948C258.651 143.23 258.498 143.609 258.5 144.003C258.501 144.397 258.658 144.775 258.936 145.054C259.214 145.334 259.59 145.493 259.984 145.496C260.379 145.5 260.758 145.349 261.042 145.075L263.466 143.128L261.619 150.148C261.459 150.509 261.447 150.918 261.586 151.288C261.725 151.657 262.005 151.957 262.364 152.122C262.723 152.286 263.132 152.303 263.503 152.168C263.874 152.033 264.177 151.757 264.346 151.4L267.122 146.625L269.896 151.406C270.064 151.763 270.367 152.039 270.738 152.174C271.109 152.31 271.519 152.293 271.877 152.128C272.236 151.964 272.516 151.664 272.655 151.294C272.794 150.925 272.782 150.515 272.622 150.155L270.779 143.128L273.207 145.075C273.49 145.349 273.87 145.5 274.264 145.496C274.658 145.493 275.035 145.334 275.313 145.054C275.591 144.775 275.747 144.397 275.749 144.003C275.751 143.609 275.597 143.23 275.322 142.948L275.318 142.948Z" fill="black"/>
<rect x="331" y="233" width="49" height="49" rx="24.5" transform="rotate(90 331 233)" fill="#F7F2EB"/>
<g clip-path="url(#clip1_2378_2345)">
<path fill-rule="evenodd" clip-rule="evenodd" d="M306.5 245.5C299.84 245.5 294.435 250.862 294.435 257.478C294.435 260.678 295.689 263.705 297.981 265.954C300.273 268.203 303.3 269.457 306.5 269.457C313.159 269.457 318.565 264.095 318.565 257.435C318.565 250.862 313.159 245.5 306.5 245.5ZM313.938 260.549C312.684 263.532 309.743 265.478 306.5 265.478C302.046 265.478 298.457 261.932 298.457 257.478C298.457 254.235 300.403 251.338 303.43 250.084C306.457 248.83 309.916 249.522 312.208 251.814C314.5 254.149 315.192 257.565 313.938 260.549ZM310.522 257.478C310.522 259.684 308.705 261.457 306.5 261.457C304.295 261.457 302.478 259.684 302.478 257.478C302.478 255.273 304.295 253.5 306.5 253.5C308.705 253.5 310.522 255.273 310.522 257.478Z" fill="#CC0000"/>
</g>
<rect x="380" y="21" width="49" height="49" rx="24.5" transform="rotate(90 380 21)" fill="#F7F2EB"/>
<g clip-path="url(#clip2_2378_2345)">
<path d="M359.881 44.4345C360.381 44.3315 364.807 42.3037 365.202 42.0757C366.104 41.555 366.413 40.4018 365.892 39.5C365.371 38.5981 364.218 38.2891 363.316 38.8098C362.921 39.0379 358.952 41.8567 358.613 42.2384C358.224 42.6759 358.157 43.3016 358.445 43.7997C358.732 44.2979 359.308 44.5525 359.881 44.4345Z" fill="#FFC220"/>
<path d="M365.202 48.9242C364.807 48.6962 360.382 46.6684 359.881 46.5654C359.308 46.4474 358.733 46.702 358.445 47.2002C358.157 47.6984 358.225 48.3241 358.613 48.7616C358.953 49.1432 362.922 51.9621 363.317 52.1902C364.218 52.7108 365.372 52.4018 365.892 51.5C366.413 50.5982 366.104 49.4449 365.202 48.9242Z" fill="#FFC220"/>
<path d="M355.5 48.9004C354.925 48.9004 354.416 49.2714 354.232 49.827C354.071 50.3116 353.614 55.1582 353.614 55.6144C353.614 56.6557 354.458 57.4999 355.5 57.4999C356.541 57.4999 357.385 56.6557 357.385 55.6144C357.385 55.1582 356.929 50.3116 356.768 49.827C356.583 49.2714 356.075 48.9004 355.5 48.9004Z" fill="#FFC220"/>
<path d="M351.119 46.5654C350.619 46.6684 346.193 48.6962 345.798 48.9242C344.896 49.4449 344.587 50.5981 345.108 51.5C345.628 52.4018 346.782 52.7108 347.683 52.1901C348.078 51.962 352.047 49.1432 352.387 48.7615C352.775 48.324 352.843 47.6984 352.555 47.2002C352.267 46.702 351.692 46.4474 351.119 46.5654Z" fill="#FFC220"/>
<path d="M347.683 38.8098C346.782 38.2891 345.628 38.5981 345.108 39.5C344.587 40.4018 344.896 41.555 345.798 42.0757C346.193 42.3038 350.619 44.3315 351.119 44.4345C351.692 44.5525 352.267 44.2979 352.555 43.7997C352.843 43.3015 352.775 42.6759 352.387 42.2384C352.047 41.8567 348.078 39.0379 347.683 38.8098Z" fill="#FFC220"/>
<path d="M355.5 33.5C354.458 33.5 353.614 34.3442 353.614 35.3856C353.614 35.8417 354.071 40.6883 354.232 41.173C354.416 41.7285 354.925 42.0995 355.5 42.0995C356.075 42.0995 356.583 41.7285 356.768 41.173C356.929 40.6883 357.385 35.8417 357.385 35.3856C357.385 34.3442 356.541 33.5 355.5 33.5Z" fill="#FFC220"/>
</g>
<rect x="175" y="99" width="49" height="49" rx="24.5" transform="rotate(90 175 99)" fill="#F7F2EB"/>
<g clip-path="url(#clip3_2378_2345)">
<path d="M171.355 120.046C170.621 119.161 169.318 118.642 167.8 118.642C166.193 118.642 164.738 119.186 163.726 120.084L163.891 119.06L163.461 118.933C162.841 118.743 162.158 118.655 161.474 118.655C160.311 118.655 159.185 119.022 158.286 119.616L158.552 118.756H151.569L151.48 119.034C150.86 118.781 150.177 118.655 149.406 118.655C147.963 118.655 146.407 119.211 145.61 120.287C145.56 120.211 145.496 120.135 145.446 120.059C144.712 119.173 143.409 118.655 141.891 118.655C140.322 118.655 138.905 119.173 137.906 120.008L138.298 117.643L137.855 117.516C137.084 117.288 136.249 117.175 135.414 117.175C132.352 117.175 129.569 119.123 129.076 121.602C128.861 122.652 129.114 123.677 129.771 124.487C130.328 125.17 131.15 125.651 132.137 125.904H129.101V129.787H144.548L144.573 129.737V129.787H146.433L146.686 129.383L146.61 129.787H150.81L150.873 129.459C151.24 129.699 151.721 129.825 152.277 129.825C152.771 129.825 153.226 129.724 153.618 129.547L153.568 129.787H159.463L159.476 129.737C159.754 129.8 160.032 129.838 160.311 129.838C160.475 129.838 160.652 129.825 160.817 129.787H163.068L163.233 129.433H163.385L163.435 129.787H170.368L170.71 127.978H170.583L170.634 127.725H170.722L171.064 125.916H170.874C171.026 125.777 171.14 125.587 171.178 125.385C171.228 125.145 171.165 124.892 171 124.702C170.963 124.651 170.912 124.613 170.861 124.575C171.405 124.006 171.797 123.323 171.937 122.564C172.126 121.602 171.911 120.742 171.355 120.046ZM167.344 127.827H167.129L167.446 126.144C167.522 126.131 167.597 126.119 167.661 126.119L167.344 127.827ZM162.385 122.349C162.36 122.463 162.347 122.576 162.335 122.678C161.867 122.994 161.424 123.133 160.956 123.133C160.639 123.133 160.361 123.032 160.222 122.855C160.146 122.754 160.108 122.652 160.133 122.513C160.222 122.083 160.804 121.704 161.386 121.704C161.753 121.704 162.094 121.83 162.436 122.096C162.423 122.184 162.398 122.26 162.385 122.349ZM162.853 125.904L162.626 126.283L162.436 126.182C162.309 126.106 162.183 126.055 162.044 126.005C162.145 125.98 162.233 125.954 162.322 125.929L162.588 125.828L162.853 124.677C162.891 124.727 162.917 124.778 162.967 124.828C163.359 125.309 163.929 125.676 164.612 125.904H162.853ZM165.168 126.055L165.08 126.536L164.953 126.005C165.029 126.03 165.093 126.043 165.168 126.055ZM167.395 121.767C167.686 121.767 167.901 121.843 168.015 121.982C168.116 122.108 168.116 122.273 168.091 122.387C168.002 122.855 167.521 123.184 166.927 123.184C166.636 123.184 166.408 123.108 166.294 122.969C166.218 122.88 166.193 122.741 166.231 122.576C166.294 122.172 166.724 121.767 167.395 121.767ZM154.238 126.245C154.162 126.195 154.061 126.144 153.972 126.093H154.263L154.238 126.245ZM152.631 127.827C152.594 127.865 152.53 127.877 152.467 127.89C152.505 127.865 152.556 127.839 152.631 127.827ZM152.176 121.805L151.834 122.943C151.809 122.64 151.721 122.361 151.556 122.121C151.493 122.02 151.404 121.931 151.316 121.843L152.176 121.805ZM142.169 122.374C142.081 122.842 141.6 123.171 141.005 123.171C140.714 123.171 140.487 123.095 140.373 122.956C140.297 122.867 140.272 122.728 140.31 122.564C140.385 122.159 140.816 121.754 141.486 121.754C141.777 121.754 141.992 121.83 142.106 121.969C142.195 122.096 142.195 122.26 142.169 122.374ZM146.18 126.093L146.167 126.119V126.093H146.18ZM151.341 124.563L150.936 125.904H149.38C150.177 125.638 150.886 125.195 151.341 124.563ZM151.506 126.106H151.594C151.556 126.119 151.531 126.131 151.506 126.144V126.106ZM134.781 122.602C134.338 122.602 133.959 122.45 133.756 122.21C133.643 122.07 133.605 121.906 133.643 121.729C133.756 121.147 134.528 120.654 135.338 120.654C135.882 120.654 136.375 120.856 136.869 121.273C136.742 121.514 136.641 121.767 136.565 122.032C135.945 122.425 135.388 122.602 134.781 122.602ZM143.928 125.347L144.434 125.575C144.712 125.701 145.028 125.802 145.345 125.904H144.408L144.307 126.106L144.295 125.904H142.663C143.118 125.764 143.548 125.575 143.928 125.347ZM156.237 127.827L156.604 125.904H154.82L156.073 121.792L156.452 121.805C156.376 121.995 156.326 122.184 156.288 122.387C156.11 123.298 156.326 124.183 156.895 124.879C157.274 125.334 157.78 125.676 158.388 125.904H156.819L156.452 127.827H156.237ZM136.426 125.764L136.691 125.676L136.932 124.677C136.97 124.727 137.008 124.778 137.046 124.828C137.438 125.309 138.007 125.676 138.69 125.904H135.856C136.072 125.866 136.261 125.815 136.426 125.764ZM168.584 125.904C168.812 125.828 169.04 125.752 169.255 125.651C169.28 125.727 169.318 125.802 169.381 125.866L169.419 125.904H168.584Z" fill="white"/>
<path d="M143.801 126.422L143.902 128.118H143.928C143.978 127.94 144.041 127.763 144.13 127.599L144.712 126.422H145.661L145.8 128.118H145.825C145.876 127.953 145.926 127.776 146.002 127.612L146.572 126.422H147.862L146.116 129.256H145.066L144.965 127.713H144.927C144.889 127.865 144.851 128.004 144.788 128.143L144.231 129.256H143.169L142.511 126.422" fill="#0054A5"/>
<path d="M147.799 126.422H148.988L148.811 127.384H149.57L149.747 126.422H150.936L150.405 129.256H149.203L149.393 128.269H148.634L148.444 129.256H147.255" fill="#0054A5"/>
<path d="M154.428 127.852C154.251 128.763 153.302 129.307 152.265 129.307C151.227 129.307 150.481 128.763 150.658 127.852C150.823 126.954 151.784 126.384 152.821 126.384C153.859 126.372 154.605 126.954 154.428 127.852ZM151.911 127.865C151.847 128.194 152.075 128.409 152.442 128.409C152.821 128.409 153.125 128.181 153.188 127.865C153.252 127.561 153.049 127.308 152.657 127.308C152.252 127.308 151.961 127.561 151.911 127.865Z" fill="#0054A5"/>
<path d="M154.706 126.422H155.946L155.579 128.345H156.617L156.44 129.256H154.162" fill="#0054A5"/>
<path d="M159.551 128.244L159.602 128.282C159.792 128.421 160.045 128.548 160.323 128.548C160.45 128.548 160.652 128.51 160.677 128.383C160.703 128.257 160.538 128.244 160.437 128.231L160.197 128.193C159.729 128.118 159.362 127.89 159.45 127.434C159.577 126.764 160.386 126.384 161.133 126.384C161.525 126.384 161.867 126.46 162.17 126.637L161.702 127.359C161.512 127.232 161.297 127.143 161.019 127.143C160.905 127.143 160.741 127.181 160.728 127.295C160.703 127.396 160.854 127.422 160.956 127.434L161.221 127.485C161.727 127.586 162.056 127.814 161.968 128.295C161.841 128.978 161.032 129.307 160.298 129.307C159.868 129.307 159.387 129.206 159.033 129.041" fill="#0054A5"/>
<path d="M163.802 128.231L163.752 127.725C163.739 127.599 163.739 127.485 163.739 127.359H163.689L163.296 128.219M162.727 129.256H161.411L163.132 126.422H164.498L165.169 129.256H163.853L163.802 128.902H162.866L162.727 129.256Z" fill="#0054A5"/>
<path d="M165.611 126.422H166.851L166.484 128.345H167.522L167.357 129.256H165.08" fill="#0054A5"/>
<path d="M168.129 126.422H170.419L170.267 127.194H169.229L169.179 127.472H170.128L169.988 128.206H169.027L168.976 128.484H170.064L169.912 129.256H167.585" fill="#0054A5"/>
<path d="M151.328 121.324L152.884 121.261L151.569 125.587H154.377L155.693 121.261L157.224 121.324L157.844 119.262H151.948" fill="#D91A32"/>
<path d="M145.509 122.437C145.117 124.461 142.966 125.676 140.613 125.676C138.26 125.676 136.578 124.461 136.97 122.437C137.349 120.451 139.525 119.161 141.878 119.161C144.219 119.161 145.901 120.451 145.509 122.437ZM139.791 122.475C139.652 123.196 140.145 123.69 141.005 123.69C141.853 123.69 142.549 123.196 142.688 122.475C142.814 121.805 142.372 121.248 141.486 121.248C140.588 121.248 139.93 121.805 139.791 122.475Z" fill="#D91A32"/>
<path d="M144.649 125.107C145.446 125.461 146.534 125.689 147.508 125.689C149.178 125.689 151 124.942 151.291 123.437C151.493 122.361 150.734 121.843 149.595 121.628L148.988 121.514C148.786 121.476 148.444 121.438 148.482 121.21C148.533 120.945 148.9 120.869 149.153 120.869C149.76 120.869 150.253 121.084 150.683 121.349L151.759 119.73C151.076 119.351 150.304 119.173 149.418 119.173C147.736 119.173 145.914 120.008 145.623 121.514C145.433 122.501 146.256 123.032 147.318 123.184L147.862 123.272C148.115 123.31 148.469 123.336 148.419 123.627C148.368 123.918 147.9 124.006 147.635 124.006C146.989 124.006 146.433 123.74 145.99 123.424L145.863 123.336" fill="#D91A32"/>
<path d="M163.309 119.426C162.752 119.262 162.107 119.161 161.474 119.161C159.21 119.161 157.16 120.641 156.794 122.475C156.439 124.272 157.894 125.676 160.095 125.676C160.601 125.676 161.651 125.6 162.145 125.423L162.689 123.057C162.17 123.411 161.614 123.639 160.968 123.639C160.133 123.639 159.501 123.108 159.64 122.412C159.779 121.729 160.563 121.185 161.398 121.185C162.031 121.185 162.537 121.476 162.929 121.817" fill="#D91A32"/>
<path d="M167.8 119.161C165.459 119.161 163.283 120.451 162.891 122.437C162.499 124.461 164.182 125.676 166.535 125.676C168.888 125.676 171.038 124.461 171.431 122.437C171.81 120.451 170.14 119.161 167.8 119.161ZM167.395 121.248C168.281 121.248 168.736 121.805 168.597 122.475C168.458 123.196 167.762 123.69 166.914 123.69C166.067 123.69 165.561 123.196 165.7 122.475C165.839 121.805 166.497 121.248 167.395 121.248Z" fill="#D91A32"/>
<path d="M137.704 118.01C136.995 117.807 136.211 117.693 135.414 117.693C132.593 117.693 130.025 119.477 129.582 121.704C129.152 123.88 130.961 125.575 133.706 125.575C134.326 125.575 135.654 125.486 136.261 125.271L136.932 122.412C136.274 122.842 135.578 123.121 134.781 123.121C133.731 123.121 132.96 122.475 133.124 121.628C133.288 120.793 134.275 120.135 135.325 120.135C136.122 120.135 136.742 120.489 137.223 120.907" fill="#D91A32"/>
<path d="M169.697 125.271C169.735 125.056 169.988 124.879 170.254 124.879C170.52 124.879 170.697 125.056 170.659 125.271C170.621 125.499 170.368 125.676 170.102 125.676C169.837 125.676 169.66 125.499 169.697 125.271ZM170.532 125.271C170.57 125.094 170.444 124.98 170.229 124.98C170.026 124.98 169.849 125.094 169.824 125.271C169.786 125.448 169.913 125.562 170.128 125.562C170.33 125.575 170.507 125.448 170.532 125.271ZM170.368 125.486H170.241L170.166 125.309H170.09L170.052 125.486H169.951L170.026 125.069H170.267C170.368 125.069 170.431 125.094 170.419 125.195C170.406 125.271 170.343 125.309 170.279 125.309L170.368 125.486ZM170.216 125.233C170.267 125.233 170.317 125.233 170.317 125.183C170.33 125.145 170.279 125.145 170.229 125.145H170.115L170.102 125.22H170.216V125.233Z" fill="#D91A32"/>
<path d="M129.784 129.269H142.903V129.256H142.89L142.726 128.535H129.784" fill="#0054A5"/>
<path d="M129.784 128.231H142.663L142.486 127.51H129.784" fill="#0054A5"/>
<path d="M129.784 127.194H142.422L142.359 126.928L142.245 126.422H129.784" fill="#0054A5"/>
<path d="M157.211 126.422H159.501L159.362 127.194H158.312L158.261 127.472H159.21L159.071 128.206H158.122L158.071 128.484H159.147L158.995 129.256H156.667" fill="#0054A5"/>
</g>
</g>
<defs>
<clipPath id="clip0_2378_2345">
<rect width="534" height="282" fill="white"/>
</clipPath>
<clipPath id="clip1_2378_2345">
<rect width="24.1297" height="24" fill="white" transform="translate(294.435 245.5)"/>
</clipPath>
<clipPath id="clip2_2378_2345">
<rect width="21.2905" height="24" fill="white" transform="translate(344.855 33.5)"/>
</clipPath>
<clipPath id="clip3_2378_2345">
<rect width="43.0002" height="12.6508" fill="white" transform="translate(129 117.175)"/>
</clipPath>
</defs>
</svg>
