<svg width="180" height="180" viewBox="0 0 180 180" fill="none" xmlns="http://www.w3.org/2000/svg">
<path d="M93.8605 10.1428C96.4049 9.53863 99.0575 9.5533 101.595 10.1852L125.233 16.0712C131.17 17.5496 135.787 22.217 137.2 28.1699L161.315 129.731C162.729 135.684 160.703 141.929 156.064 145.918L137.595 161.802C135.612 163.507 133.25 164.713 130.705 165.317L113.905 169.306C111.36 169.91 108.708 169.896 106.17 169.264L82.536 163.377C76.5995 161.898 71.9833 157.231 70.5698 151.279L46.4546 49.7157C45.0412 43.7631 47.0668 37.5193 51.705 33.5297L70.17 17.6468C72.1528 15.9414 74.5155 14.7362 77.06 14.1319L93.8605 10.1428ZM87.6265 20.0602C83.8457 20.9579 81.5085 24.7506 82.4062 28.5315C83.3039 32.3124 87.0966 34.6495 90.8775 33.7518C94.6583 32.854 96.9955 29.0614 96.0978 25.2805C95.2 21.4997 91.4073 19.1626 87.6265 20.0602Z" fill="#A0A0A0"/>
<path d="M76.6312 10.698C79.1859 10.139 81.8375 10.1999 84.3636 10.8767L101.043 15.3464C103.569 16.0233 105.896 17.2961 107.829 19.0574L125.835 35.4636C130.358 39.5845 132.204 45.8849 130.62 51.7947L103.603 152.623C102.019 158.533 97.2711 163.066 91.2943 164.374L67.4974 169.58C64.9426 170.139 62.29 170.077 59.764 169.4L43.0853 164.93C40.5592 164.254 38.2322 162.981 36.2991 161.219L18.2962 144.814C13.7745 140.693 11.9287 134.394 13.512 128.484L40.5296 27.6541C42.1131 21.7446 46.8617 17.2119 52.8382 15.9041L76.6312 10.698ZM66.3021 68.7371C65.211 68.4447 64.0897 69.0924 63.7972 70.1834L54.1038 106.358C53.8114 107.449 54.4589 108.572 55.5501 108.864L59.9466 110.042C61.0378 110.334 62.1601 109.687 62.4525 108.595L65.2903 98.0046C65.5827 96.9135 66.7041 96.266 67.7952 96.5584L71.7435 97.616L75.6859 113.176C75.8679 113.893 76.4238 114.456 77.139 114.648L81.9446 115.936C83.4623 116.343 84.8525 114.957 84.4515 113.438L81.054 100.565C80.7471 99.4023 81.5146 98.2427 82.6487 97.8425C84.1417 97.316 85.4922 96.5174 86.6995 95.447C88.4758 93.8448 89.73 91.6789 90.4612 88.95C91.2117 86.1492 91.2308 83.6333 90.5198 81.4031C89.8089 79.1731 88.5062 77.2847 86.6116 75.738C84.7529 74.201 82.4409 73.0619 79.6761 72.3211L66.3021 68.7371ZM70.1966 79.6921C70.489 78.601 71.6113 77.9535 72.7025 78.2459L77.7825 79.6062C78.9673 79.9237 79.9277 80.432 80.6644 81.1296C81.401 81.8273 81.8925 82.6514 82.138 83.6023C82.4194 84.5628 82.4108 85.5997 82.1126 86.7127C81.824 87.7899 81.318 88.6748 80.5941 89.366C79.906 90.0667 79.0681 90.5344 78.0814 90.7703C77.0945 91.0062 76.0085 90.9657 74.8235 90.6482L69.7435 89.2869C68.6524 88.9945 68.0049 87.8731 68.2972 86.782L70.1966 79.6921ZM90.846 21.1121C87.0924 20.1064 83.2336 22.3341 82.2278 26.0877C81.2222 29.8412 83.45 33.699 87.2034 34.7048C90.9569 35.7106 94.8147 33.4835 95.8206 29.7302C96.8264 25.9767 94.5994 22.118 90.846 21.1121Z" fill="#171614"/>
<path d="M91.4023 3.12671C96.1197 3.24605 100.143 6.15214 101.893 10.2595L101.744 10.2234C99.8615 9.7546 97.918 9.61391 95.998 9.79956C94.7313 8.57078 93.0045 7.81336 91.1006 7.81323C87.2147 7.81333 84.0635 10.9644 84.0635 14.8503C84.0637 18.7361 87.2148 21.8864 91.1006 21.8865C91.5588 21.8864 92.0066 21.8412 92.4404 21.7576C93.9875 22.6152 95.1296 24.0165 95.6846 25.6443C94.2762 26.2432 92.7275 26.5768 91.1006 26.5769L90.7979 26.573C84.5614 26.4151 79.5347 21.3886 79.377 15.1521L79.373 14.8503C79.3731 8.37374 84.624 3.1229 91.1006 3.1228L91.4023 3.12671Z" fill="#414141"/>
</svg>
