<svg width="316" height="112" viewBox="0 0 316 112" fill="none" xmlns="http://www.w3.org/2000/svg">
<path d="M127.426 75.7188C126.638 75.7188 126 75.0805 126 74.293V33.4258C126 32.6383 126.638 32 127.426 32H142.725C145.737 32 148.397 32.5281 150.706 33.5844C153.053 34.6407 154.892 36.2056 156.222 38.2791C157.552 40.3525 158.217 42.915 158.217 45.9665C158.217 48.9398 157.532 51.4827 156.163 53.5953C155.079 55.2369 153.701 56.5597 152.028 57.5637C151.309 57.9952 151.006 58.9174 151.422 59.645L159.401 73.5847C159.945 74.5353 159.259 75.7188 158.164 75.7188H151.248C150.732 75.7188 150.256 75.4396 150.004 74.989L141.286 59.4008C140.825 58.5763 141.75 57.6722 142.564 58.1522V58.1522C143.375 58.6309 143.036 59.8744 142.093 59.8744H136.522C135.734 59.8744 135.096 60.5127 135.096 61.3002V74.293C135.096 75.0805 134.458 75.7188 133.67 75.7188H127.426ZM135.096 50.5264C135.096 51.3139 135.734 51.9522 136.522 51.9522H142.783C144.074 51.9522 145.189 51.6979 146.128 51.1893C147.067 50.6807 147.791 49.9765 148.3 49.0767C148.847 48.1769 149.121 47.1402 149.121 45.9665C149.121 44.7538 148.847 43.6975 148.3 42.7977C147.791 41.8979 147.067 41.1937 146.128 40.6851C145.189 40.1765 144.074 39.9222 142.783 39.9222H136.522C135.734 39.9222 135.096 40.5605 135.096 41.348V50.5264Z" fill="black"/>
<path d="M178.153 76.423C174.749 76.423 171.795 75.6797 169.292 74.193C166.788 72.6673 164.851 70.6329 163.482 68.09C162.113 65.5471 161.428 62.7303 161.428 59.6397C161.428 56.4317 162.132 53.5758 163.541 51.072C164.988 48.5682 166.925 46.5925 169.35 45.145C171.776 43.6975 174.514 42.9737 177.566 42.9737C180.109 42.9737 182.358 43.3845 184.314 44.2061C186.27 44.9885 187.914 46.1035 189.244 47.551C190.613 48.9985 191.65 50.6807 192.354 52.5977C193.058 54.4756 193.41 56.5295 193.41 58.7594C193.41 59.3854 193.371 60.0113 193.293 60.6373C193.28 60.8315 193.261 61.0172 193.235 61.1943C193.148 61.7876 192.6 62.163 192.001 62.163H170.424C169.636 62.163 168.998 61.5247 168.998 60.7373V57.1337C168.998 56.3463 169.636 55.7079 170.424 55.7079H185.267C186.135 55.7079 186.497 56.8167 185.797 57.3294V57.3294C185.126 57.8213 184.137 57.1936 184.123 56.3612C184.112 55.626 183.999 54.9388 183.786 54.2995C183.356 52.9694 182.593 51.9326 181.498 51.1893C180.441 50.4069 179.131 50.0157 177.566 50.0157C176.04 50.0157 174.729 50.3873 173.634 51.1306C172.539 51.874 171.717 52.9694 171.169 54.4169C170.631 55.8405 170.414 57.5669 170.518 59.5959C170.522 59.664 170.521 59.7326 170.515 59.8005C170.376 61.558 170.594 63.1084 171.169 64.4517C171.756 65.8209 172.656 66.8968 173.869 67.6792C175.082 68.4226 176.549 68.7942 178.27 68.7942C179.835 68.7942 181.165 68.4812 182.26 67.8553C182.992 67.4514 183.619 66.9498 184.139 66.3505C184.628 65.7874 185.422 65.5204 186.095 65.8403L190.734 68.0438C191.414 68.3667 191.735 69.169 191.365 69.8246C190.761 70.8972 189.956 71.8643 188.95 72.726C187.62 73.8996 186.036 74.819 184.197 75.4841C182.358 76.11 180.343 76.423 178.153 76.423Z" fill="black"/>
<path d="M200.019 87.4554C199.232 87.4554 198.594 86.817 198.594 86.0296V45.1037C198.594 44.3163 199.232 43.6779 200.019 43.6779H205.761C206.34 43.6779 206.809 44.1472 206.809 44.726V48.0557C206.809 48.4439 206.278 48.5541 206.123 48.1979V48.1979C206.075 48.0872 206.086 47.9594 206.154 47.8599C207.199 46.334 208.591 45.1552 210.33 44.3234C212.169 43.4236 214.262 42.9737 216.609 42.9737C219.661 42.9737 222.419 43.717 224.884 45.2037C227.348 46.6903 229.304 48.7051 230.752 51.248C232.199 53.7518 232.923 56.5686 232.923 59.6984C232.923 62.789 232.199 65.6058 230.752 68.1487C229.343 70.6916 227.407 72.7064 224.942 74.193C222.478 75.6797 219.68 76.423 216.551 76.423C214.36 76.423 212.325 76.0318 210.448 75.2493C208.758 74.4945 207.366 73.4259 206.271 72.0436C206.098 71.8256 206.105 71.5186 206.275 71.2987V71.2987C206.64 70.8268 207.396 71.0851 207.396 71.682V86.0296C207.396 86.817 206.758 87.4554 205.97 87.4554H200.019ZM215.494 68.5008C217.137 68.5008 218.585 68.1291 219.837 67.3858C221.089 66.6425 222.067 65.6058 222.771 64.2756C223.475 62.9455 223.827 61.4197 223.827 59.6984C223.827 57.977 223.475 56.4708 222.771 55.1798C222.067 53.8496 221.089 52.8129 219.837 52.0696C218.585 51.2871 217.137 50.8959 215.494 50.8959C213.929 50.8959 212.521 51.2676 211.269 52.0109C210.056 52.7542 209.098 53.7909 208.394 55.1211C207.729 56.4512 207.396 57.977 207.396 59.6984C207.396 61.4197 207.729 62.9455 208.394 64.2756C209.098 65.6058 210.056 66.6425 211.269 67.3858C212.521 68.1291 213.929 68.5008 215.494 68.5008Z" fill="black"/>
<path d="M236.922 75.7188C236.135 75.7188 235.496 75.0805 235.496 74.293V69.2274C235.496 68.8731 235.628 68.5315 235.866 68.2692L252.843 49.5626C253.351 49.0032 254.266 49.1521 254.57 49.8435V49.8435C254.873 50.5329 254.369 51.3067 253.615 51.3067H237.685C236.898 51.3067 236.259 50.6684 236.259 49.8809V45.1037C236.259 44.3163 236.898 43.6779 237.685 43.6779H261.593C262.38 43.6779 263.019 44.3163 263.019 45.1037V50.181C263.019 50.5283 262.892 50.8636 262.662 51.124L246.16 69.838C245.649 70.4168 244.71 70.2674 244.404 69.5589V69.5589C244.105 68.8643 244.614 68.09 245.37 68.09H261.652C262.439 68.09 263.077 68.7284 263.077 69.5158V74.293C263.077 75.0805 262.439 75.7188 261.652 75.7188H236.922Z" fill="black"/>
<path d="M282.865 76.423C279.696 76.423 276.801 75.6992 274.179 74.2517C271.597 72.8042 269.524 70.8286 267.959 68.3248C266.433 65.7818 265.67 62.9064 265.67 59.6984C265.67 56.4512 266.433 53.5758 267.959 51.072C269.524 48.5682 271.597 46.5925 274.179 45.145C276.801 43.6975 279.696 42.9737 282.865 42.9737C286.033 42.9737 288.909 43.6975 291.491 45.145C294.073 46.5925 296.127 48.5682 297.653 51.072C299.218 53.5758 300 56.4512 300 59.6984C300 62.9064 299.218 65.7818 297.653 68.3248C296.127 70.8286 294.073 72.8042 291.491 74.2517C288.909 75.6992 286.033 76.423 282.865 76.423ZM282.865 68.5008C284.469 68.5008 285.857 68.1291 287.031 67.3858C288.244 66.6425 289.183 65.6058 289.848 64.2756C290.552 62.9455 290.904 61.4197 290.904 59.6984C290.904 57.977 290.552 56.4708 289.848 55.1798C289.183 53.8496 288.244 52.8129 287.031 52.0696C285.857 51.2871 284.469 50.8959 282.865 50.8959C281.261 50.8959 279.852 51.2871 278.639 52.0696C277.427 52.8129 276.468 53.8496 275.764 55.1798C275.099 56.4708 274.766 57.977 274.766 59.6984C274.766 61.4197 275.099 62.9455 275.764 64.2756C276.468 65.6058 277.427 66.6425 278.639 67.3858C279.852 68.1291 281.261 68.5008 282.865 68.5008Z" fill="black"/>
<path d="M57.7159 20.508C58.8468 20.2395 60.0262 20.2459 61.1541 20.5267L71.6599 23.1431C74.2985 23.8003 76.3503 25.8742 76.9785 28.5198L87.6963 73.6584C88.3243 76.304 87.4239 79.079 85.3624 80.8521L77.1541 87.912C76.2729 88.6699 75.2222 89.2058 74.0914 89.4743L66.6251 91.2471C65.4942 91.5157 64.3149 91.5093 63.187 91.2284L52.6831 88.6115C50.0446 87.9543 47.9926 85.8804 47.3645 83.2348L36.6467 38.0963C36.0186 35.4507 36.9192 32.6757 38.9806 30.9025L47.1869 23.8431C48.0682 23.0851 49.1187 22.5493 50.2497 22.2808L57.7159 20.508ZM54.9454 24.9157C53.265 25.3147 52.2256 27.0003 52.6245 28.6807C53.0235 30.3611 54.7098 31.3994 56.3902 31.0004C58.0703 30.6013 59.1091 28.9159 58.7101 27.2357C58.3111 25.5555 56.6256 24.517 54.9454 24.9157Z" fill="#A0A0A0"/>
<path d="M50.0579 20.7544C51.1935 20.5059 52.3726 20.5336 53.4954 20.8344L60.9076 22.8208C62.0301 23.1216 63.0641 23.6875 63.9232 24.4702L71.9271 31.7622C73.9368 33.5937 74.7578 36.3935 74.054 39.02L62.0462 83.8325C61.3424 86.4589 59.2318 88.474 56.5755 89.0551L45.9984 91.3686C44.8631 91.6169 43.6844 91.5893 42.5619 91.2885L35.1497 89.3032C34.0271 89.0024 32.9922 88.4365 32.1331 87.6538L24.1322 80.3618C22.1224 78.5303 21.3015 75.7304 22.0052 73.104L34.013 28.2915C34.7168 25.665 36.8275 23.6491 39.4837 23.0678L50.0579 20.7544ZM45.4671 46.5503C44.9822 46.4204 44.4838 46.7079 44.3538 47.1928L40.0462 63.271C39.9165 63.7558 40.204 64.2543 40.6888 64.3842L42.6429 64.9077C43.1277 65.0376 43.6261 64.7498 43.7562 64.2651L45.0179 59.5581C45.1479 59.0731 45.6462 58.7846 46.1312 58.9145L47.8851 59.3852L49.638 66.3003C49.7189 66.6192 49.9658 66.8693 50.2835 66.9546L52.4193 67.5268C53.0937 67.7075 53.7115 67.0925 53.5335 66.4175L52.0238 60.6958C51.8873 60.1789 52.2286 59.6636 52.7327 59.4858C53.3963 59.2518 53.9959 58.8961 54.5326 58.4204C55.3219 57.7083 55.8794 56.7464 56.2044 55.5337C56.538 54.2889 56.5468 53.1704 56.2308 52.1792C55.9149 51.1882 55.3363 50.3489 54.4945 49.6616C53.6684 48.9784 52.6403 48.4723 51.4115 48.143L45.4671 46.5503ZM47.1986 51.4184C47.3286 50.9336 47.827 50.6459 48.3119 50.7759L50.5697 51.3803C51.0962 51.5214 51.5235 51.7471 51.8509 52.0571C52.1783 52.3672 52.3961 52.7341 52.5052 53.1567C52.6303 53.5836 52.627 54.0448 52.4945 54.5395C52.3662 55.0181 52.1404 55.4111 51.8187 55.7182C51.5129 56.0295 51.1409 56.2375 50.7025 56.3423C50.2639 56.4471 49.7809 56.4297 49.2542 56.2885L46.9964 55.6831C46.5118 55.553 46.224 55.0546 46.3538 54.5698L47.1986 51.4184ZM56.3753 25.3833C54.7072 24.9365 52.9923 25.9262 52.5452 27.5942C52.0983 29.2624 53.0891 30.9772 54.7572 31.4243C56.4252 31.871 58.1402 30.8813 58.5872 29.2134C59.0341 27.5451 58.0435 25.8303 56.3753 25.3833Z" fill="#171614"/>
<path d="M56.7573 17.3948C58.7958 17.4982 60.5238 18.7735 61.2847 20.5598L61.2192 20.5442C60.3821 20.3358 59.5183 20.274 58.6646 20.3567C58.1016 19.8106 57.3351 19.4729 56.4888 19.4729C54.7618 19.4731 53.3619 20.8729 53.3618 22.5999C53.3618 24.3269 54.7618 25.7267 56.4888 25.7268C56.6908 25.7268 56.8883 25.7067 57.0796 25.6702C57.769 26.0511 58.2777 26.673 58.5249 27.3977C57.8993 27.6635 57.2114 27.8118 56.4888 27.8118L56.2202 27.8049C53.5555 27.6695 51.4189 25.5331 51.2837 22.8684L51.2769 22.5999C51.2769 19.7215 53.6104 17.3881 56.4888 17.3879L56.7573 17.3948Z" fill="#414141"/>
</svg>
