<svg width="180" height="181" viewBox="0 0 180 181" fill="none" xmlns="http://www.w3.org/2000/svg">
<path d="M93.8605 10.8728C96.4049 10.2686 99.0575 10.2833 101.595 10.9152L125.234 16.8009C131.171 18.2794 135.787 22.947 137.2 28.8999L161.315 130.461C162.729 136.414 160.704 142.658 156.065 146.648L137.595 162.532C135.612 164.237 133.25 165.443 130.705 166.047L113.906 170.036C111.361 170.64 108.708 170.626 106.17 169.993L82.536 164.107C76.5995 162.628 71.9833 157.961 70.5698 152.009L46.4546 50.4457C45.0412 44.4932 47.0669 38.2493 51.705 34.2597L70.17 18.3768C72.1529 16.6713 74.5162 15.4659 77.061 14.8617L93.8605 10.8728ZM87.6265 20.7902C83.8457 21.6879 81.5085 25.4806 82.4062 29.2615C83.3039 33.0423 87.0966 35.3795 90.8775 34.4818C94.6583 33.584 96.9955 29.7914 96.0978 26.0105C95.2 22.2297 91.4073 19.8925 87.6265 20.7902Z" fill="#A0A0A0"/>
<path d="M76.6311 11.4273C79.1859 10.8683 81.8375 10.9302 84.3636 11.607L101.043 16.0767C103.569 16.7536 105.896 18.0264 107.829 19.7877L125.835 36.1939C130.358 40.3148 132.204 46.6151 130.62 52.525L103.603 153.353C102.019 159.263 97.2711 163.796 91.2942 165.104L67.4973 170.309C64.9426 170.868 62.29 170.807 59.7639 170.13L43.0852 165.661C40.5592 164.984 38.2321 163.711 36.2991 161.95L18.2962 145.544C13.7744 141.424 11.9288 135.124 13.512 129.214L40.5296 28.3843C42.1131 22.4748 46.8616 17.9422 52.8382 16.6343L76.6311 11.4273ZM66.302 69.4674C65.2109 69.175 64.0896 69.8225 63.7972 70.9136L54.1038 107.088C53.8114 108.18 54.4589 109.301 55.5501 109.593L59.9466 110.772C61.0377 111.064 62.16 110.417 62.4524 109.326L65.2903 98.7349C65.5827 97.6438 66.704 96.9963 67.7952 97.2886L71.7434 98.3463L75.6858 113.905C75.8677 114.623 76.4235 115.187 77.1389 115.378L81.9446 116.667C83.4623 117.073 84.8524 115.688 84.4514 114.169L81.054 101.294C80.7472 100.132 81.5147 98.973 82.6487 98.5728C84.1418 98.0462 85.4921 97.2468 86.6995 96.1763C88.4757 94.5741 89.73 92.409 90.4612 89.6802C91.2117 86.8795 91.2307 84.3636 90.5198 82.1334C89.8089 79.9033 88.5062 78.015 86.6116 76.4683C84.7529 74.9312 82.4409 73.7922 79.6761 73.0513L66.302 69.4674ZM70.1966 80.4215C70.4891 79.3305 71.6114 78.6828 72.7024 78.9752L77.7825 80.3365C78.9673 80.654 79.9277 81.1623 80.6643 81.8599C81.401 82.5576 81.8925 83.3817 82.138 84.3326C82.4193 85.2931 82.4108 86.3299 82.1126 87.4429C81.824 88.52 81.3178 89.4042 80.594 90.0953C79.906 90.796 79.0681 91.2647 78.0813 91.5006C77.0945 91.7364 76.0084 91.696 74.8235 91.3785L69.7434 90.0172C68.6524 89.7248 68.005 88.6033 68.2972 87.5123L70.1966 80.4215ZM90.847 21.8424C87.0934 20.8367 83.2346 23.0644 82.2288 26.8179C81.2231 30.5714 83.4509 34.4293 87.2044 35.4351C90.9578 36.4409 94.8156 34.2138 95.8216 30.4605C96.8273 26.707 94.6004 22.8483 90.847 21.8424Z" fill="white"/>
<path d="M91.4023 3.85645C96.1197 3.97578 100.143 6.88188 101.893 10.9893L101.744 10.9531C99.8615 10.4843 97.918 10.3436 95.998 10.5293C94.7313 9.30051 93.0045 8.54309 91.1006 8.54297C87.2147 8.54306 84.0635 11.6941 84.0635 15.5801C84.0637 19.4658 87.2148 22.6161 91.1006 22.6162C91.5588 22.6162 92.0066 22.571 92.4404 22.4873C93.9875 23.345 95.1296 24.7463 95.6846 26.374C94.2762 26.9729 92.7275 27.3066 91.1006 27.3066L90.7979 27.3027C84.5614 27.1449 79.5347 22.1183 79.377 15.8818L79.373 15.5801C79.3731 9.10348 84.624 3.85263 91.1006 3.85254L91.4023 3.85645Z" fill="#EAEAEA"/>
</svg>
