<svg width="291" height="96" viewBox="0 0 291 96" fill="none" xmlns="http://www.w3.org/2000/svg">
<path d="M47.0879 10.4551C48.6446 10.2696 50.223 10.3824 51.7373 10.7881L61.7539 13.4727C63.268 13.8784 64.691 14.569 65.9463 15.5078L74.9453 22.2373C78.9819 25.2565 80.7733 30.4298 79.4688 35.2988L68.8809 74.8135C67.5761 79.6828 63.4373 83.267 58.4316 83.8633L47.2744 85.1924C45.7179 85.3778 44.1401 85.2641 42.626 84.8584L32.6094 82.1748C31.0951 81.7691 29.6714 81.0777 28.416 80.1387L19.4209 73.4102C15.3845 70.391 13.5921 65.2186 14.8965 60.3496L25.4854 20.833C26.7902 15.9642 30.9284 12.3807 35.9336 11.7842L47.0879 10.4551ZM53.8271 46.8643C53.5923 46.5802 53.6497 46.5765 51.6094 46.9883L50.0791 47.2969C49.8762 47.3378 49.7328 47.5197 49.7393 47.7266C49.77 48.7021 48.8351 49.7359 48.2734 49.9697C47.7118 50.2034 46.4326 50.4309 43.3535 51.0986C39.1809 52.0035 38.7274 52.1102 38.5879 52.2246C38.5034 52.2942 38.0916 52.8232 37.6729 53.3994C37.2541 53.9758 36.1648 55.4704 35.2529 56.7207C34.1301 58.2604 33.5708 59.075 33.5186 59.2461C33.3866 59.6785 33.6476 60.1681 34.0908 60.3193C34.2906 60.3875 34.3895 60.3675 40.8848 58.959C47.0184 57.6289 47.5109 57.5148 47.9688 57.3203C48.5761 57.0624 49.1789 56.7646 49.5762 56.5254C49.9823 56.2809 50.9452 55.5032 51.3262 55.1123C53.0765 53.3164 54.0576 50.8945 54.0391 48.4131C54.0322 47.4913 53.9696 47.0368 53.8271 46.8643ZM60.5371 35.96C60.3373 35.8918 60.2377 35.9107 53.7422 37.3193C47.609 38.6494 47.117 38.7635 46.6592 38.958C46.0517 39.216 45.4491 39.5147 45.0518 39.7539C44.6457 39.9983 43.683 40.7751 43.3018 41.166C41.5514 42.9619 40.5704 45.3838 40.5889 47.8652C40.5957 48.7875 40.6582 49.2427 40.8008 49.4151C41.0353 49.6988 40.9789 49.7017 43.0186 49.2901L44.5488 48.9815C44.7516 48.9404 44.8952 48.7586 44.8887 48.5518C44.8581 47.5762 45.7929 46.5422 46.3545 46.3086C46.9161 46.075 48.1954 45.8484 51.2744 45.1807C55.4508 44.275 55.9009 44.1682 56.04 44.0537C56.1245 43.9841 56.5364 43.4561 56.9551 42.8799C57.3737 42.3037 58.4621 40.809 59.374 39.5586C60.4973 38.0184 61.0572 37.2032 61.1094 37.0322C61.241 36.6001 60.98 36.1114 60.5371 35.96ZM55.7373 16.5889C54.8088 16.3404 53.8553 16.8917 53.6064 17.8203C53.3577 18.7489 53.9077 19.703 54.8359 19.9522C55.7645 20.201 56.7197 19.6503 56.9688 18.7217C57.2176 17.7928 56.666 16.8377 55.7373 16.5889Z" fill="#2A2723"/>
<path d="M116.152 25.4744C121.638 25.4744 125.836 26.9909 128.669 29.0828C131.495 31.1695 132.977 33.8449 132.978 36.156C132.978 36.9719 132.739 37.6813 132.242 38.1873C131.744 38.6941 131.018 38.9665 130.104 38.9666C128.784 38.9666 127.968 38.231 127.314 37.2117C126.99 36.7056 126.698 36.1186 126.399 35.5046C126.099 34.8867 125.791 34.2379 125.43 33.5896C124.708 32.2961 123.782 31.0223 122.326 30.0691C120.872 29.1168 118.865 28.4705 115.96 28.4705C112.777 28.4705 110.362 29.3991 108.746 30.8992C107.131 32.3984 106.29 34.4892 106.29 36.8601C106.29 38.684 106.708 40.0922 107.427 41.2058C108.146 42.3207 109.179 43.1586 110.437 43.822C112.966 45.1567 116.344 45.7598 119.789 46.5125C123.209 47.2596 126.684 48.1534 129.301 50.0964C131.939 52.0554 133.682 55.0619 133.682 59.9646C133.682 63.8951 131.778 67.0701 128.746 69.2546C125.719 71.4354 121.569 72.6306 117.048 72.6306C110.726 72.6306 106.158 70.7743 103.165 68.408C100.183 66.05 98.75 63.1686 98.75 61.116C98.7501 60.335 98.9712 59.6305 99.4297 59.1179C99.8919 58.6013 100.572 58.3065 101.432 58.3064H101.442L101.677 58.325C102.822 58.4629 103.59 59.2479 104.257 60.2703C104.613 60.8163 104.951 61.4472 105.307 62.1062C105.664 62.7686 106.043 63.4644 106.483 64.158C107.363 65.5429 108.488 66.9074 110.175 67.9275C111.86 68.9469 114.126 69.6345 117.304 69.6345C120.297 69.6345 122.796 68.7677 124.543 67.3005C126.286 65.8361 127.294 63.7625 127.294 61.3083C127.294 59.3531 126.876 57.8445 126.156 56.657C125.437 55.4692 124.406 54.5849 123.153 53.8943C120.634 52.5046 117.265 51.9213 113.83 51.2253C110.421 50.5347 106.952 49.7329 104.341 47.8767C101.706 46.0036 99.9658 43.0751 99.9658 38.2039C99.9659 34.5795 101.438 31.3879 104.209 29.1072C106.977 26.8295 111.022 25.4744 116.152 25.4744ZM152.98 40.1306C160.773 40.1306 165.135 45.2743 165.135 49.8523C165.135 50.9236 164.849 51.7683 164.292 52.4294C163.739 53.0857 162.939 53.5369 161.955 53.865L161.954 53.866L147.819 58.5095C145.905 59.1385 144.829 61.1623 145.785 62.822L145.968 63.1287C147.89 66.2504 150.953 68.0339 154.709 68.0339C159.212 68.0338 162.099 65.7343 163.515 62.8621L163.654 62.5935C163.711 62.4981 163.779 62.401 163.865 62.3171L164.02 62.1873C164.395 61.9129 164.873 61.838 165.27 61.9744C165.5 62.0536 165.704 62.2066 165.836 62.4343C165.968 62.6622 166.015 62.9453 165.964 63.2673L165.962 63.2771C165.172 67.2288 160.849 72.6306 152.725 72.6306C148.531 72.6306 144.753 71.0366 142.023 68.1687C139.294 65.3009 137.627 61.1728 137.627 56.1248C137.627 46.971 144.322 40.1306 152.98 40.1306ZM215.302 40.1306C225.046 40.1306 231.808 47.5449 231.808 56.6365C231.808 65.5903 225.632 72.6306 216.454 72.6306C206.131 72.6306 199.5 64.7648 199.5 55.9324C199.5 46.897 206.397 40.1307 215.302 40.1306ZM175.599 23.6433C176.284 23.3013 176.874 23.2918 177.308 23.5496C177.737 23.805 177.942 24.2826 177.942 24.7644V67.2605C177.942 67.7691 178.083 68.1346 178.286 68.4207C178.494 68.7122 178.775 68.9341 179.08 69.1414C179.371 69.3387 179.714 69.5408 179.965 69.7644C180.229 70.0001 180.438 70.2992 180.438 70.7166V70.908C180.438 71.2608 180.256 71.5431 179.971 71.7263C179.694 71.9042 179.322 71.99 178.908 71.99H171.036C170.622 71.99 170.262 71.9043 169.998 71.7214C169.724 71.5317 169.57 71.2476 169.57 70.908V70.7166C169.57 70.3097 169.753 70.0133 169.993 69.7742C170.219 69.5494 170.53 69.345 170.789 69.1492C171.062 68.9429 171.313 68.7218 171.499 68.4304C171.682 68.1436 171.81 67.775 171.81 67.2605V31.2927C171.81 30.1382 171.3 29.479 170.769 28.9783C170.633 28.8508 170.498 28.7341 170.365 28.6199C170.235 28.5076 170.106 28.3954 169.993 28.283C169.773 28.0631 169.57 27.7967 169.57 27.4519V27.324C169.57 27.003 169.675 26.7629 169.875 26.5632C170.057 26.3815 170.315 26.237 170.595 26.0818L170.606 26.075L175.599 23.6433ZM190.724 23.6433C191.409 23.3013 191.999 23.2918 192.433 23.5496C192.862 23.805 193.067 24.2826 193.067 24.7644V67.2605C193.067 67.7691 193.208 68.1346 193.411 68.4207C193.619 68.7122 193.9 68.9341 194.205 69.1414C194.496 69.3387 194.839 69.5408 195.09 69.7644C195.354 70.0001 195.563 70.2992 195.563 70.7166V70.908C195.563 71.2608 195.381 71.5431 195.096 71.7263C194.819 71.9042 194.447 71.99 194.033 71.99H186.161C185.747 71.99 185.387 71.9043 185.123 71.7214C184.849 71.5317 184.695 71.2476 184.695 70.908V70.7166C184.695 70.3097 184.878 70.0133 185.118 69.7742C185.344 69.5494 185.655 69.345 185.914 69.1492C186.187 68.9429 186.438 68.7218 186.624 68.4304C186.807 68.1436 186.935 67.775 186.935 67.2605V31.2927C186.935 30.1382 186.425 29.479 185.894 28.9783C185.758 28.8508 185.623 28.7341 185.49 28.6199C185.36 28.5076 185.231 28.3954 185.118 28.283C184.898 28.0631 184.695 27.7967 184.695 27.4519V27.324C184.695 27.003 184.8 26.7629 185 26.5632C185.182 26.3815 185.44 26.237 185.72 26.0818L185.731 26.075L190.724 23.6433ZM252.13 40.1306C254.098 40.1307 255.634 40.7055 256.681 41.6511C257.729 42.5977 258.268 43.8985 258.268 45.3083C258.268 46.1741 258.069 46.9868 257.608 47.5886C257.141 48.2003 256.423 48.5662 255.457 48.5662C254.558 48.5661 253.966 48.2585 253.536 47.7839C253.124 47.3284 252.871 46.7248 252.622 46.1804C252.365 45.6186 252.107 45.1022 251.688 44.7205C251.281 44.3489 250.701 44.0867 249.762 44.0867C248.115 44.0867 246.827 45.0236 245.938 46.5769C245.047 48.1359 244.571 50.2975 244.571 52.6687V67.2605C244.571 68.249 245.15 68.7598 245.803 69.1873C246.115 69.3915 246.482 69.5978 246.746 69.8103C247.019 70.0304 247.26 70.3151 247.26 70.7166V70.9724C247.26 71.3176 247.1 71.5909 246.809 71.7634C246.536 71.9248 246.163 71.99 245.729 71.99H237.794C237.36 71.99 236.986 71.9249 236.714 71.7634C236.423 71.5909 236.264 71.3175 236.264 70.9724V70.7166C236.264 70.3283 236.469 70.0462 236.715 69.821C236.949 69.6073 237.277 69.3983 237.549 69.196C237.836 68.9822 238.105 68.7484 238.303 68.446C238.498 68.1483 238.632 67.7721 238.632 67.2605V47.8044C238.632 47.2445 238.485 46.8322 238.272 46.5066C238.057 46.1765 237.764 45.9226 237.453 45.6931C237.158 45.4757 236.805 45.2536 236.555 45.0291C236.291 44.7931 236.071 44.4991 236.071 44.0925V43.9646C236.071 43.3654 236.578 42.9171 237.16 42.5935L237.18 42.5837L242.038 40.4099L242.269 40.3103C242.794 40.1024 243.24 40.0789 243.572 40.3005C243.947 40.5505 244.06 41.035 244.06 41.532C244.06 41.6802 244.134 41.8311 244.297 41.9744C244.46 42.1183 244.696 42.2393 244.964 42.3171C245.231 42.3946 245.517 42.4252 245.771 42.4021C246.028 42.3787 246.23 42.3027 246.357 42.1902L246.65 41.9421C248.143 40.7438 249.999 40.1306 252.13 40.1306ZM215.302 43.0623C212.679 43.0623 210.283 44.4965 208.534 46.8337C206.785 49.171 205.696 52.3978 205.696 55.9324C205.696 59.9915 206.679 63.4509 208.51 65.8884C210.334 68.3181 213.012 69.7498 216.454 69.7498C218.842 69.7497 221.143 68.2656 222.858 65.8611C224.571 63.4603 225.676 60.1705 225.676 56.6365C225.676 52.1906 224.659 48.7966 222.865 46.5193C221.078 44.2499 218.498 43.0623 215.302 43.0623ZM152.021 42.6785C149.521 42.6785 147.448 43.9097 145.992 45.95C144.533 47.9948 143.694 50.8525 143.694 54.0759C143.694 55.5926 145.216 56.5308 146.702 55.9978L157.877 51.988C158.39 51.777 158.728 51.5168 158.941 51.2009C159.154 50.8853 159.259 50.4897 159.259 49.9802C159.259 48.6151 158.523 46.783 157.231 45.2878C155.944 43.7973 154.136 42.6785 152.021 42.6785Z" fill="black" stroke="black" stroke-width="0.5"/>
</svg>
