<svg width="335" height="96" viewBox="0 0 335 96" fill="none" xmlns="http://www.w3.org/2000/svg">
<path d="M56.0891 10.5749C57.6454 10.3895 59.2227 10.5023 60.7366 10.9079L70.7541 13.5924C72.2681 13.9981 73.6913 14.6889 74.9465 15.6276L83.9455 22.3581C87.9818 25.3773 89.7734 30.5497 88.469 35.4186L77.8811 74.9333C76.5764 79.8024 72.4383 83.3876 67.4328 83.984L56.2746 85.3122C54.7183 85.4975 53.1402 85.3848 51.6262 84.9792L41.6086 82.2956C40.0947 81.8899 38.6724 81.1981 37.4172 80.2594L28.4211 73.5309C24.3846 70.5116 22.593 65.3385 23.8977 60.4694L34.4856 20.9538C35.7904 16.0849 39.9285 12.5005 44.9338 11.904L56.0891 10.5749ZM62.8274 46.984C62.5926 46.7001 62.6498 46.6963 60.6096 47.1081L59.0793 47.4176C58.8767 47.4587 58.7332 47.6397 58.7395 47.8463C58.7702 48.8219 57.8353 49.8557 57.2737 50.0895C56.7121 50.3231 55.4329 50.5507 52.3537 51.2184C48.1774 52.1241 47.7272 52.2309 47.5881 52.3454C47.5034 52.4153 47.0916 52.9432 46.6731 53.5192C46.2544 54.0955 45.166 55.5901 44.2541 56.8405C43.1314 58.38 42.5713 59.1944 42.5188 59.3659C42.3869 59.7982 42.648 60.2877 43.091 60.4391C43.2909 60.5073 43.3904 60.4874 49.886 59.0788C56.0187 57.7488 56.5111 57.6355 56.969 57.4411C57.5764 57.1831 58.179 56.8844 58.5764 56.6452C58.9825 56.4007 59.9454 55.623 60.3264 55.2321C62.0767 53.4362 63.0578 51.0143 63.0393 48.5329C63.0324 47.6109 62.9699 47.1564 62.8274 46.984ZM69.5373 36.0797C69.3375 36.0116 69.2387 36.0315 62.7434 37.4401C56.6098 38.7702 56.1173 38.8833 55.6594 39.0778C55.0519 39.3358 54.4494 39.6344 54.052 39.8737C53.6458 40.1182 52.683 40.8959 52.302 41.2868C50.5518 43.0825 49.5707 45.5038 49.5891 47.985C49.596 48.9073 49.6585 49.3624 49.801 49.5348C50.0358 49.8188 49.9785 49.8216 52.0188 49.4098L53.5491 49.1012C53.7518 49.0602 53.8952 48.8792 53.8889 48.6725C53.8582 47.6968 54.7931 46.662 55.3547 46.4284C55.9163 46.1948 57.1955 45.9682 60.2746 45.3004C64.451 44.3948 64.9012 44.288 65.0403 44.1735C65.1248 44.1039 65.5366 43.5759 65.9553 42.9997C66.374 42.4234 67.4633 40.9288 68.3752 39.6784C69.4976 38.1393 70.0569 37.3246 70.1096 37.153C70.2415 36.7207 69.9805 36.2311 69.5373 36.0797ZM64.7385 16.7086C63.8098 16.4598 62.8546 17.0113 62.6057 17.9401C62.3568 18.8689 62.9085 19.824 63.8371 20.0729C64.7657 20.3215 65.72 19.77 65.969 18.8415C66.2178 17.9127 65.667 16.9577 64.7385 16.7086Z" fill="white"/>
<path d="M125.152 25.4744C130.638 25.4744 134.836 26.9909 137.669 29.0828C140.495 31.1695 141.977 33.8449 141.978 36.156C141.978 36.9719 141.739 37.6813 141.242 38.1873C140.744 38.6941 140.018 38.9665 139.104 38.9666C137.784 38.9666 136.968 38.231 136.314 37.2117C135.99 36.7056 135.698 36.1186 135.399 35.5046C135.099 34.8867 134.791 34.2379 134.43 33.5896C133.708 32.2961 132.782 31.0223 131.326 30.0691C129.872 29.1168 127.865 28.4705 124.96 28.4705C121.777 28.4705 119.362 29.3991 117.746 30.8992C116.131 32.3984 115.29 34.4892 115.29 36.8601C115.29 38.684 115.708 40.0922 116.427 41.2058C117.146 42.3207 118.179 43.1586 119.437 43.822C121.966 45.1567 125.344 45.7598 128.789 46.5125C132.209 47.2596 135.684 48.1534 138.301 50.0964C140.939 52.0554 142.682 55.0619 142.682 59.9646C142.682 63.8951 140.778 67.0701 137.746 69.2546C134.719 71.4354 130.569 72.6306 126.048 72.6306C119.726 72.6306 115.158 70.7743 112.165 68.408C109.183 66.05 107.75 63.1686 107.75 61.116C107.75 60.335 107.971 59.6305 108.43 59.1179C108.892 58.6013 109.572 58.3065 110.432 58.3064H110.442L110.677 58.325C111.822 58.4629 112.59 59.2479 113.257 60.2703C113.613 60.8163 113.951 61.4472 114.307 62.1062C114.664 62.7686 115.043 63.4644 115.483 64.158C116.363 65.5429 117.488 66.9074 119.175 67.9275C120.86 68.9469 123.126 69.6345 126.304 69.6345C129.297 69.6345 131.796 68.7677 133.543 67.3005C135.286 65.8361 136.294 63.7625 136.294 61.3083C136.294 59.3531 135.876 57.8445 135.156 56.657C134.437 55.4692 133.406 54.5849 132.153 53.8943C129.634 52.5046 126.265 51.9213 122.83 51.2253C119.421 50.5347 115.952 49.7329 113.341 47.8767C110.706 46.0036 108.966 43.0751 108.966 38.2039C108.966 34.5795 110.438 31.3879 113.209 29.1072C115.977 26.8295 120.022 25.4744 125.152 25.4744ZM161.98 40.1306C169.773 40.1306 174.135 45.2743 174.135 49.8523C174.135 50.9236 173.849 51.7683 173.292 52.4294C172.739 53.0857 171.939 53.5369 170.955 53.865L170.954 53.866L156.819 58.5095C154.905 59.1385 153.829 61.1623 154.785 62.822L154.968 63.1287C156.89 66.2504 159.953 68.0339 163.709 68.0339C168.212 68.0338 171.099 65.7343 172.515 62.8621L172.654 62.5935C172.711 62.4981 172.779 62.401 172.865 62.3171L173.02 62.1873C173.395 61.9129 173.873 61.838 174.27 61.9744C174.5 62.0536 174.704 62.2066 174.836 62.4343C174.968 62.6622 175.015 62.9453 174.964 63.2673L174.962 63.2771C174.172 67.2288 169.849 72.6306 161.725 72.6306C157.531 72.6306 153.753 71.0366 151.023 68.1687C148.294 65.3009 146.627 61.1728 146.627 56.1248C146.627 46.971 153.322 40.1306 161.98 40.1306ZM224.302 40.1306C234.046 40.1306 240.808 47.5449 240.808 56.6365C240.808 65.5903 234.632 72.6306 225.454 72.6306C215.131 72.6306 208.5 64.7648 208.5 55.9324C208.5 46.897 215.397 40.1307 224.302 40.1306ZM184.599 23.6433C185.284 23.3013 185.874 23.2918 186.308 23.5496C186.737 23.805 186.942 24.2826 186.942 24.7644V67.2605C186.942 67.7691 187.083 68.1346 187.286 68.4207C187.494 68.7122 187.775 68.9341 188.08 69.1414C188.371 69.3387 188.714 69.5408 188.965 69.7644C189.229 70.0001 189.438 70.2992 189.438 70.7166V70.908C189.438 71.2608 189.256 71.5431 188.971 71.7263C188.694 71.9042 188.322 71.99 187.908 71.99H180.036C179.622 71.99 179.262 71.9043 178.998 71.7214C178.724 71.5317 178.57 71.2476 178.57 70.908V70.7166C178.57 70.3097 178.753 70.0133 178.993 69.7742C179.219 69.5494 179.53 69.345 179.789 69.1492C180.062 68.9429 180.313 68.7218 180.499 68.4304C180.682 68.1436 180.81 67.775 180.81 67.2605V31.2927C180.81 30.1382 180.3 29.479 179.769 28.9783C179.633 28.8508 179.498 28.7341 179.365 28.6199C179.235 28.5076 179.106 28.3954 178.993 28.283C178.773 28.0631 178.57 27.7967 178.57 27.4519V27.324C178.57 27.003 178.675 26.7629 178.875 26.5632C179.057 26.3815 179.315 26.237 179.595 26.0818L179.606 26.075L184.599 23.6433ZM199.724 23.6433C200.409 23.3013 200.999 23.2918 201.433 23.5496C201.862 23.805 202.067 24.2826 202.067 24.7644V67.2605C202.067 67.7691 202.208 68.1346 202.411 68.4207C202.619 68.7122 202.9 68.9341 203.205 69.1414C203.496 69.3387 203.839 69.5408 204.09 69.7644C204.354 70.0001 204.563 70.2992 204.563 70.7166V70.908C204.563 71.2608 204.381 71.5431 204.096 71.7263C203.819 71.9042 203.447 71.99 203.033 71.99H195.161C194.747 71.99 194.387 71.9043 194.123 71.7214C193.849 71.5317 193.695 71.2476 193.695 70.908V70.7166C193.695 70.3097 193.878 70.0133 194.118 69.7742C194.344 69.5494 194.655 69.345 194.914 69.1492C195.187 68.9429 195.438 68.7218 195.624 68.4304C195.807 68.1436 195.935 67.775 195.935 67.2605V31.2927C195.935 30.1382 195.425 29.479 194.894 28.9783C194.758 28.8508 194.623 28.7341 194.49 28.6199C194.36 28.5076 194.231 28.3954 194.118 28.283C193.898 28.0631 193.695 27.7967 193.695 27.4519V27.324C193.695 27.003 193.8 26.7629 194 26.5632C194.182 26.3815 194.44 26.237 194.72 26.0818L194.731 26.075L199.724 23.6433ZM261.13 40.1306C263.098 40.1307 264.634 40.7055 265.681 41.6511C266.729 42.5977 267.268 43.8985 267.268 45.3083C267.268 46.1741 267.069 46.9868 266.608 47.5886C266.141 48.2003 265.423 48.5662 264.457 48.5662C263.558 48.5661 262.966 48.2585 262.536 47.7839C262.124 47.3284 261.871 46.7248 261.622 46.1804C261.365 45.6186 261.107 45.1022 260.688 44.7205C260.281 44.3489 259.701 44.0867 258.762 44.0867C257.115 44.0867 255.827 45.0236 254.938 46.5769C254.047 48.1359 253.571 50.2975 253.571 52.6687V67.2605C253.571 68.249 254.15 68.7598 254.803 69.1873C255.115 69.3915 255.482 69.5978 255.746 69.8103C256.019 70.0304 256.26 70.3151 256.26 70.7166V70.9724C256.26 71.3176 256.1 71.5909 255.809 71.7634C255.536 71.9248 255.163 71.99 254.729 71.99H246.794C246.36 71.99 245.986 71.9249 245.714 71.7634C245.423 71.5909 245.264 71.3175 245.264 70.9724V70.7166C245.264 70.3283 245.469 70.0462 245.715 69.821C245.949 69.6073 246.277 69.3983 246.549 69.196C246.836 68.9822 247.105 68.7484 247.303 68.446C247.498 68.1483 247.632 67.7721 247.632 67.2605V47.8044C247.632 47.2445 247.485 46.8322 247.272 46.5066C247.057 46.1765 246.764 45.9226 246.453 45.6931C246.158 45.4757 245.805 45.2536 245.555 45.0291C245.291 44.7931 245.071 44.4991 245.071 44.0925V43.9646C245.071 43.3654 245.578 42.9171 246.16 42.5935L246.18 42.5837L251.038 40.4099L251.269 40.3103C251.794 40.1024 252.24 40.0789 252.572 40.3005C252.947 40.5505 253.06 41.035 253.06 41.532C253.06 41.6802 253.134 41.8311 253.297 41.9744C253.46 42.1183 253.696 42.2393 253.964 42.3171C254.231 42.3946 254.517 42.4252 254.771 42.4021C255.028 42.3787 255.23 42.3027 255.357 42.1902L255.65 41.9421C257.143 40.7438 258.999 40.1306 261.13 40.1306ZM224.302 43.0623C221.679 43.0623 219.283 44.4965 217.534 46.8337C215.785 49.171 214.696 52.3978 214.696 55.9324C214.696 59.9915 215.679 63.4509 217.51 65.8884C219.334 68.3181 222.012 69.7498 225.454 69.7498C227.842 69.7497 230.143 68.2656 231.858 65.8611C233.571 63.4603 234.676 60.1705 234.676 56.6365C234.676 52.1906 233.659 48.7966 231.865 46.5193C230.078 44.2499 227.498 43.0623 224.302 43.0623ZM161.021 42.6785C158.521 42.6785 156.448 43.9097 154.992 45.95C153.533 47.9948 152.694 50.8525 152.694 54.0759C152.694 55.5926 154.216 56.5308 155.702 55.9978L166.877 51.988C167.39 51.777 167.728 51.5168 167.941 51.2009C168.154 50.8853 168.259 50.4897 168.259 49.9802C168.259 48.6151 167.523 46.783 166.231 45.2878C164.944 43.7973 163.136 42.6785 161.021 42.6785Z" fill="white" stroke="white" stroke-width="0.5"/>
</svg>
